<svg width="490" height="521" viewBox="0 0 490 521" fill="none" xmlns="http://www.w3.org/2000/svg">
<g filter="url(#filter0_d_6_12055)">
<path d="M415 37.5595C415 27.7843 406.312 20.294 396.643 21.734L40.643 74.7559C32.8032 75.9235 27 82.655 27 90.5813V405.423C27 413.255 32.6689 419.935 40.396 421.21L396.396 479.931C406.141 481.539 415 474.021 415 464.145V37.5595Z" fill="white"/>
</g>
<path d="M124.866 295.16C124.173 295.16 123.543 294.989 122.978 294.648C122.413 294.296 121.965 293.821 121.634 293.224C121.314 292.627 121.154 291.955 121.154 291.208C121.154 290.461 121.314 289.789 121.634 289.192C121.965 288.595 122.407 288.12 122.962 287.768C123.527 287.416 124.162 287.24 124.866 287.24C125.442 287.24 125.954 287.363 126.402 287.608C126.861 287.843 127.229 288.173 127.506 288.6C127.783 289.016 127.938 289.501 127.97 290.056V292.344C127.938 292.888 127.783 293.373 127.506 293.8C127.239 294.227 126.877 294.563 126.418 294.808C125.97 295.043 125.453 295.16 124.866 295.16ZM125.106 293.8C125.821 293.8 126.397 293.56 126.834 293.08C127.271 292.589 127.49 291.965 127.49 291.208C127.49 290.685 127.389 290.232 127.186 289.848C126.994 289.453 126.717 289.149 126.354 288.936C125.991 288.712 125.57 288.6 125.09 288.6C124.61 288.6 124.183 288.712 123.81 288.936C123.447 289.16 123.159 289.469 122.946 289.864C122.743 290.248 122.642 290.691 122.642 291.192C122.642 291.704 122.743 292.157 122.946 292.552C123.159 292.936 123.453 293.24 123.826 293.464C124.199 293.688 124.626 293.8 125.106 293.8ZM127.394 295V292.952L127.666 291.096L127.394 289.256V287.4H128.85V295H127.394ZM130.947 295V287.4H132.387V295H130.947ZM136.083 295V290.408C136.083 289.843 135.907 289.4 135.555 289.08C135.213 288.749 134.781 288.584 134.259 288.584C133.907 288.584 133.592 288.659 133.315 288.808C133.037 288.957 132.813 289.165 132.643 289.432C132.472 289.699 132.387 290.019 132.387 290.392L131.795 290.104C131.795 289.528 131.917 289.027 132.163 288.6C132.419 288.173 132.765 287.843 133.203 287.608C133.64 287.363 134.131 287.24 134.675 287.24C135.208 287.24 135.688 287.357 136.115 287.592C136.552 287.827 136.893 288.157 137.139 288.584C137.395 289.011 137.523 289.517 137.523 290.104V295H136.083ZM141.219 295V290.408C141.219 289.843 141.043 289.4 140.691 289.08C140.349 288.749 139.923 288.584 139.411 288.584C139.059 288.584 138.739 288.659 138.451 288.808C138.173 288.957 137.949 289.165 137.779 289.432C137.608 289.699 137.523 290.019 137.523 290.392L136.707 290.104C136.739 289.517 136.893 289.016 137.171 288.6C137.459 288.173 137.827 287.843 138.275 287.608C138.723 287.363 139.213 287.24 139.747 287.24C140.301 287.24 140.797 287.357 141.235 287.592C141.672 287.827 142.019 288.157 142.275 288.584C142.541 289.011 142.675 289.523 142.675 290.12V295H141.219ZM148.154 295.16C147.397 295.16 146.714 294.989 146.106 294.648C145.498 294.296 145.018 293.821 144.666 293.224C144.314 292.627 144.138 291.949 144.138 291.192C144.138 290.445 144.309 289.773 144.65 289.176C145.002 288.579 145.471 288.109 146.058 287.768C146.655 287.416 147.322 287.24 148.058 287.24C148.762 287.24 149.381 287.4 149.914 287.72C150.458 288.04 150.879 288.483 151.178 289.048C151.487 289.613 151.642 290.253 151.642 290.968C151.642 291.075 151.637 291.192 151.626 291.32C151.615 291.437 151.594 291.576 151.562 291.736H145.146V290.536H150.794L150.266 291C150.266 290.488 150.175 290.056 149.994 289.704C149.813 289.341 149.557 289.064 149.226 288.872C148.895 288.669 148.495 288.568 148.026 288.568C147.535 288.568 147.103 288.675 146.73 288.888C146.357 289.101 146.069 289.4 145.866 289.784C145.663 290.168 145.562 290.621 145.562 291.144C145.562 291.677 145.669 292.147 145.882 292.552C146.095 292.947 146.399 293.256 146.794 293.48C147.189 293.693 147.642 293.8 148.154 293.8C148.581 293.8 148.97 293.725 149.322 293.576C149.685 293.427 149.994 293.203 150.25 292.904L151.178 293.848C150.815 294.275 150.367 294.6 149.834 294.824C149.311 295.048 148.751 295.16 148.154 295.16ZM154.162 295V284.216H155.602V295H154.162ZM152.29 288.712V287.4H157.474V288.712H152.29ZM158.417 296.76L159.409 294.856L159.921 294.728C159.868 294.845 159.799 294.941 159.713 295.016C159.639 295.091 159.543 295.128 159.425 295.128C159.201 295.128 158.993 295.037 158.801 294.856C158.62 294.664 158.529 294.429 158.529 294.152C158.529 293.843 158.631 293.587 158.833 293.384C159.036 293.171 159.292 293.064 159.601 293.064C159.879 293.064 160.124 293.171 160.337 293.384C160.551 293.587 160.657 293.843 160.657 294.152C160.657 294.269 160.631 294.413 160.577 294.584C160.535 294.744 160.444 294.952 160.305 295.208L159.249 297.208L158.417 296.76ZM168.488 295.16C168.061 295.16 167.656 295.107 167.272 295C166.898 294.883 166.552 294.723 166.232 294.52C165.912 294.307 165.634 294.056 165.4 293.768L166.328 292.84C166.605 293.181 166.925 293.437 167.288 293.608C167.65 293.768 168.056 293.848 168.504 293.848C168.952 293.848 169.298 293.773 169.544 293.624C169.789 293.464 169.912 293.245 169.912 292.968C169.912 292.691 169.81 292.477 169.608 292.328C169.416 292.168 169.165 292.04 168.856 291.944C168.546 291.837 168.216 291.736 167.864 291.64C167.522 291.533 167.197 291.4 166.888 291.24C166.578 291.08 166.322 290.861 166.12 290.584C165.928 290.307 165.832 289.939 165.832 289.48C165.832 289.021 165.944 288.627 166.168 288.296C166.392 287.955 166.701 287.693 167.096 287.512C167.501 287.331 167.986 287.24 168.552 287.24C169.149 287.24 169.677 287.347 170.136 287.56C170.605 287.763 170.989 288.072 171.288 288.488L170.36 289.416C170.146 289.139 169.88 288.925 169.56 288.776C169.25 288.627 168.898 288.552 168.504 288.552C168.088 288.552 167.768 288.627 167.544 288.776C167.33 288.915 167.224 289.112 167.224 289.368C167.224 289.624 167.32 289.821 167.512 289.96C167.704 290.099 167.954 290.216 168.264 290.312C168.584 290.408 168.914 290.509 169.256 290.616C169.597 290.712 169.922 290.845 170.232 291.016C170.541 291.187 170.792 291.416 170.984 291.704C171.186 291.992 171.288 292.371 171.288 292.84C171.288 293.555 171.032 294.12 170.52 294.536C170.018 294.952 169.341 295.16 168.488 295.16ZM176.42 295.16C175.662 295.16 174.98 294.989 174.372 294.648C173.764 294.296 173.284 293.821 172.932 293.224C172.58 292.627 172.404 291.949 172.404 291.192C172.404 290.445 172.574 289.773 172.916 289.176C173.268 288.579 173.737 288.109 174.324 287.768C174.921 287.416 175.588 287.24 176.324 287.24C177.028 287.24 177.646 287.4 178.18 287.72C178.724 288.04 179.145 288.483 179.444 289.048C179.753 289.613 179.908 290.253 179.908 290.968C179.908 291.075 179.902 291.192 179.892 291.32C179.881 291.437 179.86 291.576 179.828 291.736H173.412V290.536H179.06L178.532 291C178.532 290.488 178.441 290.056 178.26 289.704C178.078 289.341 177.822 289.064 177.492 288.872C177.161 288.669 176.761 288.568 176.292 288.568C175.801 288.568 175.369 288.675 174.996 288.888C174.622 289.101 174.334 289.4 174.132 289.784C173.929 290.168 173.828 290.621 173.828 291.144C173.828 291.677 173.934 292.147 174.148 292.552C174.361 292.947 174.665 293.256 175.06 293.48C175.454 293.693 175.908 293.8 176.42 293.8C176.846 293.8 177.236 293.725 177.588 293.576C177.95 293.427 178.26 293.203 178.516 292.904L179.444 293.848C179.081 294.275 178.633 294.6 178.1 294.824C177.577 295.048 177.017 295.16 176.42 295.16ZM184.694 295.16C183.99 295.16 183.361 294.989 182.806 294.648C182.251 294.296 181.809 293.821 181.478 293.224C181.158 292.627 180.998 291.955 180.998 291.208C180.998 290.461 181.158 289.789 181.478 289.192C181.809 288.595 182.251 288.12 182.806 287.768C183.361 287.416 183.99 287.24 184.694 287.24C185.259 287.24 185.771 287.363 186.23 287.608C186.689 287.843 187.057 288.173 187.334 288.6C187.622 289.016 187.782 289.501 187.814 290.056V292.344C187.782 292.888 187.627 293.373 187.35 293.8C187.073 294.227 186.705 294.563 186.246 294.808C185.787 295.043 185.27 295.16 184.694 295.16ZM184.934 293.8C185.414 293.8 185.83 293.688 186.182 293.464C186.545 293.24 186.827 292.936 187.03 292.552C187.233 292.157 187.334 291.709 187.334 291.208C187.334 290.685 187.227 290.232 187.014 289.848C186.811 289.464 186.529 289.16 186.166 288.936C185.814 288.712 185.398 288.6 184.918 288.6C184.438 288.6 184.017 288.712 183.654 288.936C183.291 289.16 183.003 289.469 182.79 289.864C182.587 290.248 182.486 290.691 182.486 291.192C182.486 291.704 182.587 292.157 182.79 292.552C183.003 292.936 183.291 293.24 183.654 293.464C184.027 293.688 184.454 293.8 184.934 293.8ZM188.694 295H187.238V292.952L187.51 291.096L187.238 289.256V283.576H188.694V295ZM197.367 295.16C196.663 295.16 196.028 294.989 195.463 294.648C194.897 294.296 194.449 293.821 194.118 293.224C193.799 292.627 193.639 291.955 193.639 291.208C193.639 290.461 193.799 289.789 194.118 289.192C194.449 288.595 194.897 288.12 195.463 287.768C196.028 287.416 196.657 287.24 197.351 287.24C197.937 287.24 198.455 287.363 198.903 287.608C199.361 287.843 199.724 288.173 199.991 288.6C200.268 289.016 200.423 289.501 200.455 290.056V292.344C200.423 292.888 200.268 293.373 199.991 293.8C199.724 294.227 199.361 294.563 198.903 294.808C198.455 295.043 197.943 295.16 197.367 295.16ZM197.591 293.8C198.305 293.8 198.881 293.56 199.319 293.08C199.756 292.589 199.975 291.965 199.975 291.208C199.975 290.685 199.873 290.232 199.671 289.848C199.479 289.453 199.201 289.149 198.839 288.936C198.487 288.712 198.071 288.6 197.591 288.6C197.111 288.6 196.684 288.712 196.311 288.936C195.948 289.16 195.66 289.469 195.447 289.864C195.233 290.248 195.127 290.691 195.127 291.192C195.127 291.704 195.233 292.157 195.447 292.552C195.66 292.936 195.948 293.24 196.311 293.464C196.684 293.688 197.111 293.8 197.591 293.8ZM199.895 298.184V293.096L200.151 291.24L199.895 289.4V287.4H201.335V298.184H199.895ZM206.519 295.16C205.889 295.16 205.324 295.021 204.823 294.744C204.332 294.456 203.948 294.061 203.671 293.56C203.393 293.059 203.255 292.477 203.255 291.816V287.4H204.695V291.752C204.695 292.168 204.764 292.531 204.903 292.84C205.052 293.139 205.265 293.368 205.543 293.528C205.82 293.688 206.145 293.768 206.519 293.768C207.084 293.768 207.527 293.592 207.847 293.24C208.167 292.877 208.327 292.381 208.327 291.752V287.4H209.767V291.816C209.767 292.477 209.628 293.059 209.351 293.56C209.073 294.061 208.689 294.456 208.199 294.744C207.719 295.021 207.159 295.16 206.519 295.16ZM211.713 295V287.4H213.153V295H211.713ZM212.433 285.88C212.166 285.88 211.947 285.795 211.777 285.624C211.606 285.443 211.521 285.219 211.521 284.952C211.521 284.696 211.606 284.483 211.777 284.312C211.947 284.131 212.166 284.04 212.433 284.04C212.699 284.04 212.918 284.131 213.089 284.312C213.259 284.483 213.345 284.696 213.345 284.952C213.345 285.219 213.259 285.443 213.089 285.624C212.918 285.795 212.699 285.88 212.433 285.88ZM217.691 295.16C217.264 295.16 216.859 295.107 216.475 295C216.101 294.883 215.755 294.723 215.435 294.52C215.115 294.307 214.837 294.056 214.603 293.768L215.531 292.84C215.808 293.181 216.128 293.437 216.491 293.608C216.853 293.768 217.259 293.848 217.707 293.848C218.155 293.848 218.501 293.773 218.747 293.624C218.992 293.464 219.115 293.245 219.115 292.968C219.115 292.691 219.013 292.477 218.811 292.328C218.619 292.168 218.368 292.04 218.059 291.944C217.749 291.837 217.419 291.736 217.067 291.64C216.725 291.533 216.4 291.4 216.091 291.24C215.781 291.08 215.525 290.861 215.323 290.584C215.131 290.307 215.035 289.939 215.035 289.48C215.035 289.021 215.147 288.627 215.371 288.296C215.595 287.955 215.904 287.693 216.299 287.512C216.704 287.331 217.189 287.24 217.755 287.24C218.352 287.24 218.88 287.347 219.339 287.56C219.808 287.763 220.192 288.072 220.491 288.488L219.563 289.416C219.349 289.139 219.083 288.925 218.763 288.776C218.453 288.627 218.101 288.552 217.707 288.552C217.291 288.552 216.971 288.627 216.747 288.776C216.533 288.915 216.427 289.112 216.427 289.368C216.427 289.624 216.523 289.821 216.715 289.96C216.907 290.099 217.157 290.216 217.467 290.312C217.787 290.408 218.117 290.509 218.459 290.616C218.8 290.712 219.125 290.845 219.435 291.016C219.744 291.187 219.995 291.416 220.187 291.704C220.389 291.992 220.491 292.371 220.491 292.84C220.491 293.555 220.235 294.12 219.723 294.536C219.221 294.952 218.544 295.16 217.691 295.16ZM225.431 295V283.576H226.871V295H225.431ZM232.21 295.16C231.517 295.16 230.887 294.989 230.322 294.648C229.757 294.296 229.309 293.821 228.978 293.224C228.658 292.627 228.498 291.955 228.498 291.208C228.498 290.461 228.658 289.789 228.978 289.192C229.309 288.595 229.751 288.12 230.306 287.768C230.871 287.416 231.506 287.24 232.21 287.24C232.786 287.24 233.298 287.363 233.746 287.608C234.205 287.843 234.573 288.173 234.85 288.6C235.127 289.016 235.282 289.501 235.314 290.056V292.344C235.282 292.888 235.127 293.373 234.85 293.8C234.583 294.227 234.221 294.563 233.762 294.808C233.314 295.043 232.797 295.16 232.21 295.16ZM232.45 293.8C233.165 293.8 233.741 293.56 234.178 293.08C234.615 292.589 234.834 291.965 234.834 291.208C234.834 290.685 234.733 290.232 234.53 289.848C234.338 289.453 234.061 289.149 233.698 288.936C233.335 288.712 232.914 288.6 232.434 288.6C231.954 288.6 231.527 288.712 231.154 288.936C230.791 289.16 230.503 289.469 230.29 289.864C230.087 290.248 229.986 290.691 229.986 291.192C229.986 291.704 230.087 292.157 230.29 292.552C230.503 292.936 230.797 293.24 231.17 293.464C231.543 293.688 231.97 293.8 232.45 293.8ZM234.738 295V292.952L235.01 291.096L234.738 289.256V287.4H236.194V295H234.738ZM241.762 295.16C241.016 295.16 240.338 294.984 239.73 294.632C239.133 294.28 238.658 293.805 238.306 293.208C237.965 292.6 237.794 291.928 237.794 291.192C237.794 290.445 237.965 289.773 238.306 289.176C238.658 288.579 239.133 288.109 239.73 287.768C240.338 287.416 241.016 287.24 241.762 287.24C242.349 287.24 242.893 287.352 243.394 287.576C243.896 287.789 244.328 288.104 244.69 288.52L243.73 289.48C243.496 289.203 243.208 288.995 242.866 288.856C242.536 288.707 242.168 288.632 241.762 288.632C241.282 288.632 240.856 288.744 240.482 288.968C240.109 289.181 239.816 289.48 239.602 289.864C239.389 290.248 239.282 290.691 239.282 291.192C239.282 291.693 239.389 292.136 239.602 292.52C239.816 292.904 240.109 293.208 240.482 293.432C240.856 293.656 241.282 293.768 241.762 293.768C242.168 293.768 242.536 293.699 242.866 293.56C243.208 293.411 243.501 293.197 243.746 292.92L244.69 293.88C244.338 294.285 243.906 294.6 243.394 294.824C242.893 295.048 242.349 295.16 241.762 295.16ZM249.191 295.16C248.561 295.16 247.996 295.021 247.495 294.744C247.004 294.456 246.62 294.061 246.343 293.56C246.065 293.059 245.927 292.477 245.927 291.816V287.4H247.367V291.752C247.367 292.168 247.436 292.531 247.575 292.84C247.724 293.139 247.937 293.368 248.215 293.528C248.492 293.688 248.817 293.768 249.191 293.768C249.756 293.768 250.199 293.592 250.519 293.24C250.839 292.877 250.999 292.381 250.999 291.752V287.4H252.439V291.816C252.439 292.477 252.3 293.059 252.023 293.56C251.745 294.061 251.361 294.456 250.871 294.744C250.391 295.021 249.831 295.16 249.191 295.16ZM256.785 295.16C256.358 295.16 255.953 295.107 255.569 295C255.195 294.883 254.849 294.723 254.529 294.52C254.209 294.307 253.931 294.056 253.697 293.768L254.625 292.84C254.902 293.181 255.222 293.437 255.585 293.608C255.947 293.768 256.353 293.848 256.801 293.848C257.249 293.848 257.595 293.773 257.841 293.624C258.086 293.464 258.209 293.245 258.209 292.968C258.209 292.691 258.107 292.477 257.905 292.328C257.713 292.168 257.462 292.04 257.153 291.944C256.843 291.837 256.513 291.736 256.161 291.64C255.819 291.533 255.494 291.4 255.185 291.24C254.875 291.08 254.619 290.861 254.417 290.584C254.225 290.307 254.129 289.939 254.129 289.48C254.129 289.021 254.241 288.627 254.465 288.296C254.689 287.955 254.998 287.693 255.393 287.512C255.798 287.331 256.283 287.24 256.849 287.24C257.446 287.24 257.974 287.347 258.433 287.56C258.902 287.763 259.286 288.072 259.585 288.488L258.657 289.416C258.443 289.139 258.177 288.925 257.857 288.776C257.547 288.627 257.195 288.552 256.801 288.552C256.385 288.552 256.065 288.627 255.841 288.776C255.627 288.915 255.521 289.112 255.521 289.368C255.521 289.624 255.617 289.821 255.809 289.96C256.001 290.099 256.251 290.216 256.561 290.312C256.881 290.408 257.211 290.509 257.553 290.616C257.894 290.712 258.219 290.845 258.529 291.016C258.838 291.187 259.089 291.416 259.281 291.704C259.483 291.992 259.585 292.371 259.585 292.84C259.585 293.555 259.329 294.12 258.817 294.536C258.315 294.952 257.638 295.16 256.785 295.16ZM267.133 295L263.645 287.4H265.245L268.045 293.816H267.117L269.933 287.4H271.469L267.981 295H267.133ZM275.935 295.16C275.178 295.16 274.495 294.989 273.887 294.648C273.279 294.296 272.799 293.821 272.447 293.224C272.095 292.627 271.919 291.949 271.919 291.192C271.919 290.445 272.09 289.773 272.431 289.176C272.783 288.579 273.253 288.109 273.839 287.768C274.437 287.416 275.103 287.24 275.839 287.24C276.543 287.24 277.162 287.4 277.695 287.72C278.239 288.04 278.661 288.483 278.959 289.048C279.269 289.613 279.423 290.253 279.423 290.968C279.423 291.075 279.418 291.192 279.407 291.32C279.397 291.437 279.375 291.576 279.343 291.736H272.927V290.536H278.575L278.047 291C278.047 290.488 277.957 290.056 277.775 289.704C277.594 289.341 277.338 289.064 277.007 288.872C276.677 288.669 276.277 288.568 275.807 288.568C275.317 288.568 274.885 288.675 274.511 288.888C274.138 289.101 273.85 289.4 273.647 289.784C273.445 290.168 273.343 290.621 273.343 291.144C273.343 291.677 273.45 292.147 273.663 292.552C273.877 292.947 274.181 293.256 274.575 293.48C274.97 293.693 275.423 293.8 275.935 293.8C276.362 293.8 276.751 293.725 277.103 293.576C277.466 293.427 277.775 293.203 278.031 292.904L278.959 293.848C278.597 294.275 278.149 294.6 277.615 294.824C277.093 295.048 276.533 295.16 275.935 295.16ZM280.993 295V283.576H282.434V295H280.993ZM291.213 295.16C290.338 295.16 289.591 295 288.973 294.68C288.354 294.36 287.805 293.896 287.325 293.288L288.349 292.264C288.701 292.755 289.106 293.128 289.565 293.384C290.023 293.629 290.589 293.752 291.261 293.752C291.922 293.752 292.45 293.608 292.845 293.32C293.25 293.032 293.453 292.637 293.453 292.136C293.453 291.72 293.357 291.384 293.165 291.128C292.973 290.872 292.711 290.664 292.381 290.504C292.061 290.333 291.709 290.184 291.325 290.056C290.941 289.917 290.557 289.773 290.173 289.624C289.789 289.464 289.437 289.272 289.117 289.048C288.797 288.813 288.535 288.509 288.333 288.136C288.141 287.763 288.045 287.293 288.045 286.728C288.045 286.099 288.194 285.565 288.493 285.128C288.802 284.68 289.218 284.339 289.741 284.104C290.274 283.859 290.871 283.736 291.533 283.736C292.258 283.736 292.909 283.88 293.485 284.168C294.061 284.445 294.53 284.813 294.892 285.272L293.869 286.296C293.538 285.912 293.181 285.624 292.797 285.432C292.423 285.24 291.991 285.144 291.501 285.144C290.903 285.144 290.429 285.277 290.077 285.544C289.725 285.8 289.549 286.163 289.549 286.632C289.549 287.005 289.645 287.309 289.837 287.544C290.039 287.768 290.301 287.96 290.621 288.12C290.941 288.28 291.293 288.429 291.677 288.568C292.071 288.696 292.461 288.84 292.845 289C293.229 289.16 293.581 289.363 293.901 289.608C294.221 289.853 294.477 290.173 294.669 290.568C294.871 290.952 294.973 291.437 294.973 292.024C294.973 293.005 294.631 293.773 293.949 294.328C293.277 294.883 292.365 295.16 291.213 295.16ZM300.154 295.16C299.397 295.16 298.714 294.989 298.106 294.648C297.498 294.296 297.018 293.821 296.666 293.224C296.314 292.627 296.138 291.949 296.138 291.192C296.138 290.445 296.309 289.773 296.65 289.176C297.002 288.579 297.471 288.109 298.058 287.768C298.655 287.416 299.322 287.24 300.058 287.24C300.762 287.24 301.381 287.4 301.914 287.72C302.458 288.04 302.879 288.483 303.178 289.048C303.487 289.613 303.642 290.253 303.642 290.968C303.642 291.075 303.637 291.192 303.626 291.32C303.615 291.437 303.594 291.576 303.562 291.736H297.146V290.536H302.794L302.266 291C302.266 290.488 302.175 290.056 301.994 289.704C301.813 289.341 301.557 289.064 301.226 288.872C300.895 288.669 300.495 288.568 300.026 288.568C299.535 288.568 299.103 288.675 298.73 288.888C298.357 289.101 298.069 289.4 297.866 289.784C297.663 290.168 297.562 290.621 297.562 291.144C297.562 291.677 297.669 292.147 297.882 292.552C298.095 292.947 298.399 293.256 298.794 293.48C299.189 293.693 299.642 293.8 300.154 293.8C300.581 293.8 300.97 293.725 301.322 293.576C301.685 293.427 301.994 293.203 302.25 292.904L303.178 293.848C302.815 294.275 302.367 294.6 301.834 294.824C301.311 295.048 300.751 295.16 300.154 295.16ZM308.428 295.16C307.724 295.16 307.095 294.989 306.54 294.648C305.986 294.296 305.543 293.821 305.212 293.224C304.892 292.627 304.732 291.955 304.732 291.208C304.732 290.461 304.892 289.789 305.212 289.192C305.543 288.595 305.986 288.12 306.54 287.768C307.095 287.416 307.724 287.24 308.428 287.24C308.994 287.24 309.506 287.363 309.964 287.608C310.423 287.843 310.791 288.173 311.068 288.6C311.356 289.016 311.516 289.501 311.548 290.056V292.344C311.516 292.888 311.362 293.373 311.084 293.8C310.807 294.227 310.439 294.563 309.98 294.808C309.522 295.043 309.004 295.16 308.428 295.16ZM308.668 293.8C309.148 293.8 309.564 293.688 309.916 293.464C310.279 293.24 310.562 292.936 310.764 292.552C310.967 292.157 311.068 291.709 311.068 291.208C311.068 290.685 310.962 290.232 310.748 289.848C310.546 289.464 310.263 289.16 309.9 288.936C309.548 288.712 309.132 288.6 308.652 288.6C308.172 288.6 307.751 288.712 307.388 288.936C307.026 289.16 306.738 289.469 306.524 289.864C306.322 290.248 306.22 290.691 306.22 291.192C306.22 291.704 306.322 292.157 306.524 292.552C306.738 292.936 307.026 293.24 307.388 293.464C307.762 293.688 308.188 293.8 308.668 293.8ZM312.428 295H310.972V292.952L311.244 291.096L310.972 289.256V283.576H312.428V295ZM322.269 295.16C321.448 295.16 320.712 294.979 320.061 294.616C319.421 294.243 318.914 293.736 318.541 293.096C318.168 292.445 317.981 291.709 317.981 290.888V283.896H319.485V290.856C319.485 291.443 319.608 291.949 319.853 292.376C320.098 292.803 320.429 293.133 320.845 293.368C321.272 293.603 321.746 293.72 322.269 293.72C322.813 293.72 323.288 293.603 323.693 293.368C324.109 293.133 324.434 292.803 324.669 292.376C324.914 291.949 325.037 291.448 325.037 290.872V283.896H326.557V290.904C326.557 291.725 326.37 292.456 325.997 293.096C325.624 293.736 325.117 294.243 324.477 294.616C323.837 294.979 323.101 295.16 322.269 295.16ZM329.943 295V284.216H331.383V295H329.943ZM328.071 288.712V287.4H333.255V288.712H328.071ZM341.514 295.16C340.756 295.16 340.074 294.989 339.466 294.648C338.858 294.296 338.378 293.821 338.026 293.224C337.674 292.627 337.498 291.949 337.498 291.192C337.498 290.445 337.668 289.773 338.01 289.176C338.362 288.579 338.831 288.109 339.418 287.768C340.015 287.416 340.682 287.24 341.418 287.24C342.122 287.24 342.74 287.4 343.274 287.72C343.818 288.04 344.239 288.483 344.538 289.048C344.847 289.613 345.002 290.253 345.002 290.968C345.002 291.075 344.996 291.192 344.986 291.32C344.975 291.437 344.954 291.576 344.922 291.736H338.506V290.536H344.154L343.626 291C343.626 290.488 343.535 290.056 343.354 289.704C343.172 289.341 342.916 289.064 342.586 288.872C342.255 288.669 341.855 288.568 341.386 288.568C340.895 288.568 340.463 288.675 340.09 288.888C339.716 289.101 339.428 289.4 339.226 289.784C339.023 290.168 338.922 290.621 338.922 291.144C338.922 291.677 339.028 292.147 339.242 292.552C339.455 292.947 339.759 293.256 340.154 293.48C340.548 293.693 341.002 293.8 341.514 293.8C341.94 293.8 342.33 293.725 342.682 293.576C343.044 293.427 343.354 293.203 343.61 292.904L344.538 293.848C344.175 294.275 343.727 294.6 343.194 294.824C342.671 295.048 342.111 295.16 341.514 295.16ZM351.329 295L348.961 291.672L348.689 291.416L345.697 287.4H347.441L349.601 290.36L349.873 290.584L353.073 295H351.329ZM345.553 295L348.689 290.776L349.505 291.832L347.249 295H345.553ZM349.985 291.4L349.153 290.376L351.249 287.4H352.929L349.985 291.4ZM363.024 295.16C362.224 295.16 361.483 295.016 360.8 294.728C360.117 294.429 359.52 294.019 359.008 293.496C358.507 292.973 358.117 292.365 357.84 291.672C357.563 290.979 357.424 290.237 357.424 289.448C357.424 288.648 357.563 287.901 357.84 287.208C358.117 286.515 358.507 285.912 359.008 285.4C359.52 284.877 360.112 284.472 360.784 284.184C361.467 283.885 362.208 283.736 363.008 283.736C363.883 283.736 364.651 283.885 365.312 284.184C365.973 284.483 366.56 284.888 367.072 285.4L366.032 286.44C365.68 286.045 365.248 285.736 364.736 285.512C364.235 285.288 363.659 285.176 363.008 285.176C362.421 285.176 361.883 285.283 361.392 285.496C360.901 285.699 360.475 285.992 360.112 286.376C359.749 286.76 359.467 287.213 359.264 287.736C359.072 288.259 358.976 288.829 358.976 289.448C358.976 290.067 359.072 290.637 359.264 291.16C359.467 291.683 359.749 292.136 360.112 292.52C360.475 292.904 360.901 293.203 361.392 293.416C361.883 293.619 362.421 293.72 363.008 293.72C363.701 293.72 364.304 293.608 364.816 293.384C365.328 293.149 365.76 292.835 366.112 292.44L367.152 293.464C366.64 293.997 366.037 294.413 365.344 294.712C364.661 295.011 363.888 295.16 363.024 295.16ZM368.743 295V287.4H370.184V295H368.743ZM370.184 290.664L369.64 290.424C369.64 289.453 369.864 288.68 370.312 288.104C370.76 287.528 371.405 287.24 372.248 287.24C372.632 287.24 372.978 287.309 373.288 287.448C373.597 287.576 373.885 287.795 374.152 288.104L373.208 289.08C373.048 288.909 372.872 288.787 372.68 288.712C372.488 288.637 372.264 288.6 372.008 288.6C371.474 288.6 371.037 288.771 370.696 289.112C370.354 289.453 370.184 289.971 370.184 290.664ZM378.147 295.16C377.454 295.16 376.825 294.989 376.259 294.648C375.694 294.296 375.246 293.821 374.915 293.224C374.595 292.627 374.435 291.955 374.435 291.208C374.435 290.461 374.595 289.789 374.915 289.192C375.246 288.595 375.689 288.12 376.243 287.768C376.809 287.416 377.443 287.24 378.147 287.24C378.723 287.24 379.235 287.363 379.683 287.608C380.142 287.843 380.51 288.173 380.787 288.6C381.065 289.016 381.219 289.501 381.251 290.056V292.344C381.219 292.888 381.065 293.373 380.787 293.8C380.521 294.227 380.158 294.563 379.699 294.808C379.251 295.043 378.734 295.16 378.147 295.16ZM378.387 293.8C379.102 293.8 379.678 293.56 380.115 293.08C380.553 292.589 380.771 291.965 380.771 291.208C380.771 290.685 380.67 290.232 380.467 289.848C380.275 289.453 379.998 289.149 379.635 288.936C379.273 288.712 378.851 288.6 378.371 288.6C377.891 288.6 377.465 288.712 377.091 288.936C376.729 289.16 376.441 289.469 376.227 289.864C376.025 290.248 375.923 290.691 375.923 291.192C375.923 291.704 376.025 292.157 376.227 292.552C376.441 292.936 376.734 293.24 377.107 293.464C377.481 293.688 377.907 293.8 378.387 293.8ZM380.675 295V292.952L380.947 291.096L380.675 289.256V287.4H382.131V295H380.675ZM386.644 295.16C386.217 295.16 385.812 295.107 385.428 295C385.055 294.883 384.708 294.723 384.388 294.52C384.068 294.307 383.791 294.056 383.556 293.768L384.484 292.84C384.761 293.181 385.081 293.437 385.444 293.608C385.807 293.768 386.212 293.848 386.66 293.848C387.108 293.848 387.455 293.773 387.7 293.624C387.945 293.464 388.068 293.245 388.068 292.968C388.068 292.691 387.967 292.477 387.764 292.328C387.572 292.168 387.321 292.04 387.012 291.944C386.703 291.837 386.372 291.736 386.02 291.64C385.679 291.533 385.353 291.4 385.044 291.24C384.735 291.08 384.479 290.861 384.276 290.584C384.084 290.307 383.988 289.939 383.988 289.48C383.988 289.021 384.1 288.627 384.324 288.296C384.548 287.955 384.857 287.693 385.252 287.512C385.657 287.331 386.143 287.24 386.708 287.24C387.305 287.24 387.833 287.347 388.292 287.56C388.761 287.763 389.145 288.072 389.444 288.488L388.516 289.416C388.303 289.139 388.036 288.925 387.716 288.776C387.407 288.627 387.055 288.552 386.66 288.552C386.244 288.552 385.924 288.627 385.7 288.776C385.487 288.915 385.38 289.112 385.38 289.368C385.38 289.624 385.476 289.821 385.668 289.96C385.86 290.099 386.111 290.216 386.42 290.312C386.74 290.408 387.071 290.509 387.412 290.616C387.753 290.712 388.079 290.845 388.388 291.016C388.697 291.187 388.948 291.416 389.14 291.704C389.343 291.992 389.444 292.371 389.444 292.84C389.444 293.555 389.188 294.12 388.676 294.536C388.175 294.952 387.497 295.16 386.644 295.16ZM159.195 314.68V313.368H162.219C162.635 313.368 163.003 313.283 163.323 313.112C163.654 312.941 163.91 312.701 164.091 312.392C164.283 312.083 164.379 311.715 164.379 311.288C164.379 310.861 164.283 310.493 164.091 310.184C163.91 309.875 163.654 309.635 163.323 309.464C163.003 309.293 162.635 309.208 162.219 309.208H159.195V307.896H162.315C162.998 307.896 163.606 308.035 164.139 308.312C164.683 308.589 165.11 308.984 165.419 309.496C165.739 309.997 165.899 310.595 165.899 311.288C165.899 311.971 165.739 312.568 165.419 313.08C165.11 313.581 164.683 313.976 164.139 314.264C163.606 314.541 162.998 314.68 162.315 314.68H159.195ZM158.187 319V307.896H159.691V319H158.187ZM167.634 319V311.4H169.074V319H167.634ZM169.074 314.664L168.53 314.424C168.53 313.453 168.754 312.68 169.202 312.104C169.65 311.528 170.295 311.24 171.138 311.24C171.522 311.24 171.869 311.309 172.178 311.448C172.487 311.576 172.775 311.795 173.042 312.104L172.098 313.08C171.938 312.909 171.762 312.787 171.57 312.712C171.378 312.637 171.154 312.6 170.898 312.6C170.365 312.6 169.927 312.771 169.586 313.112C169.245 313.453 169.074 313.971 169.074 314.664ZM177.038 319.16C176.345 319.16 175.715 318.989 175.15 318.648C174.585 318.296 174.137 317.821 173.806 317.224C173.486 316.627 173.326 315.955 173.326 315.208C173.326 314.461 173.486 313.789 173.806 313.192C174.137 312.595 174.579 312.12 175.134 311.768C175.699 311.416 176.334 311.24 177.038 311.24C177.614 311.24 178.126 311.363 178.574 311.608C179.033 311.843 179.401 312.173 179.678 312.6C179.955 313.016 180.11 313.501 180.142 314.056V316.344C180.11 316.888 179.955 317.373 179.678 317.8C179.411 318.227 179.049 318.563 178.59 318.808C178.142 319.043 177.625 319.16 177.038 319.16ZM177.278 317.8C177.993 317.8 178.569 317.56 179.006 317.08C179.443 316.589 179.662 315.965 179.662 315.208C179.662 314.685 179.561 314.232 179.358 313.848C179.166 313.453 178.889 313.149 178.526 312.936C178.163 312.712 177.742 312.6 177.262 312.6C176.782 312.6 176.355 312.712 175.982 312.936C175.619 313.16 175.331 313.469 175.118 313.864C174.915 314.248 174.814 314.691 174.814 315.192C174.814 315.704 174.915 316.157 175.118 316.552C175.331 316.936 175.625 317.24 175.998 317.464C176.371 317.688 176.798 317.8 177.278 317.8ZM179.566 319V316.952L179.838 315.096L179.566 313.256V311.4H181.022V319H179.566ZM186.639 319.16C185.881 319.16 185.199 318.989 184.591 318.648C183.983 318.296 183.503 317.821 183.151 317.224C182.799 316.627 182.623 315.949 182.623 315.192C182.623 314.445 182.793 313.773 183.135 313.176C183.487 312.579 183.956 312.109 184.543 311.768C185.14 311.416 185.807 311.24 186.543 311.24C187.247 311.24 187.865 311.4 188.399 311.72C188.943 312.04 189.364 312.483 189.663 313.048C189.972 313.613 190.127 314.253 190.127 314.968C190.127 315.075 190.121 315.192 190.111 315.32C190.1 315.437 190.079 315.576 190.047 315.736H183.631V314.536H189.279L188.751 315C188.751 314.488 188.66 314.056 188.479 313.704C188.297 313.341 188.041 313.064 187.711 312.872C187.38 312.669 186.98 312.568 186.511 312.568C186.02 312.568 185.588 312.675 185.215 312.888C184.841 313.101 184.553 313.4 184.351 313.784C184.148 314.168 184.047 314.621 184.047 315.144C184.047 315.677 184.153 316.147 184.367 316.552C184.58 316.947 184.884 317.256 185.279 317.48C185.673 317.693 186.127 317.8 186.639 317.8C187.065 317.8 187.455 317.725 187.807 317.576C188.169 317.427 188.479 317.203 188.735 316.904L189.663 317.848C189.3 318.275 188.852 318.6 188.319 318.824C187.796 319.048 187.236 319.16 186.639 319.16ZM194.113 319.16C193.686 319.16 193.281 319.107 192.897 319C192.523 318.883 192.177 318.723 191.857 318.52C191.537 318.307 191.259 318.056 191.025 317.768L191.953 316.84C192.23 317.181 192.55 317.437 192.913 317.608C193.275 317.768 193.681 317.848 194.129 317.848C194.577 317.848 194.923 317.773 195.169 317.624C195.414 317.464 195.537 317.245 195.537 316.968C195.537 316.691 195.435 316.477 195.233 316.328C195.041 316.168 194.79 316.04 194.481 315.944C194.171 315.837 193.841 315.736 193.489 315.64C193.147 315.533 192.822 315.4 192.513 315.24C192.203 315.08 191.947 314.861 191.745 314.584C191.553 314.307 191.457 313.939 191.457 313.48C191.457 313.021 191.569 312.627 191.793 312.296C192.017 311.955 192.326 311.693 192.721 311.512C193.126 311.331 193.611 311.24 194.177 311.24C194.774 311.24 195.302 311.347 195.761 311.56C196.23 311.763 196.614 312.072 196.913 312.488L195.985 313.416C195.771 313.139 195.505 312.925 195.185 312.776C194.875 312.627 194.523 312.552 194.129 312.552C193.713 312.552 193.393 312.627 193.169 312.776C192.955 312.915 192.849 313.112 192.849 313.368C192.849 313.624 192.945 313.821 193.137 313.96C193.329 314.099 193.579 314.216 193.889 314.312C194.209 314.408 194.539 314.509 194.881 314.616C195.222 314.712 195.547 314.845 195.857 315.016C196.166 315.187 196.417 315.416 196.609 315.704C196.811 315.992 196.913 316.371 196.913 316.84C196.913 317.555 196.657 318.12 196.145 318.536C195.643 318.952 194.966 319.16 194.113 319.16ZM202.045 319.16C201.287 319.16 200.605 318.989 199.997 318.648C199.389 318.296 198.909 317.821 198.557 317.224C198.205 316.627 198.029 315.949 198.029 315.192C198.029 314.445 198.199 313.773 198.541 313.176C198.893 312.579 199.362 312.109 199.949 311.768C200.546 311.416 201.213 311.24 201.949 311.24C202.653 311.24 203.271 311.4 203.805 311.72C204.349 312.04 204.77 312.483 205.069 313.048C205.378 313.613 205.533 314.253 205.533 314.968C205.533 315.075 205.527 315.192 205.517 315.32C205.506 315.437 205.485 315.576 205.453 315.736H199.037V314.536H204.685L204.157 315C204.157 314.488 204.066 314.056 203.885 313.704C203.703 313.341 203.447 313.064 203.117 312.872C202.786 312.669 202.386 312.568 201.917 312.568C201.426 312.568 200.994 312.675 200.621 312.888C200.247 313.101 199.959 313.4 199.757 313.784C199.554 314.168 199.453 314.621 199.453 315.144C199.453 315.677 199.559 316.147 199.773 316.552C199.986 316.947 200.29 317.256 200.685 317.48C201.079 317.693 201.533 317.8 202.045 317.8C202.471 317.8 202.861 317.725 203.213 317.576C203.575 317.427 203.885 317.203 204.141 316.904L205.069 317.848C204.706 318.275 204.258 318.6 203.725 318.824C203.202 319.048 202.642 319.16 202.045 319.16ZM212.479 319V314.568C212.479 313.992 212.298 313.517 211.935 313.144C211.572 312.771 211.103 312.584 210.527 312.584C210.143 312.584 209.802 312.669 209.503 312.84C209.204 313.011 208.97 313.245 208.799 313.544C208.628 313.843 208.543 314.184 208.543 314.568L207.951 314.232C207.951 313.656 208.079 313.144 208.335 312.696C208.591 312.248 208.948 311.896 209.407 311.64C209.866 311.373 210.383 311.24 210.959 311.24C211.535 311.24 212.042 311.384 212.479 311.672C212.927 311.96 213.279 312.339 213.535 312.808C213.791 313.267 213.919 313.757 213.919 314.28V319H212.479ZM207.103 319V311.4H208.543V319H207.103ZM216.943 319V308.216H218.383V319H216.943ZM215.071 312.712V311.4H220.255V312.712H215.071ZM226.258 314.68V313.368H229.282C229.698 313.368 230.066 313.283 230.386 313.112C230.716 312.941 230.972 312.701 231.154 312.392C231.346 312.083 231.442 311.715 231.442 311.288C231.442 310.861 231.346 310.493 231.154 310.184C230.972 309.875 230.716 309.635 230.386 309.464C230.066 309.293 229.698 309.208 229.282 309.208H226.258V307.896H229.378C230.06 307.896 230.668 308.035 231.202 308.312C231.746 308.589 232.172 308.984 232.482 309.496C232.802 309.997 232.962 310.595 232.962 311.288C232.962 311.971 232.802 312.568 232.482 313.08C232.172 313.581 231.746 313.976 231.202 314.264C230.668 314.541 230.06 314.68 229.378 314.68H226.258ZM225.25 319V307.896H226.754V319H225.25ZM234.697 319V311.4H236.137V319H234.697ZM236.137 314.664L235.593 314.424C235.593 313.453 235.817 312.68 236.265 312.104C236.713 311.528 237.358 311.24 238.201 311.24C238.585 311.24 238.931 311.309 239.241 311.448C239.55 311.576 239.838 311.795 240.105 312.104L239.161 313.08C239.001 312.909 238.825 312.787 238.633 312.712C238.441 312.637 238.217 312.6 237.961 312.6C237.427 312.6 236.99 312.771 236.649 313.112C236.307 313.453 236.137 313.971 236.137 314.664ZM244.101 319.16C243.407 319.16 242.778 318.989 242.213 318.648C241.647 318.296 241.199 317.821 240.868 317.224C240.549 316.627 240.389 315.955 240.389 315.208C240.389 314.461 240.549 313.789 240.868 313.192C241.199 312.595 241.642 312.12 242.197 311.768C242.762 311.416 243.397 311.24 244.101 311.24C244.677 311.24 245.189 311.363 245.637 311.608C246.095 311.843 246.463 312.173 246.741 312.6C247.018 313.016 247.173 313.501 247.205 314.056V316.344C247.173 316.888 247.018 317.373 246.741 317.8C246.474 318.227 246.111 318.563 245.653 318.808C245.205 319.043 244.687 319.16 244.101 319.16ZM244.341 317.8C245.055 317.8 245.631 317.56 246.069 317.08C246.506 316.589 246.725 315.965 246.725 315.208C246.725 314.685 246.623 314.232 246.421 313.848C246.229 313.453 245.951 313.149 245.589 312.936C245.226 312.712 244.805 312.6 244.325 312.6C243.845 312.6 243.418 312.712 243.045 312.936C242.682 313.16 242.394 313.469 242.181 313.864C241.978 314.248 241.877 314.691 241.877 315.192C241.877 315.704 241.978 316.157 242.181 316.552C242.394 316.936 242.687 317.24 243.061 317.464C243.434 317.688 243.861 317.8 244.341 317.8ZM246.629 319V316.952L246.901 315.096L246.629 313.256V311.4H248.085V319H246.629ZM253.701 319.16C252.944 319.16 252.261 318.989 251.653 318.648C251.045 318.296 250.565 317.821 250.213 317.224C249.861 316.627 249.685 315.949 249.685 315.192C249.685 314.445 249.856 313.773 250.197 313.176C250.549 312.579 251.018 312.109 251.605 311.768C252.202 311.416 252.869 311.24 253.605 311.24C254.309 311.24 254.928 311.4 255.461 311.72C256.005 312.04 256.426 312.483 256.725 313.048C257.034 313.613 257.189 314.253 257.189 314.968C257.189 315.075 257.184 315.192 257.173 315.32C257.162 315.437 257.141 315.576 257.109 315.736H250.693V314.536H256.341L255.813 315C255.813 314.488 255.722 314.056 255.541 313.704C255.36 313.341 255.104 313.064 254.773 312.872C254.442 312.669 254.042 312.568 253.573 312.568C253.082 312.568 252.65 312.675 252.277 312.888C251.904 313.101 251.616 313.4 251.413 313.784C251.21 314.168 251.109 314.621 251.109 315.144C251.109 315.677 251.216 316.147 251.429 316.552C251.642 316.947 251.946 317.256 252.341 317.48C252.736 317.693 253.189 317.8 253.701 317.8C254.128 317.8 254.517 317.725 254.869 317.576C255.232 317.427 255.541 317.203 255.797 316.904L256.725 317.848C256.362 318.275 255.914 318.6 255.381 318.824C254.858 319.048 254.298 319.16 253.701 319.16ZM261.175 319.16C260.748 319.16 260.343 319.107 259.959 319C259.586 318.883 259.239 318.723 258.919 318.52C258.599 318.307 258.322 318.056 258.087 317.768L259.015 316.84C259.292 317.181 259.612 317.437 259.975 317.608C260.338 317.768 260.743 317.848 261.191 317.848C261.639 317.848 261.986 317.773 262.231 317.624C262.476 317.464 262.599 317.245 262.599 316.968C262.599 316.691 262.498 316.477 262.295 316.328C262.103 316.168 261.852 316.04 261.543 315.944C261.234 315.837 260.903 315.736 260.551 315.64C260.21 315.533 259.884 315.4 259.575 315.24C259.266 315.08 259.01 314.861 258.807 314.584C258.615 314.307 258.519 313.939 258.519 313.48C258.519 313.021 258.631 312.627 258.855 312.296C259.079 311.955 259.388 311.693 259.783 311.512C260.188 311.331 260.674 311.24 261.239 311.24C261.836 311.24 262.364 311.347 262.823 311.56C263.292 311.763 263.676 312.072 263.975 312.488L263.047 313.416C262.834 313.139 262.567 312.925 262.247 312.776C261.938 312.627 261.586 312.552 261.191 312.552C260.775 312.552 260.455 312.627 260.231 312.776C260.018 312.915 259.911 313.112 259.911 313.368C259.911 313.624 260.007 313.821 260.199 313.96C260.391 314.099 260.642 314.216 260.951 314.312C261.271 314.408 261.602 314.509 261.943 314.616C262.284 314.712 262.61 314.845 262.919 315.016C263.228 315.187 263.479 315.416 263.671 315.704C263.874 315.992 263.975 316.371 263.975 316.84C263.975 317.555 263.719 318.12 263.207 318.536C262.706 318.952 262.028 319.16 261.175 319.16ZM269.107 319.16C268.35 319.16 267.667 318.989 267.059 318.648C266.451 318.296 265.971 317.821 265.619 317.224C265.267 316.627 265.091 315.949 265.091 315.192C265.091 314.445 265.262 313.773 265.603 313.176C265.955 312.579 266.425 312.109 267.011 311.768C267.609 311.416 268.275 311.24 269.011 311.24C269.715 311.24 270.334 311.4 270.867 311.72C271.411 312.04 271.833 312.483 272.131 313.048C272.441 313.613 272.595 314.253 272.595 314.968C272.595 315.075 272.59 315.192 272.579 315.32C272.569 315.437 272.547 315.576 272.515 315.736H266.099V314.536H271.747L271.219 315C271.219 314.488 271.129 314.056 270.947 313.704C270.766 313.341 270.51 313.064 270.179 312.872C269.849 312.669 269.449 312.568 268.979 312.568C268.489 312.568 268.057 312.675 267.683 312.888C267.31 313.101 267.022 313.4 266.819 313.784C266.617 314.168 266.515 314.621 266.515 315.144C266.515 315.677 266.622 316.147 266.835 316.552C267.049 316.947 267.353 317.256 267.747 317.48C268.142 317.693 268.595 317.8 269.107 317.8C269.534 317.8 269.923 317.725 270.275 317.576C270.638 317.427 270.947 317.203 271.203 316.904L272.131 317.848C271.769 318.275 271.321 318.6 270.787 318.824C270.265 319.048 269.705 319.16 269.107 319.16ZM279.541 319V314.568C279.541 313.992 279.36 313.517 278.997 313.144C278.635 312.771 278.165 312.584 277.589 312.584C277.205 312.584 276.864 312.669 276.565 312.84C276.267 313.011 276.032 313.245 275.861 313.544C275.691 313.843 275.605 314.184 275.605 314.568L275.013 314.232C275.013 313.656 275.141 313.144 275.397 312.696C275.653 312.248 276.011 311.896 276.469 311.64C276.928 311.373 277.445 311.24 278.021 311.24C278.597 311.24 279.104 311.384 279.541 311.672C279.989 311.96 280.341 312.339 280.597 312.808C280.853 313.267 280.981 313.757 280.981 314.28V319H279.541ZM274.165 319V311.4H275.605V319H274.165ZM284.005 319V308.216H285.445V319H284.005ZM282.133 312.712V311.4H287.317V312.712H282.133ZM295.272 319.16C294.568 319.16 293.939 318.989 293.384 318.648C292.829 318.296 292.387 317.821 292.056 317.224C291.736 316.627 291.576 315.955 291.576 315.208C291.576 314.461 291.736 313.789 292.056 313.192C292.387 312.595 292.829 312.12 293.384 311.768C293.939 311.416 294.568 311.24 295.272 311.24C295.837 311.24 296.349 311.363 296.808 311.608C297.267 311.843 297.635 312.173 297.912 312.6C298.2 313.016 298.36 313.501 298.392 314.056V316.344C298.36 316.888 298.205 317.373 297.928 317.8C297.651 318.227 297.283 318.563 296.824 318.808C296.365 319.043 295.848 319.16 295.272 319.16ZM295.512 317.8C295.992 317.8 296.408 317.688 296.76 317.464C297.123 317.24 297.405 316.936 297.608 316.552C297.811 316.157 297.912 315.709 297.912 315.208C297.912 314.685 297.805 314.232 297.592 313.848C297.389 313.464 297.107 313.16 296.744 312.936C296.392 312.712 295.976 312.6 295.496 312.6C295.016 312.6 294.595 312.712 294.232 312.936C293.869 313.16 293.581 313.469 293.368 313.864C293.165 314.248 293.064 314.691 293.064 315.192C293.064 315.704 293.165 316.157 293.368 316.552C293.581 316.936 293.869 317.24 294.232 317.464C294.605 317.688 295.032 317.8 295.512 317.8ZM299.272 319H297.816V316.952L298.088 315.096L297.816 313.256V307.576H299.272V319ZM301.385 319V311.4H302.825V319H301.385ZM302.105 309.88C301.838 309.88 301.619 309.795 301.449 309.624C301.278 309.443 301.193 309.219 301.193 308.952C301.193 308.696 301.278 308.483 301.449 308.312C301.619 308.131 301.838 308.04 302.105 308.04C302.371 308.04 302.59 308.131 302.761 308.312C302.931 308.483 303.017 308.696 303.017 308.952C303.017 309.219 302.931 309.443 302.761 309.624C302.59 309.795 302.371 309.88 302.105 309.88ZM308.179 319.16C307.485 319.16 306.856 318.989 306.291 318.648C305.725 318.296 305.277 317.821 304.947 317.224C304.627 316.627 304.467 315.955 304.467 315.208C304.467 314.461 304.627 313.789 304.947 313.192C305.277 312.595 305.72 312.12 306.275 311.768C306.84 311.416 307.475 311.24 308.179 311.24C308.755 311.24 309.267 311.363 309.715 311.608C310.173 311.843 310.541 312.173 310.819 312.6C311.096 313.016 311.251 313.501 311.283 314.056V316.344C311.251 316.888 311.096 317.373 310.819 317.8C310.552 318.227 310.189 318.563 309.731 318.808C309.283 319.043 308.765 319.16 308.179 319.16ZM308.419 317.8C309.133 317.8 309.709 317.56 310.147 317.08C310.584 316.589 310.803 315.965 310.803 315.208C310.803 314.685 310.701 314.232 310.499 313.848C310.307 313.453 310.029 313.149 309.667 312.936C309.304 312.712 308.883 312.6 308.403 312.6C307.923 312.6 307.496 312.712 307.123 312.936C306.76 313.16 306.472 313.469 306.259 313.864C306.056 314.248 305.955 314.691 305.955 315.192C305.955 315.704 306.056 316.157 306.259 316.552C306.472 316.936 306.765 317.24 307.139 317.464C307.512 317.688 307.939 317.8 308.419 317.8ZM310.707 319V316.952L310.979 315.096L310.707 313.256V311.4H312.163V319H310.707ZM314.259 319V311.4H315.699V319H314.259ZM319.395 319V314.408C319.395 313.843 319.219 313.4 318.867 313.08C318.526 312.749 318.094 312.584 317.571 312.584C317.219 312.584 316.904 312.659 316.627 312.808C316.35 312.957 316.126 313.165 315.955 313.432C315.784 313.699 315.699 314.019 315.699 314.392L315.107 314.104C315.107 313.528 315.23 313.027 315.475 312.6C315.731 312.173 316.078 311.843 316.515 311.608C316.952 311.363 317.443 311.24 317.987 311.24C318.52 311.24 319 311.357 319.427 311.592C319.864 311.827 320.206 312.157 320.451 312.584C320.707 313.011 320.835 313.517 320.835 314.104V319H319.395ZM324.531 319V314.408C324.531 313.843 324.355 313.4 324.003 313.08C323.662 312.749 323.235 312.584 322.723 312.584C322.371 312.584 322.051 312.659 321.763 312.808C321.486 312.957 321.262 313.165 321.091 313.432C320.92 313.699 320.835 314.019 320.835 314.392L320.019 314.104C320.051 313.517 320.206 313.016 320.483 312.6C320.771 312.173 321.139 311.843 321.587 311.608C322.035 311.363 322.526 311.24 323.059 311.24C323.614 311.24 324.11 311.357 324.547 311.592C324.984 311.827 325.331 312.157 325.587 312.584C325.854 313.011 325.987 313.523 325.987 314.12V319H324.531ZM335.275 319.16C334.699 319.16 334.176 319.043 333.707 318.808C333.248 318.563 332.88 318.227 332.603 317.8C332.325 317.373 332.171 316.888 332.139 316.344V314.056C332.171 313.501 332.325 313.016 332.603 312.6C332.891 312.173 333.264 311.843 333.723 311.608C334.192 311.363 334.709 311.24 335.275 311.24C335.968 311.24 336.592 311.416 337.147 311.768C337.712 312.12 338.155 312.595 338.475 313.192C338.795 313.789 338.955 314.461 338.955 315.208C338.955 315.955 338.795 316.627 338.475 317.224C338.155 317.821 337.712 318.296 337.147 318.648C336.592 318.989 335.968 319.16 335.275 319.16ZM335.035 317.8C335.515 317.8 335.936 317.688 336.299 317.464C336.661 317.24 336.949 316.936 337.163 316.552C337.376 316.157 337.483 315.704 337.483 315.192C337.483 314.691 337.376 314.243 337.163 313.848C336.949 313.453 336.661 313.149 336.299 312.936C335.936 312.712 335.52 312.6 335.051 312.6C334.571 312.6 334.149 312.712 333.787 312.936C333.424 313.149 333.141 313.453 332.939 313.848C332.736 314.243 332.635 314.696 332.635 315.208C332.635 315.709 332.731 316.157 332.923 316.552C333.125 316.936 333.408 317.24 333.771 317.464C334.144 317.688 334.565 317.8 335.035 317.8ZM331.275 322.184V311.4H332.715V313.4L332.443 315.24L332.715 317.096V322.184H331.275ZM340.587 319V307.576H342.027V319H340.587ZM347.366 319.16C346.673 319.16 346.043 318.989 345.478 318.648C344.913 318.296 344.465 317.821 344.134 317.224C343.814 316.627 343.654 315.955 343.654 315.208C343.654 314.461 343.814 313.789 344.134 313.192C344.465 312.595 344.907 312.12 345.462 311.768C346.027 311.416 346.662 311.24 347.366 311.24C347.942 311.24 348.454 311.363 348.902 311.608C349.361 311.843 349.729 312.173 350.006 312.6C350.283 313.016 350.438 313.501 350.47 314.056V316.344C350.438 316.888 350.283 317.373 350.006 317.8C349.739 318.227 349.377 318.563 348.918 318.808C348.47 319.043 347.953 319.16 347.366 319.16ZM347.606 317.8C348.321 317.8 348.897 317.56 349.334 317.08C349.771 316.589 349.99 315.965 349.99 315.208C349.99 314.685 349.889 314.232 349.686 313.848C349.494 313.453 349.217 313.149 348.854 312.936C348.491 312.712 348.07 312.6 347.59 312.6C347.11 312.6 346.683 312.712 346.31 312.936C345.947 313.16 345.659 313.469 345.446 313.864C345.243 314.248 345.142 314.691 345.142 315.192C345.142 315.704 345.243 316.157 345.446 316.552C345.659 316.936 345.953 317.24 346.326 317.464C346.699 317.688 347.126 317.8 347.606 317.8ZM349.894 319V316.952L350.166 315.096L349.894 313.256V311.4H351.35V319H349.894ZM356.919 319.16C356.172 319.16 355.495 318.984 354.887 318.632C354.289 318.28 353.815 317.805 353.463 317.208C353.121 316.6 352.951 315.928 352.951 315.192C352.951 314.445 353.121 313.773 353.463 313.176C353.815 312.579 354.289 312.109 354.887 311.768C355.495 311.416 356.172 311.24 356.919 311.24C357.505 311.24 358.049 311.352 358.551 311.576C359.052 311.789 359.484 312.104 359.847 312.52L358.887 313.48C358.652 313.203 358.364 312.995 358.023 312.856C357.692 312.707 357.324 312.632 356.919 312.632C356.439 312.632 356.012 312.744 355.639 312.968C355.265 313.181 354.972 313.48 354.759 313.864C354.545 314.248 354.439 314.691 354.439 315.192C354.439 315.693 354.545 316.136 354.759 316.52C354.972 316.904 355.265 317.208 355.639 317.432C356.012 317.656 356.439 317.768 356.919 317.768C357.324 317.768 357.692 317.699 358.023 317.56C358.364 317.411 358.657 317.197 358.903 316.92L359.847 317.88C359.495 318.285 359.063 318.6 358.551 318.824C358.049 319.048 357.505 319.16 356.919 319.16ZM364.654 319.16C363.897 319.16 363.214 318.989 362.606 318.648C361.998 318.296 361.518 317.821 361.166 317.224C360.814 316.627 360.638 315.949 360.638 315.192C360.638 314.445 360.809 313.773 361.15 313.176C361.502 312.579 361.971 312.109 362.558 311.768C363.155 311.416 363.822 311.24 364.558 311.24C365.262 311.24 365.881 311.4 366.414 311.72C366.958 312.04 367.379 312.483 367.678 313.048C367.987 313.613 368.142 314.253 368.142 314.968C368.142 315.075 368.137 315.192 368.126 315.32C368.115 315.437 368.094 315.576 368.062 315.736H361.646V314.536H367.294L366.766 315C366.766 314.488 366.675 314.056 366.494 313.704C366.313 313.341 366.057 313.064 365.726 312.872C365.395 312.669 364.995 312.568 364.526 312.568C364.035 312.568 363.603 312.675 363.23 312.888C362.857 313.101 362.569 313.4 362.366 313.784C362.163 314.168 362.062 314.621 362.062 315.144C362.062 315.677 362.169 316.147 362.382 316.552C362.595 316.947 362.899 317.256 363.294 317.48C363.689 317.693 364.142 317.8 364.654 317.8C365.081 317.8 365.47 317.725 365.822 317.576C366.185 317.427 366.494 317.203 366.75 316.904L367.678 317.848C367.315 318.275 366.867 318.6 366.334 318.824C365.811 319.048 365.251 319.16 364.654 319.16ZM369.712 319V311.4H371.152V319H369.712ZM371.152 314.664L370.608 314.424C370.608 313.453 370.832 312.68 371.28 312.104C371.728 311.528 372.374 311.24 373.216 311.24C373.6 311.24 373.947 311.309 374.256 311.448C374.566 311.576 374.854 311.795 375.12 312.104L374.176 313.08C374.016 312.909 373.84 312.787 373.648 312.712C373.456 312.637 373.232 312.6 372.976 312.6C372.443 312.6 372.006 312.771 371.664 313.112C371.323 313.453 371.152 313.971 371.152 314.664ZM379.116 319.16C378.423 319.16 377.793 318.989 377.228 318.648C376.663 318.296 376.215 317.821 375.884 317.224C375.564 316.627 375.404 315.955 375.404 315.208C375.404 314.461 375.564 313.789 375.884 313.192C376.215 312.595 376.657 312.12 377.212 311.768C377.777 311.416 378.412 311.24 379.116 311.24C379.692 311.24 380.204 311.363 380.652 311.608C381.111 311.843 381.479 312.173 381.756 312.6C382.033 313.016 382.188 313.501 382.22 314.056V316.344C382.188 316.888 382.033 317.373 381.756 317.8C381.489 318.227 381.127 318.563 380.668 318.808C380.22 319.043 379.703 319.16 379.116 319.16ZM379.356 317.8C380.071 317.8 380.647 317.56 381.084 317.08C381.521 316.589 381.74 315.965 381.74 315.208C381.74 314.685 381.639 314.232 381.436 313.848C381.244 313.453 380.967 313.149 380.604 312.936C380.241 312.712 379.82 312.6 379.34 312.6C378.86 312.6 378.433 312.712 378.06 312.936C377.697 313.16 377.409 313.469 377.196 313.864C376.993 314.248 376.892 314.691 376.892 315.192C376.892 315.704 376.993 316.157 377.196 316.552C377.409 316.936 377.703 317.24 378.076 317.464C378.449 317.688 378.876 317.8 379.356 317.8ZM381.644 319V316.952L381.916 315.096L381.644 313.256V311.4H383.1V319H381.644ZM386.333 319V308.216H387.773V319H386.333ZM384.461 312.712V311.4H389.645V312.712H384.461ZM276.482 343.16C275.725 343.16 275.042 342.989 274.434 342.648C273.826 342.296 273.346 341.821 272.994 341.224C272.642 340.627 272.466 339.949 272.466 339.192C272.466 338.445 272.637 337.773 272.978 337.176C273.33 336.579 273.8 336.109 274.386 335.768C274.984 335.416 275.65 335.24 276.386 335.24C277.09 335.24 277.709 335.4 278.242 335.72C278.786 336.04 279.208 336.483 279.506 337.048C279.816 337.613 279.97 338.253 279.97 338.968C279.97 339.075 279.965 339.192 279.954 339.32C279.944 339.437 279.922 339.576 279.89 339.736H273.474V338.536H279.122L278.594 339C278.594 338.488 278.504 338.056 278.322 337.704C278.141 337.341 277.885 337.064 277.554 336.872C277.224 336.669 276.824 336.568 276.354 336.568C275.864 336.568 275.432 336.675 275.058 336.888C274.685 337.101 274.397 337.4 274.194 337.784C273.992 338.168 273.89 338.621 273.89 339.144C273.89 339.677 273.997 340.147 274.21 340.552C274.424 340.947 274.728 341.256 275.122 341.48C275.517 341.693 275.97 341.8 276.482 341.8C276.909 341.8 277.298 341.725 277.65 341.576C278.013 341.427 278.322 341.203 278.578 340.904L279.506 341.848C279.144 342.275 278.696 342.6 278.162 342.824C277.64 343.048 277.08 343.16 276.482 343.16ZM281.54 343V331.576H282.98V343H281.54ZM288.607 343.16C287.85 343.16 287.167 342.989 286.559 342.648C285.951 342.296 285.471 341.821 285.119 341.224C284.767 340.627 284.591 339.949 284.591 339.192C284.591 338.445 284.762 337.773 285.103 337.176C285.455 336.579 285.925 336.109 286.511 335.768C287.109 335.416 287.775 335.24 288.511 335.24C289.215 335.24 289.834 335.4 290.367 335.72C290.911 336.04 291.333 336.483 291.631 337.048C291.941 337.613 292.095 338.253 292.095 338.968C292.095 339.075 292.09 339.192 292.079 339.32C292.069 339.437 292.047 339.576 292.015 339.736H285.599V338.536H291.247L290.719 339C290.719 338.488 290.629 338.056 290.447 337.704C290.266 337.341 290.01 337.064 289.679 336.872C289.349 336.669 288.949 336.568 288.479 336.568C287.989 336.568 287.557 336.675 287.183 336.888C286.81 337.101 286.522 337.4 286.319 337.784C286.117 338.168 286.015 338.621 286.015 339.144C286.015 339.677 286.122 340.147 286.335 340.552C286.549 340.947 286.853 341.256 287.247 341.48C287.642 341.693 288.095 341.8 288.607 341.8C289.034 341.8 289.423 341.725 289.775 341.576C290.138 341.427 290.447 341.203 290.703 340.904L291.631 341.848C291.269 342.275 290.821 342.6 290.287 342.824C289.765 343.048 289.205 343.16 288.607 343.16ZM293.665 343V335.4H295.105V343H293.665ZM298.801 343V338.408C298.801 337.843 298.625 337.4 298.273 337.08C297.932 336.749 297.5 336.584 296.977 336.584C296.625 336.584 296.311 336.659 296.033 336.808C295.756 336.957 295.532 337.165 295.361 337.432C295.191 337.699 295.105 338.019 295.105 338.392L294.513 338.104C294.513 337.528 294.636 337.027 294.881 336.6C295.137 336.173 295.484 335.843 295.921 335.608C296.359 335.363 296.849 335.24 297.393 335.24C297.927 335.24 298.407 335.357 298.833 335.592C299.271 335.827 299.612 336.157 299.857 336.584C300.113 337.011 300.241 337.517 300.241 338.104V343H298.801ZM303.937 343V338.408C303.937 337.843 303.761 337.4 303.409 337.08C303.068 336.749 302.641 336.584 302.129 336.584C301.777 336.584 301.457 336.659 301.169 336.808C300.892 336.957 300.668 337.165 300.497 337.432C300.327 337.699 300.241 338.019 300.241 338.392L299.425 338.104C299.457 337.517 299.612 337.016 299.889 336.6C300.177 336.173 300.545 335.843 300.993 335.608C301.441 335.363 301.932 335.24 302.465 335.24C303.02 335.24 303.516 335.357 303.953 335.592C304.391 335.827 304.737 336.157 304.993 336.584C305.26 337.011 305.393 337.523 305.393 338.12V343H303.937ZM310.873 343.16C310.116 343.16 309.433 342.989 308.825 342.648C308.217 342.296 307.737 341.821 307.385 341.224C307.033 340.627 306.857 339.949 306.857 339.192C306.857 338.445 307.028 337.773 307.369 337.176C307.721 336.579 308.19 336.109 308.777 335.768C309.374 335.416 310.041 335.24 310.777 335.24C311.481 335.24 312.1 335.4 312.633 335.72C313.177 336.04 313.598 336.483 313.897 337.048C314.206 337.613 314.361 338.253 314.361 338.968C314.361 339.075 314.356 339.192 314.345 339.32C314.334 339.437 314.313 339.576 314.281 339.736H307.865V338.536H313.513L312.985 339C312.985 338.488 312.894 338.056 312.713 337.704C312.532 337.341 312.276 337.064 311.945 336.872C311.614 336.669 311.214 336.568 310.745 336.568C310.254 336.568 309.822 336.675 309.449 336.888C309.076 337.101 308.788 337.4 308.585 337.784C308.382 338.168 308.281 338.621 308.281 339.144C308.281 339.677 308.388 340.147 308.601 340.552C308.814 340.947 309.118 341.256 309.513 341.48C309.908 341.693 310.361 341.8 310.873 341.8C311.3 341.8 311.689 341.725 312.041 341.576C312.404 341.427 312.713 341.203 312.969 340.904L313.897 341.848C313.534 342.275 313.086 342.6 312.553 342.824C312.03 343.048 311.47 343.16 310.873 343.16ZM321.307 343V338.568C321.307 337.992 321.126 337.517 320.763 337.144C320.4 336.771 319.931 336.584 319.355 336.584C318.971 336.584 318.63 336.669 318.331 336.84C318.032 337.011 317.798 337.245 317.627 337.544C317.456 337.843 317.371 338.184 317.371 338.568L316.779 338.232C316.779 337.656 316.907 337.144 317.163 336.696C317.419 336.248 317.776 335.896 318.235 335.64C318.694 335.373 319.211 335.24 319.787 335.24C320.363 335.24 320.87 335.384 321.307 335.672C321.755 335.96 322.107 336.339 322.363 336.808C322.619 337.267 322.747 337.757 322.747 338.28V343H321.307ZM315.931 343V335.4H317.371V343H315.931ZM325.771 343V332.216H327.211V343H325.771ZM323.899 336.712V335.4H329.083V336.712H323.899ZM333.566 343.16C332.936 343.16 332.371 343.021 331.87 342.744C331.379 342.456 330.995 342.061 330.718 341.56C330.44 341.059 330.302 340.477 330.302 339.816V335.4H331.742V339.752C331.742 340.168 331.811 340.531 331.95 340.84C332.099 341.139 332.312 341.368 332.59 341.528C332.867 341.688 333.192 341.768 333.566 341.768C334.131 341.768 334.574 341.592 334.894 341.24C335.214 340.877 335.374 340.381 335.374 339.752V335.4H336.814V339.816C336.814 340.477 336.675 341.059 336.398 341.56C336.12 342.061 335.736 342.456 335.246 342.744C334.766 343.021 334.206 343.16 333.566 343.16ZM338.743 343V335.4H340.184V343H338.743ZM343.88 343V338.408C343.88 337.843 343.704 337.4 343.352 337.08C343.01 336.749 342.578 336.584 342.056 336.584C341.704 336.584 341.389 336.659 341.112 336.808C340.834 336.957 340.61 337.165 340.44 337.432C340.269 337.699 340.184 338.019 340.184 338.392L339.592 338.104C339.592 337.528 339.714 337.027 339.96 336.6C340.216 336.173 340.562 335.843 341 335.608C341.437 335.363 341.928 335.24 342.472 335.24C343.005 335.24 343.485 335.357 343.912 335.592C344.349 335.827 344.69 336.157 344.936 336.584C345.192 337.011 345.32 337.517 345.32 338.104V343H343.88ZM349.016 343V338.408C349.016 337.843 348.84 337.4 348.488 337.08C348.146 336.749 347.72 336.584 347.208 336.584C346.856 336.584 346.536 336.659 346.248 336.808C345.97 336.957 345.746 337.165 345.576 337.432C345.405 337.699 345.32 338.019 345.32 338.392L344.504 338.104C344.536 337.517 344.69 337.016 344.968 336.6C345.256 336.173 345.624 335.843 346.072 335.608C346.52 335.363 347.01 335.24 347.544 335.24C348.098 335.24 348.594 335.357 349.032 335.592C349.469 335.827 349.816 336.157 350.072 336.584C350.338 337.011 350.472 337.523 350.472 338.12V343H349.016ZM358.367 343L354.879 335.4H356.479L359.279 341.816H358.351L361.167 335.4H362.703L359.215 343H358.367ZM363.947 343V335.4H365.387V343H363.947ZM364.667 333.88C364.4 333.88 364.182 333.795 364.011 333.624C363.84 333.443 363.755 333.219 363.755 332.952C363.755 332.696 363.84 332.483 364.011 332.312C364.182 332.131 364.4 332.04 364.667 332.04C364.934 332.04 365.152 332.131 365.323 332.312C365.494 332.483 365.579 332.696 365.579 332.952C365.579 333.219 365.494 333.443 365.323 333.624C365.152 333.795 364.934 333.88 364.667 333.88ZM368.677 343V332.216H370.117V343H368.677ZM366.805 336.712V335.4H371.989V336.712H366.805ZM376.397 343.16C375.704 343.16 375.075 342.989 374.509 342.648C373.944 342.296 373.496 341.821 373.165 341.224C372.845 340.627 372.685 339.955 372.685 339.208C372.685 338.461 372.845 337.789 373.165 337.192C373.496 336.595 373.939 336.12 374.493 335.768C375.059 335.416 375.693 335.24 376.397 335.24C376.973 335.24 377.485 335.363 377.933 335.608C378.392 335.843 378.76 336.173 379.037 336.6C379.315 337.016 379.469 337.501 379.501 338.056V340.344C379.469 340.888 379.315 341.373 379.037 341.8C378.771 342.227 378.408 342.563 377.949 342.808C377.501 343.043 376.984 343.16 376.397 343.16ZM376.637 341.8C377.352 341.8 377.928 341.56 378.365 341.08C378.803 340.589 379.021 339.965 379.021 339.208C379.021 338.685 378.92 338.232 378.717 337.848C378.525 337.453 378.248 337.149 377.885 336.936C377.523 336.712 377.101 336.6 376.621 336.6C376.141 336.6 375.715 336.712 375.341 336.936C374.979 337.16 374.691 337.469 374.477 337.864C374.275 338.248 374.173 338.691 374.173 339.192C374.173 339.704 374.275 340.157 374.477 340.552C374.691 340.936 374.984 341.24 375.357 341.464C375.731 341.688 376.157 341.8 376.637 341.8ZM378.925 343V340.952L379.197 339.096L378.925 337.256V335.4H380.381V343H378.925ZM385.998 343.16C385.241 343.16 384.558 342.989 383.95 342.648C383.342 342.296 382.862 341.821 382.51 341.224C382.158 340.627 381.982 339.949 381.982 339.192C381.982 338.445 382.153 337.773 382.494 337.176C382.846 336.579 383.315 336.109 383.902 335.768C384.499 335.416 385.166 335.24 385.902 335.24C386.606 335.24 387.225 335.4 387.758 335.72C388.302 336.04 388.723 336.483 389.022 337.048C389.331 337.613 389.486 338.253 389.486 338.968C389.486 339.075 389.481 339.192 389.47 339.32C389.459 339.437 389.438 339.576 389.406 339.736H382.99V338.536H388.638L388.11 339C388.11 338.488 388.019 338.056 387.838 337.704C387.657 337.341 387.401 337.064 387.07 336.872C386.739 336.669 386.339 336.568 385.87 336.568C385.379 336.568 384.947 336.675 384.574 336.888C384.201 337.101 383.913 337.4 383.71 337.784C383.507 338.168 383.406 338.621 383.406 339.144C383.406 339.677 383.513 340.147 383.726 340.552C383.939 340.947 384.243 341.256 384.638 341.48C385.033 341.693 385.486 341.8 385.998 341.8C386.425 341.8 386.814 341.725 387.166 341.576C387.529 341.427 387.838 341.203 388.094 340.904L389.022 341.848C388.659 342.275 388.211 342.6 387.678 342.824C387.155 343.048 386.595 343.16 385.998 343.16Z" fill="#4A4A4A"/>
<path d="M89.2111 261.308C87.5871 261.308 86.1871 261.047 85.0111 260.524C83.8538 259.983 82.7898 259.171 81.8191 258.088L84.6751 255.26C85.3098 255.988 86.0098 256.557 86.7751 256.968C87.5591 257.36 88.4644 257.556 89.4911 257.556C90.4244 257.556 91.1431 257.388 91.6471 257.052C92.1698 256.716 92.4311 256.249 92.4311 255.652C92.4311 255.111 92.2631 254.672 91.9271 254.336C91.5911 254 91.1431 253.711 90.5831 253.468C90.0418 253.225 89.4351 252.992 88.7631 252.768C88.1098 252.544 87.4564 252.292 86.8031 252.012C86.1498 251.713 85.5431 251.349 84.9831 250.92C84.4418 250.472 84.0031 249.921 83.6671 249.268C83.3311 248.596 83.1631 247.756 83.1631 246.748C83.1631 245.535 83.4524 244.489 84.0311 243.612C84.6284 242.735 85.4498 242.072 86.4951 241.624C87.5404 241.157 88.7444 240.924 90.1071 240.924C91.4884 240.924 92.7484 241.167 93.8871 241.652C95.0444 242.137 95.9964 242.8 96.7431 243.64L93.8871 246.468C93.2898 245.852 92.6831 245.395 92.0671 245.096C91.4698 244.797 90.7884 244.648 90.0231 244.648C89.2578 244.648 88.6511 244.797 88.2031 245.096C87.7551 245.376 87.5311 245.787 87.5311 246.328C87.5311 246.832 87.6991 247.243 88.0351 247.56C88.3711 247.859 88.8098 248.12 89.3511 248.344C89.9111 248.568 90.5178 248.792 91.1711 249.016C91.8431 249.24 92.5058 249.501 93.1591 249.8C93.8124 250.099 94.4098 250.481 94.9511 250.948C95.5111 251.396 95.9591 251.975 96.2951 252.684C96.6311 253.375 96.7991 254.233 96.7991 255.26C96.7991 257.145 96.1271 258.629 94.7831 259.712C93.4391 260.776 91.5818 261.308 89.2111 261.308ZM105.845 261.308C104.371 261.308 103.055 261.009 101.897 260.412C100.759 259.796 99.8626 258.947 99.2093 257.864C98.5559 256.781 98.2293 255.559 98.2293 254.196C98.2293 252.833 98.5466 251.62 99.1813 250.556C99.8346 249.473 100.712 248.624 101.813 248.008C102.915 247.392 104.156 247.084 105.537 247.084C106.881 247.084 108.067 247.373 109.093 247.952C110.12 248.531 110.923 249.333 111.501 250.36C112.099 251.387 112.397 252.563 112.397 253.888C112.397 254.131 112.379 254.392 112.341 254.672C112.323 254.933 112.276 255.241 112.201 255.596L100.469 255.624V252.684L110.381 252.656L108.533 253.888C108.515 253.104 108.393 252.46 108.169 251.956C107.945 251.433 107.609 251.041 107.161 250.78C106.732 250.5 106.2 250.36 105.565 250.36C104.893 250.36 104.305 250.519 103.801 250.836C103.316 251.135 102.933 251.564 102.653 252.124C102.392 252.684 102.261 253.365 102.261 254.168C102.261 254.971 102.401 255.661 102.681 256.24C102.98 256.8 103.391 257.239 103.913 257.556C104.455 257.855 105.089 258.004 105.817 258.004C106.489 258.004 107.096 257.892 107.637 257.668C108.179 257.425 108.655 257.071 109.065 256.604L111.417 258.956C110.745 259.74 109.933 260.328 108.981 260.72C108.029 261.112 106.984 261.308 105.845 261.308ZM121.045 261.308C119.645 261.308 118.376 261 117.237 260.384C116.098 259.768 115.202 258.919 114.549 257.836C113.896 256.753 113.569 255.54 113.569 254.196C113.569 252.833 113.896 251.62 114.549 250.556C115.221 249.473 116.126 248.624 117.265 248.008C118.404 247.392 119.682 247.084 121.101 247.084C122.165 247.084 123.136 247.271 124.013 247.644C124.909 247.999 125.702 248.54 126.393 249.268L123.649 252.012C123.332 251.657 122.958 251.396 122.529 251.228C122.118 251.06 121.642 250.976 121.101 250.976C120.485 250.976 119.934 251.116 119.449 251.396C118.982 251.657 118.609 252.031 118.329 252.516C118.068 252.983 117.937 253.533 117.937 254.168C117.937 254.803 118.068 255.363 118.329 255.848C118.609 256.333 118.992 256.716 119.477 256.996C119.962 257.276 120.504 257.416 121.101 257.416C121.661 257.416 122.156 257.323 122.585 257.136C123.033 256.931 123.416 256.651 123.733 256.296L126.449 259.04C125.74 259.787 124.937 260.356 124.041 260.748C123.145 261.121 122.146 261.308 121.045 261.308ZM134.404 261.308C133.153 261.308 132.042 261.056 131.072 260.552C130.12 260.029 129.373 259.32 128.832 258.424C128.29 257.509 128.02 256.464 128.02 255.288V247.392H132.304V255.232C132.304 255.699 132.378 256.1 132.528 256.436C132.696 256.772 132.938 257.033 133.256 257.22C133.573 257.407 133.956 257.5 134.404 257.5C135.038 257.5 135.542 257.304 135.916 256.912C136.289 256.501 136.476 255.941 136.476 255.232V247.392H140.76V255.26C140.76 256.455 140.489 257.509 139.948 258.424C139.406 259.32 138.66 260.029 137.708 260.552C136.756 261.056 135.654 261.308 134.404 261.308ZM143.45 261V247.392H147.734V261H143.45ZM147.734 253.524L145.942 252.124C146.296 250.537 146.894 249.305 147.734 248.428C148.574 247.551 149.74 247.112 151.234 247.112C151.887 247.112 152.456 247.215 152.942 247.42C153.446 247.607 153.884 247.905 154.258 248.316L151.71 251.536C151.523 251.331 151.29 251.172 151.01 251.06C150.73 250.948 150.412 250.892 150.058 250.892C149.348 250.892 148.779 251.116 148.35 251.564C147.939 251.993 147.734 252.647 147.734 253.524ZM161.736 261.308C160.261 261.308 158.945 261.009 157.788 260.412C156.649 259.796 155.753 258.947 155.1 257.864C154.447 256.781 154.12 255.559 154.12 254.196C154.12 252.833 154.437 251.62 155.072 250.556C155.725 249.473 156.603 248.624 157.704 248.008C158.805 247.392 160.047 247.084 161.428 247.084C162.772 247.084 163.957 247.373 164.984 247.952C166.011 248.531 166.813 249.333 167.392 250.36C167.989 251.387 168.288 252.563 168.288 253.888C168.288 254.131 168.269 254.392 168.232 254.672C168.213 254.933 168.167 255.241 168.092 255.596L156.36 255.624V252.684L166.272 252.656L164.424 253.888C164.405 253.104 164.284 252.46 164.06 251.956C163.836 251.433 163.5 251.041 163.052 250.78C162.623 250.5 162.091 250.36 161.456 250.36C160.784 250.36 160.196 250.519 159.692 250.836C159.207 251.135 158.824 251.564 158.544 252.124C158.283 252.684 158.152 253.365 158.152 254.168C158.152 254.971 158.292 255.661 158.572 256.24C158.871 256.8 159.281 257.239 159.804 257.556C160.345 257.855 160.98 258.004 161.708 258.004C162.38 258.004 162.987 257.892 163.528 257.668C164.069 257.425 164.545 257.071 164.956 256.604L167.308 258.956C166.636 259.74 165.824 260.328 164.872 260.72C163.92 261.112 162.875 261.308 161.736 261.308ZM179.44 261V257.584H184.088C184.946 257.584 185.618 257.332 186.104 256.828C186.589 256.324 186.832 255.708 186.832 254.98C186.832 254.476 186.72 254.028 186.496 253.636C186.272 253.244 185.954 252.936 185.544 252.712C185.152 252.488 184.666 252.376 184.088 252.376H179.44V249.044H183.724C184.452 249.044 185.04 248.867 185.488 248.512C185.936 248.139 186.16 247.579 186.16 246.832C186.16 246.104 185.936 245.563 185.488 245.208C185.04 244.835 184.452 244.648 183.724 244.648H179.44V241.232H184.564C185.833 241.232 186.906 241.465 187.784 241.932C188.68 242.399 189.361 243.024 189.828 243.808C190.294 244.592 190.528 245.46 190.528 246.412C190.528 247.625 190.136 248.652 189.352 249.492C188.568 250.332 187.41 250.911 185.88 251.228L185.992 249.744C187.653 250.061 188.932 250.705 189.828 251.676C190.742 252.647 191.2 253.841 191.2 255.26C191.2 256.343 190.929 257.323 190.388 258.2C189.865 259.059 189.1 259.74 188.092 260.244C187.102 260.748 185.908 261 184.508 261H179.44ZM176.08 261V241.232H180.42V261H176.08ZM199.309 261.28C198.059 261.28 196.939 260.972 195.949 260.356C194.979 259.74 194.204 258.9 193.625 257.836C193.065 256.772 192.785 255.559 192.785 254.196C192.785 252.833 193.065 251.62 193.625 250.556C194.204 249.492 194.979 248.652 195.949 248.036C196.939 247.42 198.059 247.112 199.309 247.112C200.224 247.112 201.045 247.289 201.773 247.644C202.52 247.999 203.127 248.493 203.593 249.128C204.06 249.744 204.321 250.453 204.377 251.256V257.136C204.321 257.939 204.06 258.657 203.593 259.292C203.145 259.908 202.548 260.393 201.801 260.748C201.055 261.103 200.224 261.28 199.309 261.28ZM200.177 257.416C201.092 257.416 201.829 257.117 202.389 256.52C202.949 255.904 203.229 255.129 203.229 254.196C203.229 253.561 203.099 253.001 202.837 252.516C202.595 252.031 202.24 251.657 201.773 251.396C201.325 251.116 200.803 250.976 200.205 250.976C199.608 250.976 199.076 251.116 198.609 251.396C198.161 251.657 197.797 252.031 197.517 252.516C197.256 253.001 197.125 253.561 197.125 254.196C197.125 254.812 197.256 255.363 197.517 255.848C197.779 256.333 198.143 256.716 198.609 256.996C199.076 257.276 199.599 257.416 200.177 257.416ZM203.061 261V257.332L203.705 254.028L203.061 250.724V247.392H207.261V261H203.061ZM219.266 261V253.244C219.266 252.535 219.042 251.965 218.594 251.536C218.164 251.088 217.614 250.864 216.942 250.864C216.475 250.864 216.064 250.967 215.71 251.172C215.355 251.359 215.075 251.639 214.87 252.012C214.664 252.367 214.562 252.777 214.562 253.244L212.91 252.432C212.91 251.368 213.143 250.435 213.61 249.632C214.076 248.829 214.72 248.213 215.542 247.784C216.382 247.336 217.324 247.112 218.37 247.112C219.378 247.112 220.264 247.355 221.03 247.84C221.814 248.307 222.43 248.932 222.878 249.716C223.326 250.5 223.55 251.359 223.55 252.292V261H219.266ZM210.278 261V247.392H214.562V261H210.278ZM235.009 261L230.249 253.944L234.981 247.392H239.769L234.057 254.756L234.197 252.992L240.049 261H235.009ZM226.301 261V240.672H230.585V261H226.301ZM241.094 261V247.392H245.378V261H241.094ZM243.25 245.516C242.578 245.516 242.018 245.292 241.57 244.844C241.141 244.377 240.926 243.817 240.926 243.164C240.926 242.492 241.141 241.932 241.57 241.484C242.018 241.036 242.578 240.812 243.25 240.812C243.922 240.812 244.473 241.036 244.902 241.484C245.331 241.932 245.546 242.492 245.546 243.164C245.546 243.817 245.331 244.377 244.902 244.844C244.473 245.292 243.922 245.516 243.25 245.516ZM257.383 261V253.244C257.383 252.535 257.159 251.965 256.711 251.536C256.281 251.088 255.731 250.864 255.059 250.864C254.592 250.864 254.181 250.967 253.827 251.172C253.472 251.359 253.192 251.639 252.987 252.012C252.781 252.367 252.679 252.777 252.679 253.244L251.027 252.432C251.027 251.368 251.26 250.435 251.727 249.632C252.193 248.829 252.837 248.213 253.659 247.784C254.499 247.336 255.441 247.112 256.487 247.112C257.495 247.112 258.381 247.355 259.147 247.84C259.931 248.307 260.547 248.932 260.995 249.716C261.443 250.5 261.667 251.359 261.667 252.292V261H257.383ZM248.395 261V247.392H252.679V261H248.395ZM270.186 267.104C268.693 267.104 267.377 266.843 266.238 266.32C265.118 265.816 264.232 265.097 263.578 264.164L266.21 261.532C266.696 262.111 267.237 262.549 267.834 262.848C268.45 263.147 269.188 263.296 270.046 263.296C271.11 263.296 271.941 263.035 272.538 262.512C273.154 261.989 273.462 261.252 273.462 260.3V256.828L274.19 253.86L273.546 250.892V247.392H277.746V260.188C277.746 261.588 277.42 262.801 276.766 263.828C276.113 264.855 275.217 265.657 274.078 266.236C272.94 266.815 271.642 267.104 270.186 267.104ZM269.99 260.58C268.74 260.58 267.629 260.281 266.658 259.684C265.688 259.087 264.922 258.275 264.362 257.248C263.802 256.221 263.522 255.083 263.522 253.832C263.522 252.563 263.802 251.424 264.362 250.416C264.922 249.389 265.688 248.587 266.658 248.008C267.629 247.411 268.74 247.112 269.99 247.112C270.924 247.112 271.754 247.289 272.482 247.644C273.229 247.98 273.826 248.465 274.274 249.1C274.741 249.716 275.002 250.435 275.058 251.256V256.436C275.002 257.239 274.741 257.957 274.274 258.592C273.826 259.208 273.229 259.693 272.482 260.048C271.736 260.403 270.905 260.58 269.99 260.58ZM270.802 256.772C271.4 256.772 271.913 256.641 272.342 256.38C272.79 256.119 273.126 255.773 273.35 255.344C273.593 254.896 273.714 254.392 273.714 253.832C273.714 253.272 273.593 252.768 273.35 252.32C273.126 251.872 272.79 251.517 272.342 251.256C271.913 250.995 271.4 250.864 270.802 250.864C270.224 250.864 269.71 250.995 269.262 251.256C268.814 251.517 268.469 251.872 268.226 252.32C267.984 252.768 267.862 253.272 267.862 253.832C267.862 254.355 267.984 254.849 268.226 255.316C268.469 255.764 268.805 256.119 269.234 256.38C269.682 256.641 270.205 256.772 270.802 256.772ZM292.43 261.308C290.806 261.308 289.406 261.047 288.23 260.524C287.073 259.983 286.009 259.171 285.038 258.088L287.894 255.26C288.529 255.988 289.229 256.557 289.994 256.968C290.778 257.36 291.683 257.556 292.71 257.556C293.643 257.556 294.362 257.388 294.866 257.052C295.389 256.716 295.65 256.249 295.65 255.652C295.65 255.111 295.482 254.672 295.146 254.336C294.81 254 294.362 253.711 293.802 253.468C293.261 253.225 292.654 252.992 291.982 252.768C291.329 252.544 290.675 252.292 290.022 252.012C289.369 251.713 288.762 251.349 288.202 250.92C287.661 250.472 287.222 249.921 286.886 249.268C286.55 248.596 286.382 247.756 286.382 246.748C286.382 245.535 286.671 244.489 287.25 243.612C287.847 242.735 288.669 242.072 289.714 241.624C290.759 241.157 291.963 240.924 293.326 240.924C294.707 240.924 295.967 241.167 297.106 241.652C298.263 242.137 299.215 242.8 299.962 243.64L297.106 246.468C296.509 245.852 295.902 245.395 295.286 245.096C294.689 244.797 294.007 244.648 293.242 244.648C292.477 244.648 291.87 244.797 291.422 245.096C290.974 245.376 290.75 245.787 290.75 246.328C290.75 246.832 290.918 247.243 291.254 247.56C291.59 247.859 292.029 248.12 292.57 248.344C293.13 248.568 293.737 248.792 294.39 249.016C295.062 249.24 295.725 249.501 296.378 249.8C297.031 250.099 297.629 250.481 298.17 250.948C298.73 251.396 299.178 251.975 299.514 252.684C299.85 253.375 300.018 254.233 300.018 255.26C300.018 257.145 299.346 258.629 298.002 259.712C296.658 260.776 294.801 261.308 292.43 261.308ZM308.896 261.308C307.496 261.308 306.227 261 305.088 260.384C303.968 259.749 303.081 258.891 302.428 257.808C301.775 256.725 301.448 255.512 301.448 254.168C301.448 252.824 301.775 251.62 302.428 250.556C303.081 249.492 303.968 248.652 305.088 248.036C306.208 247.401 307.477 247.084 308.896 247.084C310.315 247.084 311.584 247.392 312.704 248.008C313.824 248.624 314.711 249.473 315.364 250.556C316.017 251.62 316.344 252.824 316.344 254.168C316.344 255.512 316.017 256.725 315.364 257.808C314.711 258.891 313.824 259.749 312.704 260.384C311.584 261 310.315 261.308 308.896 261.308ZM308.896 257.416C309.512 257.416 310.053 257.285 310.52 257.024C310.987 256.744 311.341 256.361 311.584 255.876C311.845 255.372 311.976 254.803 311.976 254.168C311.976 253.533 311.845 252.983 311.584 252.516C311.323 252.031 310.959 251.657 310.492 251.396C310.044 251.116 309.512 250.976 308.896 250.976C308.299 250.976 307.767 251.116 307.3 251.396C306.833 251.657 306.469 252.031 306.208 252.516C305.947 253.001 305.816 253.561 305.816 254.196C305.816 254.812 305.947 255.372 306.208 255.876C306.469 256.361 306.833 256.744 307.3 257.024C307.767 257.285 308.299 257.416 308.896 257.416ZM318.477 261V240.672H322.761V261H318.477ZM331.826 261.308C330.575 261.308 329.464 261.056 328.494 260.552C327.542 260.029 326.795 259.32 326.254 258.424C325.712 257.509 325.442 256.464 325.442 255.288V247.392H329.726V255.232C329.726 255.699 329.8 256.1 329.95 256.436C330.118 256.772 330.36 257.033 330.678 257.22C330.995 257.407 331.378 257.5 331.826 257.5C332.46 257.5 332.964 257.304 333.338 256.912C333.711 256.501 333.898 255.941 333.898 255.232V247.392H338.182V255.26C338.182 256.455 337.911 257.509 337.37 258.424C336.828 259.32 336.082 260.029 335.13 260.552C334.178 261.056 333.076 261.308 331.826 261.308ZM342.803 261V241.764H347.087V261H342.803ZM339.723 251.032V247.392H350.167V251.032H339.723ZM352.055 261V247.392H356.339V261H352.055ZM354.211 245.516C353.539 245.516 352.979 245.292 352.531 244.844C352.102 244.377 351.887 243.817 351.887 243.164C351.887 242.492 352.102 241.932 352.531 241.484C352.979 241.036 353.539 240.812 354.211 240.812C354.883 240.812 355.434 241.036 355.863 241.484C356.292 241.932 356.507 242.492 356.507 243.164C356.507 243.817 356.292 244.377 355.863 244.844C355.434 245.292 354.883 245.516 354.211 245.516ZM365.908 261.308C364.508 261.308 363.238 261 362.1 260.384C360.98 259.749 360.093 258.891 359.44 257.808C358.786 256.725 358.46 255.512 358.46 254.168C358.46 252.824 358.786 251.62 359.44 250.556C360.093 249.492 360.98 248.652 362.1 248.036C363.22 247.401 364.489 247.084 365.908 247.084C367.326 247.084 368.596 247.392 369.716 248.008C370.836 248.624 371.722 249.473 372.376 250.556C373.029 251.62 373.356 252.824 373.356 254.168C373.356 255.512 373.029 256.725 372.376 257.808C371.722 258.891 370.836 259.749 369.716 260.384C368.596 261 367.326 261.308 365.908 261.308ZM365.908 257.416C366.524 257.416 367.065 257.285 367.532 257.024C367.998 256.744 368.353 256.361 368.596 255.876C368.857 255.372 368.988 254.803 368.988 254.168C368.988 253.533 368.857 252.983 368.596 252.516C368.334 252.031 367.97 251.657 367.504 251.396C367.056 251.116 366.524 250.976 365.908 250.976C365.31 250.976 364.778 251.116 364.312 251.396C363.845 251.657 363.481 252.031 363.22 252.516C362.958 253.001 362.828 253.561 362.828 254.196C362.828 254.812 362.958 255.372 363.22 255.876C363.481 256.361 363.845 256.744 364.312 257.024C364.778 257.285 365.31 257.416 365.908 257.416ZM384.477 261V253.244C384.477 252.535 384.253 251.965 383.805 251.536C383.375 251.088 382.825 250.864 382.153 250.864C381.686 250.864 381.275 250.967 380.921 251.172C380.566 251.359 380.286 251.639 380.081 252.012C379.875 252.367 379.773 252.777 379.773 253.244L378.121 252.432C378.121 251.368 378.354 250.435 378.821 249.632C379.287 248.829 379.931 248.213 380.753 247.784C381.593 247.336 382.535 247.112 383.581 247.112C384.589 247.112 385.475 247.355 386.241 247.84C387.025 248.307 387.641 248.932 388.089 249.716C388.537 250.5 388.761 251.359 388.761 252.292V261H384.477ZM375.489 261V247.392H379.773V261H375.489Z" fill="#3C3C3C"/>
<g clip-path="url(#clip0_6_12055)">
<path d="M341.333 168.333C342.24 168.333 343.12 168.44 344 168.573V159.213C344 157.08 342.747 155.16 340.8 154.333L326.133 147.933C324.773 147.346 323.227 147.346 321.867 147.933L307.2 154.333C305.253 155.186 304 157.106 304 159.213V168.813C304 180.92 312.533 192.253 324 195C325.467 194.653 326.88 194.147 328.267 193.533C326.427 190.92 325.333 187.746 325.333 184.333C325.333 175.507 332.507 168.333 341.333 168.333Z" fill="url(#paint0_linear_6_12055)"/>
<path d="M341.333 173.667C335.439 173.667 330.666 178.44 330.666 184.333C330.666 190.227 335.439 195 341.333 195C347.226 195 351.999 190.227 351.999 184.333C351.999 178.44 347.226 173.667 341.333 173.667ZM341.333 177.347C342.986 177.347 344.319 178.707 344.319 180.333C344.319 181.96 342.959 183.32 341.333 183.32C339.706 183.32 338.346 181.96 338.346 180.333C338.346 178.707 339.679 177.347 341.333 177.347ZM341.333 191.667C338.853 191.667 336.693 190.44 335.359 188.547C335.493 186.627 339.386 185.667 341.333 185.667C343.279 185.667 347.173 186.627 347.306 188.547C345.973 190.44 343.813 191.667 341.333 191.667Z" fill="url(#paint1_linear_6_12055)"/>
</g>
<defs>
<filter id="filter0_d_6_12055" x="0" y="0.556152" width="490" height="560.592" filterUnits="userSpaceOnUse" color-interpolation-filters="sRGB">
<feFlood flood-opacity="0" result="BackgroundImageFix"/>
<feColorMatrix in="SourceAlpha" type="matrix" values="0 0 0 0 0 0 0 0 0 0 0 0 0 0 0 0 0 0 127 0" result="hardAlpha"/>
<feOffset dx="24" dy="30"/>
<feGaussianBlur stdDeviation="25.5"/>
<feComposite in2="hardAlpha" operator="out"/>
<feColorMatrix type="matrix" values="0 0 0 0 0 0 0 0 0 0 0 0 0 0 0 0 0 0 0.1 0"/>
<feBlend mode="normal" in2="BackgroundImageFix" result="effect1_dropShadow_6_12055"/>
<feBlend mode="normal" in="SourceGraphic" in2="effect1_dropShadow_6_12055" result="shape"/>
</filter>
<linearGradient id="paint0_linear_6_12055" x1="300.826" y1="143.604" x2="357.044" y2="191.386" gradientUnits="userSpaceOnUse">
<stop stop-color="#ED1F24"/>
<stop offset="1"/>
</linearGradient>
<linearGradient id="paint1_linear_6_12055" x1="328.973" y1="171.92" x2="354.552" y2="197.74" gradientUnits="userSpaceOnUse">
<stop stop-color="#ED1F24"/>
<stop offset="1"/>
</linearGradient>
<clipPath id="clip0_6_12055">
<rect width="64" height="64" fill="white" transform="translate(296 139)"/>
</clipPath>
</defs>
</svg>
