<svg width="490" height="438" viewBox="0 0 490 438" fill="none" xmlns="http://www.w3.org/2000/svg">
<g filter="url(#filter0_d_6_12048)">
<rect x="27" y="21" width="388" height="336" rx="16" fill="url(#paint0_linear_6_12048)"/>
</g>
<path d="M88.0771 234.16C87.3837 234.16 86.7544 233.989 86.1891 233.648C85.6237 233.296 85.1757 232.821 84.8451 232.224C84.5251 231.627 84.3651 230.955 84.3651 230.208C84.3651 229.461 84.5251 228.789 84.8451 228.192C85.1757 227.595 85.6184 227.12 86.1731 226.768C86.7384 226.416 87.3731 226.24 88.0771 226.24C88.6531 226.24 89.1651 226.363 89.6131 226.608C90.0717 226.843 90.4397 227.173 90.7171 227.6C90.9944 228.016 91.1491 228.501 91.1811 229.056V231.344C91.1491 231.888 90.9944 232.373 90.7171 232.8C90.4504 233.227 90.0877 233.563 89.6291 233.808C89.1811 234.043 88.6637 234.16 88.0771 234.16ZM88.3171 232.8C89.0317 232.8 89.6077 232.56 90.0451 232.08C90.4824 231.589 90.7011 230.965 90.7011 230.208C90.7011 229.685 90.5997 229.232 90.3971 228.848C90.2051 228.453 89.9277 228.149 89.5651 227.936C89.2024 227.712 88.7811 227.6 88.3011 227.6C87.8211 227.6 87.3944 227.712 87.0211 227.936C86.6584 228.16 86.3704 228.469 86.1571 228.864C85.9544 229.248 85.8531 229.691 85.8531 230.192C85.8531 230.704 85.9544 231.157 86.1571 231.552C86.3704 231.936 86.6637 232.24 87.0371 232.464C87.4104 232.688 87.8371 232.8 88.3171 232.8ZM90.6051 234V231.952L90.8771 230.096L90.6051 228.256V226.4H92.0611V234H90.6051ZM94.1576 234V226.4H95.5976V234H94.1576ZM99.2936 234V229.408C99.2936 228.843 99.1176 228.4 98.7656 228.08C98.4242 227.749 97.9922 227.584 97.4696 227.584C97.1176 227.584 96.8029 227.659 96.5256 227.808C96.2482 227.957 96.0242 228.165 95.8536 228.432C95.6829 228.699 95.5976 229.019 95.5976 229.392L95.0056 229.104C95.0056 228.528 95.1282 228.027 95.3736 227.6C95.6296 227.173 95.9762 226.843 96.4136 226.608C96.8509 226.363 97.3416 226.24 97.8856 226.24C98.4189 226.24 98.8989 226.357 99.3256 226.592C99.7629 226.827 100.104 227.157 100.35 227.584C100.606 228.011 100.734 228.517 100.734 229.104V234H99.2936ZM104.43 234V229.408C104.43 228.843 104.254 228.4 103.902 228.08C103.56 227.749 103.134 227.584 102.622 227.584C102.27 227.584 101.95 227.659 101.662 227.808C101.384 227.957 101.16 228.165 100.99 228.432C100.819 228.699 100.734 229.019 100.734 229.392L99.9176 229.104C99.9496 228.517 100.104 228.016 100.382 227.6C100.67 227.173 101.038 226.843 101.486 226.608C101.934 226.363 102.424 226.24 102.958 226.24C103.512 226.24 104.008 226.357 104.446 226.592C104.883 226.827 105.23 227.157 105.486 227.584C105.752 228.011 105.886 228.523 105.886 229.12V234H104.43ZM111.365 234.16C110.608 234.16 109.925 233.989 109.317 233.648C108.709 233.296 108.229 232.821 107.877 232.224C107.525 231.627 107.349 230.949 107.349 230.192C107.349 229.445 107.52 228.773 107.861 228.176C108.213 227.579 108.682 227.109 109.269 226.768C109.866 226.416 110.533 226.24 111.269 226.24C111.973 226.24 112.592 226.4 113.125 226.72C113.669 227.04 114.09 227.483 114.389 228.048C114.698 228.613 114.853 229.253 114.853 229.968C114.853 230.075 114.848 230.192 114.837 230.32C114.826 230.437 114.805 230.576 114.773 230.736H108.357V229.536H114.005L113.477 230C113.477 229.488 113.386 229.056 113.205 228.704C113.024 228.341 112.768 228.064 112.437 227.872C112.106 227.669 111.706 227.568 111.237 227.568C110.746 227.568 110.314 227.675 109.941 227.888C109.568 228.101 109.28 228.4 109.077 228.784C108.874 229.168 108.773 229.621 108.773 230.144C108.773 230.677 108.88 231.147 109.093 231.552C109.306 231.947 109.61 232.256 110.005 232.48C110.4 232.693 110.853 232.8 111.365 232.8C111.792 232.8 112.181 232.725 112.533 232.576C112.896 232.427 113.205 232.203 113.461 231.904L114.389 232.848C114.026 233.275 113.578 233.6 113.045 233.824C112.522 234.048 111.962 234.16 111.365 234.16ZM117.372 234V223.216H118.812V234H117.372ZM115.5 227.712V226.4H120.684V227.712H115.5ZM121.628 235.76L122.62 233.856L123.132 233.728C123.079 233.845 123.01 233.941 122.924 234.016C122.85 234.091 122.754 234.128 122.636 234.128C122.412 234.128 122.204 234.037 122.012 233.856C121.831 233.664 121.74 233.429 121.74 233.152C121.74 232.843 121.842 232.587 122.044 232.384C122.247 232.171 122.503 232.064 122.812 232.064C123.09 232.064 123.335 232.171 123.548 232.384C123.762 232.587 123.868 232.843 123.868 233.152C123.868 233.269 123.842 233.413 123.788 233.584C123.746 233.744 123.655 233.952 123.516 234.208L122.46 236.208L121.628 235.76ZM131.699 234.16C131.272 234.16 130.867 234.107 130.483 234C130.109 233.883 129.763 233.723 129.443 233.52C129.123 233.307 128.845 233.056 128.611 232.768L129.539 231.84C129.816 232.181 130.136 232.437 130.499 232.608C130.861 232.768 131.267 232.848 131.715 232.848C132.163 232.848 132.509 232.773 132.755 232.624C133 232.464 133.123 232.245 133.123 231.968C133.123 231.691 133.021 231.477 132.819 231.328C132.627 231.168 132.376 231.04 132.067 230.944C131.757 230.837 131.427 230.736 131.075 230.64C130.733 230.533 130.408 230.4 130.099 230.24C129.789 230.08 129.533 229.861 129.331 229.584C129.139 229.307 129.043 228.939 129.043 228.48C129.043 228.021 129.155 227.627 129.379 227.296C129.603 226.955 129.912 226.693 130.307 226.512C130.712 226.331 131.197 226.24 131.763 226.24C132.36 226.24 132.888 226.347 133.347 226.56C133.816 226.763 134.2 227.072 134.499 227.488L133.571 228.416C133.357 228.139 133.091 227.925 132.771 227.776C132.461 227.627 132.109 227.552 131.715 227.552C131.299 227.552 130.979 227.627 130.755 227.776C130.541 227.915 130.435 228.112 130.435 228.368C130.435 228.624 130.531 228.821 130.723 228.96C130.915 229.099 131.165 229.216 131.475 229.312C131.795 229.408 132.125 229.509 132.467 229.616C132.808 229.712 133.133 229.845 133.443 230.016C133.752 230.187 134.003 230.416 134.195 230.704C134.397 230.992 134.499 231.371 134.499 231.84C134.499 232.555 134.243 233.12 133.731 233.536C133.229 233.952 132.552 234.16 131.699 234.16ZM139.631 234.16C138.873 234.16 138.191 233.989 137.583 233.648C136.975 233.296 136.495 232.821 136.143 232.224C135.791 231.627 135.615 230.949 135.615 230.192C135.615 229.445 135.785 228.773 136.127 228.176C136.479 227.579 136.948 227.109 137.535 226.768C138.132 226.416 138.799 226.24 139.535 226.24C140.239 226.24 140.857 226.4 141.391 226.72C141.935 227.04 142.356 227.483 142.655 228.048C142.964 228.613 143.119 229.253 143.119 229.968C143.119 230.075 143.113 230.192 143.103 230.32C143.092 230.437 143.071 230.576 143.039 230.736H136.623V229.536H142.271L141.743 230C141.743 229.488 141.652 229.056 141.471 228.704C141.289 228.341 141.033 228.064 140.703 227.872C140.372 227.669 139.972 227.568 139.503 227.568C139.012 227.568 138.58 227.675 138.207 227.888C137.833 228.101 137.545 228.4 137.343 228.784C137.14 229.168 137.039 229.621 137.039 230.144C137.039 230.677 137.145 231.147 137.359 231.552C137.572 231.947 137.876 232.256 138.271 232.48C138.665 232.693 139.119 232.8 139.631 232.8C140.057 232.8 140.447 232.725 140.799 232.576C141.161 232.427 141.471 232.203 141.727 231.904L142.655 232.848C142.292 233.275 141.844 233.6 141.311 233.824C140.788 234.048 140.228 234.16 139.631 234.16ZM147.905 234.16C147.201 234.16 146.571 233.989 146.017 233.648C145.462 233.296 145.019 232.821 144.689 232.224C144.369 231.627 144.209 230.955 144.209 230.208C144.209 229.461 144.369 228.789 144.689 228.192C145.019 227.595 145.462 227.12 146.017 226.768C146.571 226.416 147.201 226.24 147.905 226.24C148.47 226.24 148.982 226.363 149.441 226.608C149.899 226.843 150.267 227.173 150.545 227.6C150.833 228.016 150.993 228.501 151.025 229.056V231.344C150.993 231.888 150.838 232.373 150.561 232.8C150.283 233.227 149.915 233.563 149.457 233.808C148.998 234.043 148.481 234.16 147.905 234.16ZM148.145 232.8C148.625 232.8 149.041 232.688 149.393 232.464C149.755 232.24 150.038 231.936 150.241 231.552C150.443 231.157 150.545 230.709 150.545 230.208C150.545 229.685 150.438 229.232 150.225 228.848C150.022 228.464 149.739 228.16 149.377 227.936C149.025 227.712 148.609 227.6 148.129 227.6C147.649 227.6 147.227 227.712 146.865 227.936C146.502 228.16 146.214 228.469 146.001 228.864C145.798 229.248 145.697 229.691 145.697 230.192C145.697 230.704 145.798 231.157 146.001 231.552C146.214 231.936 146.502 232.24 146.865 232.464C147.238 232.688 147.665 232.8 148.145 232.8ZM151.905 234H150.449V231.952L150.721 230.096L150.449 228.256V222.576H151.905V234ZM160.577 234.16C159.873 234.16 159.239 233.989 158.673 233.648C158.108 233.296 157.66 232.821 157.329 232.224C157.009 231.627 156.849 230.955 156.849 230.208C156.849 229.461 157.009 228.789 157.329 228.192C157.66 227.595 158.108 227.12 158.673 226.768C159.239 226.416 159.868 226.24 160.561 226.24C161.148 226.24 161.665 226.363 162.113 226.608C162.572 226.843 162.935 227.173 163.201 227.6C163.479 228.016 163.633 228.501 163.665 229.056V231.344C163.633 231.888 163.479 232.373 163.201 232.8C162.935 233.227 162.572 233.563 162.113 233.808C161.665 234.043 161.153 234.16 160.577 234.16ZM160.801 232.8C161.516 232.8 162.092 232.56 162.529 232.08C162.967 231.589 163.185 230.965 163.185 230.208C163.185 229.685 163.084 229.232 162.881 228.848C162.689 228.453 162.412 228.149 162.049 227.936C161.697 227.712 161.281 227.6 160.801 227.6C160.321 227.6 159.895 227.712 159.521 227.936C159.159 228.16 158.871 228.469 158.657 228.864C158.444 229.248 158.337 229.691 158.337 230.192C158.337 230.704 158.444 231.157 158.657 231.552C158.871 231.936 159.159 232.24 159.521 232.464C159.895 232.688 160.321 232.8 160.801 232.8ZM163.105 237.184V232.096L163.361 230.24L163.105 228.4V226.4H164.545V237.184H163.105ZM169.73 234.16C169.1 234.16 168.535 234.021 168.034 233.744C167.543 233.456 167.159 233.061 166.882 232.56C166.604 232.059 166.466 231.477 166.466 230.816V226.4H167.906V230.752C167.906 231.168 167.975 231.531 168.114 231.84C168.263 232.139 168.476 232.368 168.754 232.528C169.031 232.688 169.356 232.768 169.73 232.768C170.295 232.768 170.738 232.592 171.058 232.24C171.378 231.877 171.538 231.381 171.538 230.752V226.4H172.978V230.816C172.978 231.477 172.839 232.059 172.562 232.56C172.284 233.061 171.9 233.456 171.41 233.744C170.93 234.021 170.37 234.16 169.73 234.16ZM174.924 234V226.4H176.364V234H174.924ZM175.644 224.88C175.377 224.88 175.158 224.795 174.988 224.624C174.817 224.443 174.732 224.219 174.732 223.952C174.732 223.696 174.817 223.483 174.988 223.312C175.158 223.131 175.377 223.04 175.644 223.04C175.91 223.04 176.129 223.131 176.3 223.312C176.47 223.483 176.556 223.696 176.556 223.952C176.556 224.219 176.47 224.443 176.3 224.624C176.129 224.795 175.91 224.88 175.644 224.88ZM180.902 234.16C180.475 234.16 180.07 234.107 179.686 234C179.312 233.883 178.966 233.723 178.646 233.52C178.326 233.307 178.048 233.056 177.814 232.768L178.742 231.84C179.019 232.181 179.339 232.437 179.702 232.608C180.064 232.768 180.47 232.848 180.918 232.848C181.366 232.848 181.712 232.773 181.958 232.624C182.203 232.464 182.326 232.245 182.326 231.968C182.326 231.691 182.224 231.477 182.022 231.328C181.83 231.168 181.579 231.04 181.27 230.944C180.96 230.837 180.63 230.736 180.278 230.64C179.936 230.533 179.611 230.4 179.302 230.24C178.992 230.08 178.736 229.861 178.534 229.584C178.342 229.307 178.246 228.939 178.246 228.48C178.246 228.021 178.358 227.627 178.582 227.296C178.806 226.955 179.115 226.693 179.51 226.512C179.915 226.331 180.4 226.24 180.966 226.24C181.563 226.24 182.091 226.347 182.55 226.56C183.019 226.763 183.403 227.072 183.702 227.488L182.774 228.416C182.56 228.139 182.294 227.925 181.974 227.776C181.664 227.627 181.312 227.552 180.918 227.552C180.502 227.552 180.182 227.627 179.958 227.776C179.744 227.915 179.638 228.112 179.638 228.368C179.638 228.624 179.734 228.821 179.926 228.96C180.118 229.099 180.368 229.216 180.678 229.312C180.998 229.408 181.328 229.509 181.67 229.616C182.011 229.712 182.336 229.845 182.646 230.016C182.955 230.187 183.206 230.416 183.398 230.704C183.6 230.992 183.702 231.371 183.702 231.84C183.702 232.555 183.446 233.12 182.934 233.536C182.432 233.952 181.755 234.16 180.902 234.16ZM188.642 234V222.576H190.082V234H188.642ZM195.421 234.16C194.727 234.16 194.098 233.989 193.533 233.648C192.967 233.296 192.519 232.821 192.189 232.224C191.869 231.627 191.709 230.955 191.709 230.208C191.709 229.461 191.869 228.789 192.189 228.192C192.519 227.595 192.962 227.12 193.517 226.768C194.082 226.416 194.717 226.24 195.421 226.24C195.997 226.24 196.509 226.363 196.957 226.608C197.415 226.843 197.783 227.173 198.061 227.6C198.338 228.016 198.493 228.501 198.525 229.056V231.344C198.493 231.888 198.338 232.373 198.061 232.8C197.794 233.227 197.431 233.563 196.973 233.808C196.525 234.043 196.007 234.16 195.421 234.16ZM195.661 232.8C196.375 232.8 196.951 232.56 197.389 232.08C197.826 231.589 198.045 230.965 198.045 230.208C198.045 229.685 197.943 229.232 197.741 228.848C197.549 228.453 197.271 228.149 196.909 227.936C196.546 227.712 196.125 227.6 195.645 227.6C195.165 227.6 194.738 227.712 194.365 227.936C194.002 228.16 193.714 228.469 193.501 228.864C193.298 229.248 193.197 229.691 193.197 230.192C193.197 230.704 193.298 231.157 193.501 231.552C193.714 231.936 194.007 232.24 194.381 232.464C194.754 232.688 195.181 232.8 195.661 232.8ZM197.949 234V231.952L198.221 230.096L197.949 228.256V226.4H199.405V234H197.949ZM204.973 234.16C204.227 234.16 203.549 233.984 202.941 233.632C202.344 233.28 201.869 232.805 201.517 232.208C201.176 231.6 201.005 230.928 201.005 230.192C201.005 229.445 201.176 228.773 201.517 228.176C201.869 227.579 202.344 227.109 202.941 226.768C203.549 226.416 204.227 226.24 204.973 226.24C205.56 226.24 206.104 226.352 206.605 226.576C207.107 226.789 207.539 227.104 207.901 227.52L206.941 228.48C206.707 228.203 206.419 227.995 206.077 227.856C205.747 227.707 205.379 227.632 204.973 227.632C204.493 227.632 204.067 227.744 203.693 227.968C203.32 228.181 203.027 228.48 202.813 228.864C202.6 229.248 202.493 229.691 202.493 230.192C202.493 230.693 202.6 231.136 202.813 231.52C203.027 231.904 203.32 232.208 203.693 232.432C204.067 232.656 204.493 232.768 204.973 232.768C205.379 232.768 205.747 232.699 206.077 232.56C206.419 232.411 206.712 232.197 206.957 231.92L207.901 232.88C207.549 233.285 207.117 233.6 206.605 233.824C206.104 234.048 205.56 234.16 204.973 234.16ZM212.401 234.16C211.772 234.16 211.207 234.021 210.705 233.744C210.215 233.456 209.831 233.061 209.553 232.56C209.276 232.059 209.137 231.477 209.137 230.816V226.4H210.577V230.752C210.577 231.168 210.647 231.531 210.785 231.84C210.935 232.139 211.148 232.368 211.425 232.528C211.703 232.688 212.028 232.768 212.401 232.768C212.967 232.768 213.409 232.592 213.729 232.24C214.049 231.877 214.209 231.381 214.209 230.752V226.4H215.649V230.816C215.649 231.477 215.511 232.059 215.233 232.56C214.956 233.061 214.572 233.456 214.081 233.744C213.601 234.021 213.041 234.16 212.401 234.16ZM219.995 234.16C219.569 234.16 219.163 234.107 218.779 234C218.406 233.883 218.059 233.723 217.739 233.52C217.419 233.307 217.142 233.056 216.907 232.768L217.835 231.84C218.113 232.181 218.433 232.437 218.795 232.608C219.158 232.768 219.563 232.848 220.011 232.848C220.459 232.848 220.806 232.773 221.051 232.624C221.297 232.464 221.419 232.245 221.419 231.968C221.419 231.691 221.318 231.477 221.115 231.328C220.923 231.168 220.673 231.04 220.363 230.944C220.054 230.837 219.723 230.736 219.371 230.64C219.03 230.533 218.705 230.4 218.395 230.24C218.086 230.08 217.83 229.861 217.627 229.584C217.435 229.307 217.339 228.939 217.339 228.48C217.339 228.021 217.451 227.627 217.675 227.296C217.899 226.955 218.209 226.693 218.603 226.512C219.009 226.331 219.494 226.24 220.059 226.24C220.657 226.24 221.185 226.347 221.643 226.56C222.113 226.763 222.497 227.072 222.795 227.488L221.867 228.416C221.654 228.139 221.387 227.925 221.067 227.776C220.758 227.627 220.406 227.552 220.011 227.552C219.595 227.552 219.275 227.627 219.051 227.776C218.838 227.915 218.731 228.112 218.731 228.368C218.731 228.624 218.827 228.821 219.019 228.96C219.211 229.099 219.462 229.216 219.771 229.312C220.091 229.408 220.422 229.509 220.763 229.616C221.105 229.712 221.43 229.845 221.739 230.016C222.049 230.187 222.299 230.416 222.491 230.704C222.694 230.992 222.795 231.371 222.795 231.84C222.795 232.555 222.539 233.12 222.027 233.536C221.526 233.952 220.849 234.16 219.995 234.16ZM230.344 234L226.856 226.4H228.456L231.256 232.816H230.328L233.144 226.4H234.68L231.192 234H230.344ZM239.146 234.16C238.389 234.16 237.706 233.989 237.098 233.648C236.49 233.296 236.01 232.821 235.658 232.224C235.306 231.627 235.13 230.949 235.13 230.192C235.13 229.445 235.301 228.773 235.642 228.176C235.994 227.579 236.464 227.109 237.05 226.768C237.648 226.416 238.314 226.24 239.05 226.24C239.754 226.24 240.373 226.4 240.906 226.72C241.45 227.04 241.872 227.483 242.17 228.048C242.48 228.613 242.634 229.253 242.634 229.968C242.634 230.075 242.629 230.192 242.618 230.32C242.608 230.437 242.586 230.576 242.554 230.736H236.138V229.536H241.786L241.258 230C241.258 229.488 241.168 229.056 240.986 228.704C240.805 228.341 240.549 228.064 240.218 227.872C239.888 227.669 239.488 227.568 239.018 227.568C238.528 227.568 238.096 227.675 237.722 227.888C237.349 228.101 237.061 228.4 236.858 228.784C236.656 229.168 236.554 229.621 236.554 230.144C236.554 230.677 236.661 231.147 236.874 231.552C237.088 231.947 237.392 232.256 237.786 232.48C238.181 232.693 238.634 232.8 239.146 232.8C239.573 232.8 239.962 232.725 240.314 232.576C240.677 232.427 240.986 232.203 241.242 231.904L242.17 232.848C241.808 233.275 241.36 233.6 240.826 233.824C240.304 234.048 239.744 234.16 239.146 234.16ZM244.204 234V222.576H245.644V234H244.204ZM254.423 234.16C253.549 234.16 252.802 234 252.183 233.68C251.565 233.36 251.015 232.896 250.535 232.288L251.559 231.264C251.911 231.755 252.317 232.128 252.775 232.384C253.234 232.629 253.799 232.752 254.471 232.752C255.133 232.752 255.661 232.608 256.055 232.32C256.461 232.032 256.663 231.637 256.663 231.136C256.663 230.72 256.567 230.384 256.375 230.128C256.183 229.872 255.922 229.664 255.591 229.504C255.271 229.333 254.919 229.184 254.535 229.056C254.151 228.917 253.767 228.773 253.383 228.624C252.999 228.464 252.647 228.272 252.327 228.048C252.007 227.813 251.746 227.509 251.543 227.136C251.351 226.763 251.255 226.293 251.255 225.728C251.255 225.099 251.405 224.565 251.703 224.128C252.013 223.68 252.429 223.339 252.951 223.104C253.485 222.859 254.082 222.736 254.743 222.736C255.469 222.736 256.119 222.88 256.695 223.168C257.271 223.445 257.741 223.813 258.103 224.272L257.079 225.296C256.749 224.912 256.391 224.624 256.007 224.432C255.634 224.24 255.202 224.144 254.711 224.144C254.114 224.144 253.639 224.277 253.287 224.544C252.935 224.8 252.759 225.163 252.759 225.632C252.759 226.005 252.855 226.309 253.047 226.544C253.25 226.768 253.511 226.96 253.831 227.12C254.151 227.28 254.503 227.429 254.887 227.568C255.282 227.696 255.671 227.84 256.055 228C256.439 228.16 256.791 228.363 257.111 228.608C257.431 228.853 257.687 229.173 257.879 229.568C258.082 229.952 258.183 230.437 258.183 231.024C258.183 232.005 257.842 232.773 257.159 233.328C256.487 233.883 255.575 234.16 254.423 234.16ZM263.365 234.16C262.608 234.16 261.925 233.989 261.317 233.648C260.709 233.296 260.229 232.821 259.877 232.224C259.525 231.627 259.349 230.949 259.349 230.192C259.349 229.445 259.52 228.773 259.861 228.176C260.213 227.579 260.682 227.109 261.269 226.768C261.866 226.416 262.533 226.24 263.269 226.24C263.973 226.24 264.592 226.4 265.125 226.72C265.669 227.04 266.09 227.483 266.389 228.048C266.698 228.613 266.853 229.253 266.853 229.968C266.853 230.075 266.848 230.192 266.837 230.32C266.826 230.437 266.805 230.576 266.773 230.736H260.357V229.536H266.005L265.477 230C265.477 229.488 265.386 229.056 265.205 228.704C265.024 228.341 264.768 228.064 264.437 227.872C264.106 227.669 263.706 227.568 263.237 227.568C262.746 227.568 262.314 227.675 261.941 227.888C261.568 228.101 261.28 228.4 261.077 228.784C260.874 229.168 260.773 229.621 260.773 230.144C260.773 230.677 260.88 231.147 261.093 231.552C261.306 231.947 261.61 232.256 262.005 232.48C262.4 232.693 262.853 232.8 263.365 232.8C263.792 232.8 264.181 232.725 264.533 232.576C264.896 232.427 265.205 232.203 265.461 231.904L266.389 232.848C266.026 233.275 265.578 233.6 265.045 233.824C264.522 234.048 263.962 234.16 263.365 234.16ZM271.639 234.16C270.935 234.16 270.306 233.989 269.751 233.648C269.197 233.296 268.754 232.821 268.423 232.224C268.103 231.627 267.943 230.955 267.943 230.208C267.943 229.461 268.103 228.789 268.423 228.192C268.754 227.595 269.197 227.12 269.751 226.768C270.306 226.416 270.935 226.24 271.639 226.24C272.205 226.24 272.717 226.363 273.175 226.608C273.634 226.843 274.002 227.173 274.279 227.6C274.567 228.016 274.727 228.501 274.759 229.056V231.344C274.727 231.888 274.573 232.373 274.295 232.8C274.018 233.227 273.65 233.563 273.191 233.808C272.733 234.043 272.215 234.16 271.639 234.16ZM271.879 232.8C272.359 232.8 272.775 232.688 273.127 232.464C273.49 232.24 273.773 231.936 273.975 231.552C274.178 231.157 274.279 230.709 274.279 230.208C274.279 229.685 274.173 229.232 273.959 228.848C273.757 228.464 273.474 228.16 273.111 227.936C272.759 227.712 272.343 227.6 271.863 227.6C271.383 227.6 270.962 227.712 270.599 227.936C270.237 228.16 269.949 228.469 269.735 228.864C269.533 229.248 269.431 229.691 269.431 230.192C269.431 230.704 269.533 231.157 269.735 231.552C269.949 231.936 270.237 232.24 270.599 232.464C270.973 232.688 271.399 232.8 271.879 232.8ZM275.639 234H274.183V231.952L274.455 230.096L274.183 228.256V222.576H275.639V234ZM285.48 234.16C284.658 234.16 283.922 233.979 283.272 233.616C282.632 233.243 282.125 232.736 281.752 232.096C281.378 231.445 281.192 230.709 281.192 229.888V222.896H282.696V229.856C282.696 230.443 282.818 230.949 283.064 231.376C283.309 231.803 283.64 232.133 284.056 232.368C284.482 232.603 284.957 232.72 285.48 232.72C286.024 232.72 286.498 232.603 286.904 232.368C287.32 232.133 287.645 231.803 287.88 231.376C288.125 230.949 288.248 230.448 288.248 229.872V222.896H289.768V229.904C289.768 230.725 289.581 231.456 289.208 232.096C288.834 232.736 288.328 233.243 287.688 233.616C287.048 233.979 286.312 234.16 285.48 234.16ZM293.154 234V223.216H294.594V234H293.154ZM291.282 227.712V226.4H296.466V227.712H291.282ZM304.724 234.16C303.967 234.16 303.284 233.989 302.676 233.648C302.068 233.296 301.588 232.821 301.236 232.224C300.884 231.627 300.708 230.949 300.708 230.192C300.708 229.445 300.879 228.773 301.22 228.176C301.572 227.579 302.042 227.109 302.628 226.768C303.226 226.416 303.892 226.24 304.628 226.24C305.332 226.24 305.951 226.4 306.484 226.72C307.028 227.04 307.45 227.483 307.748 228.048C308.058 228.613 308.212 229.253 308.212 229.968C308.212 230.075 308.207 230.192 308.196 230.32C308.186 230.437 308.164 230.576 308.132 230.736H301.716V229.536H307.364L306.836 230C306.836 229.488 306.746 229.056 306.564 228.704C306.383 228.341 306.127 228.064 305.796 227.872C305.466 227.669 305.066 227.568 304.596 227.568C304.106 227.568 303.674 227.675 303.3 227.888C302.927 228.101 302.639 228.4 302.436 228.784C302.234 229.168 302.132 229.621 302.132 230.144C302.132 230.677 302.239 231.147 302.452 231.552C302.666 231.947 302.97 232.256 303.364 232.48C303.759 232.693 304.212 232.8 304.724 232.8C305.151 232.8 305.54 232.725 305.892 232.576C306.255 232.427 306.564 232.203 306.82 231.904L307.748 232.848C307.386 233.275 306.938 233.6 306.404 233.824C305.882 234.048 305.322 234.16 304.724 234.16ZM314.54 234L312.172 230.672L311.9 230.416L308.908 226.4H310.652L312.812 229.36L313.084 229.584L316.284 234H314.54ZM308.764 234L311.9 229.776L312.716 230.832L310.46 234H308.764ZM313.196 230.4L312.364 229.376L314.46 226.4H316.14L313.196 230.4ZM326.235 234.16C325.435 234.16 324.693 234.016 324.011 233.728C323.328 233.429 322.731 233.019 322.219 232.496C321.717 231.973 321.328 231.365 321.051 230.672C320.773 229.979 320.635 229.237 320.635 228.448C320.635 227.648 320.773 226.901 321.051 226.208C321.328 225.515 321.717 224.912 322.219 224.4C322.731 223.877 323.323 223.472 323.995 223.184C324.677 222.885 325.419 222.736 326.219 222.736C327.093 222.736 327.861 222.885 328.523 223.184C329.184 223.483 329.771 223.888 330.283 224.4L329.243 225.44C328.891 225.045 328.459 224.736 327.947 224.512C327.445 224.288 326.869 224.176 326.219 224.176C325.632 224.176 325.093 224.283 324.603 224.496C324.112 224.699 323.685 224.992 323.323 225.376C322.96 225.76 322.677 226.213 322.475 226.736C322.283 227.259 322.187 227.829 322.187 228.448C322.187 229.067 322.283 229.637 322.475 230.16C322.677 230.683 322.96 231.136 323.323 231.52C323.685 231.904 324.112 232.203 324.603 232.416C325.093 232.619 325.632 232.72 326.219 232.72C326.912 232.72 327.515 232.608 328.027 232.384C328.539 232.149 328.971 231.835 329.323 231.44L330.363 232.464C329.851 232.997 329.248 233.413 328.555 233.712C327.872 234.011 327.099 234.16 326.235 234.16ZM331.954 234V226.4H333.394V234H331.954ZM333.394 229.664L332.85 229.424C332.85 228.453 333.074 227.68 333.522 227.104C333.97 226.528 334.616 226.24 335.458 226.24C335.842 226.24 336.189 226.309 336.498 226.448C336.808 226.576 337.096 226.795 337.362 227.104L336.418 228.08C336.258 227.909 336.082 227.787 335.89 227.712C335.698 227.637 335.474 227.6 335.218 227.6C334.685 227.6 334.248 227.771 333.906 228.112C333.565 228.453 333.394 228.971 333.394 229.664ZM341.358 234.16C340.665 234.16 340.036 233.989 339.47 233.648C338.905 233.296 338.457 232.821 338.126 232.224C337.806 231.627 337.646 230.955 337.646 230.208C337.646 229.461 337.806 228.789 338.126 228.192C338.457 227.595 338.9 227.12 339.454 226.768C340.02 226.416 340.654 226.24 341.358 226.24C341.934 226.24 342.446 226.363 342.894 226.608C343.353 226.843 343.721 227.173 343.998 227.6C344.276 228.016 344.43 228.501 344.462 229.056V231.344C344.43 231.888 344.276 232.373 343.998 232.8C343.732 233.227 343.369 233.563 342.91 233.808C342.462 234.043 341.945 234.16 341.358 234.16ZM341.598 232.8C342.313 232.8 342.889 232.56 343.326 232.08C343.764 231.589 343.982 230.965 343.982 230.208C343.982 229.685 343.881 229.232 343.678 228.848C343.486 228.453 343.209 228.149 342.846 227.936C342.484 227.712 342.062 227.6 341.582 227.6C341.102 227.6 340.676 227.712 340.302 227.936C339.94 228.16 339.652 228.469 339.438 228.864C339.236 229.248 339.134 229.691 339.134 230.192C339.134 230.704 339.236 231.157 339.438 231.552C339.652 231.936 339.945 232.24 340.318 232.464C340.692 232.688 341.118 232.8 341.598 232.8ZM343.886 234V231.952L344.158 230.096L343.886 228.256V226.4H345.342V234H343.886ZM349.855 234.16C349.428 234.16 349.023 234.107 348.639 234C348.265 233.883 347.919 233.723 347.599 233.52C347.279 233.307 347.001 233.056 346.767 232.768L347.695 231.84C347.972 232.181 348.292 232.437 348.655 232.608C349.017 232.768 349.423 232.848 349.871 232.848C350.319 232.848 350.665 232.773 350.911 232.624C351.156 232.464 351.279 232.245 351.279 231.968C351.279 231.691 351.177 231.477 350.975 231.328C350.783 231.168 350.532 231.04 350.223 230.944C349.913 230.837 349.583 230.736 349.231 230.64C348.889 230.533 348.564 230.4 348.255 230.24C347.945 230.08 347.689 229.861 347.487 229.584C347.295 229.307 347.199 228.939 347.199 228.48C347.199 228.021 347.311 227.627 347.535 227.296C347.759 226.955 348.068 226.693 348.463 226.512C348.868 226.331 349.353 226.24 349.919 226.24C350.516 226.24 351.044 226.347 351.503 226.56C351.972 226.763 352.356 227.072 352.655 227.488L351.727 228.416C351.513 228.139 351.247 227.925 350.927 227.776C350.617 227.627 350.265 227.552 349.871 227.552C349.455 227.552 349.135 227.627 348.911 227.776C348.697 227.915 348.591 228.112 348.591 228.368C348.591 228.624 348.687 228.821 348.879 228.96C349.071 229.099 349.321 229.216 349.631 229.312C349.951 229.408 350.281 229.509 350.623 229.616C350.964 229.712 351.289 229.845 351.599 230.016C351.908 230.187 352.159 230.416 352.351 230.704C352.553 230.992 352.655 231.371 352.655 231.84C352.655 232.555 352.399 233.12 351.887 233.536C351.385 233.952 350.708 234.16 349.855 234.16ZM104.258 253.68V252.368H107.282C107.698 252.368 108.066 252.283 108.386 252.112C108.716 251.941 108.972 251.701 109.154 251.392C109.346 251.083 109.442 250.715 109.442 250.288C109.442 249.861 109.346 249.493 109.154 249.184C108.972 248.875 108.716 248.635 108.386 248.464C108.066 248.293 107.698 248.208 107.282 248.208H104.258V246.896H107.378C108.06 246.896 108.668 247.035 109.202 247.312C109.746 247.589 110.172 247.984 110.482 248.496C110.802 248.997 110.962 249.595 110.962 250.288C110.962 250.971 110.802 251.568 110.482 252.08C110.172 252.581 109.746 252.976 109.202 253.264C108.668 253.541 108.06 253.68 107.378 253.68H104.258ZM103.25 258V246.896H104.754V258H103.25ZM112.697 258V250.4H114.137V258H112.697ZM114.137 253.664L113.593 253.424C113.593 252.453 113.817 251.68 114.265 251.104C114.713 250.528 115.358 250.24 116.201 250.24C116.585 250.24 116.931 250.309 117.241 250.448C117.55 250.576 117.838 250.795 118.105 251.104L117.161 252.08C117.001 251.909 116.825 251.787 116.633 251.712C116.441 251.637 116.217 251.6 115.961 251.6C115.427 251.6 114.99 251.771 114.649 252.112C114.307 252.453 114.137 252.971 114.137 253.664ZM122.101 258.16C121.407 258.16 120.778 257.989 120.213 257.648C119.647 257.296 119.199 256.821 118.868 256.224C118.549 255.627 118.389 254.955 118.389 254.208C118.389 253.461 118.549 252.789 118.868 252.192C119.199 251.595 119.642 251.12 120.197 250.768C120.762 250.416 121.397 250.24 122.101 250.24C122.677 250.24 123.189 250.363 123.637 250.608C124.095 250.843 124.463 251.173 124.741 251.6C125.018 252.016 125.173 252.501 125.205 253.056V255.344C125.173 255.888 125.018 256.373 124.741 256.8C124.474 257.227 124.111 257.563 123.653 257.808C123.205 258.043 122.687 258.16 122.101 258.16ZM122.341 256.8C123.055 256.8 123.631 256.56 124.069 256.08C124.506 255.589 124.725 254.965 124.725 254.208C124.725 253.685 124.623 253.232 124.421 252.848C124.229 252.453 123.951 252.149 123.589 251.936C123.226 251.712 122.805 251.6 122.325 251.6C121.845 251.6 121.418 251.712 121.045 251.936C120.682 252.16 120.394 252.469 120.181 252.864C119.978 253.248 119.877 253.691 119.877 254.192C119.877 254.704 119.978 255.157 120.181 255.552C120.394 255.936 120.687 256.24 121.061 256.464C121.434 256.688 121.861 256.8 122.341 256.8ZM124.629 258V255.952L124.901 254.096L124.629 252.256V250.4H126.085V258H124.629ZM131.701 258.16C130.944 258.16 130.261 257.989 129.653 257.648C129.045 257.296 128.565 256.821 128.213 256.224C127.861 255.627 127.685 254.949 127.685 254.192C127.685 253.445 127.856 252.773 128.197 252.176C128.549 251.579 129.018 251.109 129.605 250.768C130.202 250.416 130.869 250.24 131.605 250.24C132.309 250.24 132.928 250.4 133.461 250.72C134.005 251.04 134.426 251.483 134.725 252.048C135.034 252.613 135.189 253.253 135.189 253.968C135.189 254.075 135.184 254.192 135.173 254.32C135.162 254.437 135.141 254.576 135.109 254.736H128.693V253.536H134.341L133.813 254C133.813 253.488 133.722 253.056 133.541 252.704C133.36 252.341 133.104 252.064 132.773 251.872C132.442 251.669 132.042 251.568 131.573 251.568C131.082 251.568 130.65 251.675 130.277 251.888C129.904 252.101 129.616 252.4 129.413 252.784C129.21 253.168 129.109 253.621 129.109 254.144C129.109 254.677 129.216 255.147 129.429 255.552C129.642 255.947 129.946 256.256 130.341 256.48C130.736 256.693 131.189 256.8 131.701 256.8C132.128 256.8 132.517 256.725 132.869 256.576C133.232 256.427 133.541 256.203 133.797 255.904L134.725 256.848C134.362 257.275 133.914 257.6 133.381 257.824C132.858 258.048 132.298 258.16 131.701 258.16ZM139.175 258.16C138.748 258.16 138.343 258.107 137.959 258C137.586 257.883 137.239 257.723 136.919 257.52C136.599 257.307 136.322 257.056 136.087 256.768L137.015 255.84C137.292 256.181 137.612 256.437 137.975 256.608C138.338 256.768 138.743 256.848 139.191 256.848C139.639 256.848 139.986 256.773 140.231 256.624C140.476 256.464 140.599 256.245 140.599 255.968C140.599 255.691 140.498 255.477 140.295 255.328C140.103 255.168 139.852 255.04 139.543 254.944C139.234 254.837 138.903 254.736 138.551 254.64C138.21 254.533 137.884 254.4 137.575 254.24C137.266 254.08 137.01 253.861 136.807 253.584C136.615 253.307 136.519 252.939 136.519 252.48C136.519 252.021 136.631 251.627 136.855 251.296C137.079 250.955 137.388 250.693 137.783 250.512C138.188 250.331 138.674 250.24 139.239 250.24C139.836 250.24 140.364 250.347 140.823 250.56C141.292 250.763 141.676 251.072 141.975 251.488L141.047 252.416C140.834 252.139 140.567 251.925 140.247 251.776C139.938 251.627 139.586 251.552 139.191 251.552C138.775 251.552 138.455 251.627 138.231 251.776C138.018 251.915 137.911 252.112 137.911 252.368C137.911 252.624 138.007 252.821 138.199 252.96C138.391 253.099 138.642 253.216 138.951 253.312C139.271 253.408 139.602 253.509 139.943 253.616C140.284 253.712 140.61 253.845 140.919 254.016C141.228 254.187 141.479 254.416 141.671 254.704C141.874 254.992 141.975 255.371 141.975 255.84C141.975 256.555 141.719 257.12 141.207 257.536C140.706 257.952 140.028 258.16 139.175 258.16ZM147.107 258.16C146.35 258.16 145.667 257.989 145.059 257.648C144.451 257.296 143.971 256.821 143.619 256.224C143.267 255.627 143.091 254.949 143.091 254.192C143.091 253.445 143.262 252.773 143.603 252.176C143.955 251.579 144.425 251.109 145.011 250.768C145.609 250.416 146.275 250.24 147.011 250.24C147.715 250.24 148.334 250.4 148.867 250.72C149.411 251.04 149.833 251.483 150.131 252.048C150.441 252.613 150.595 253.253 150.595 253.968C150.595 254.075 150.59 254.192 150.579 254.32C150.569 254.437 150.547 254.576 150.515 254.736H144.099V253.536H149.747L149.219 254C149.219 253.488 149.129 253.056 148.947 252.704C148.766 252.341 148.51 252.064 148.179 251.872C147.849 251.669 147.449 251.568 146.979 251.568C146.489 251.568 146.057 251.675 145.683 251.888C145.31 252.101 145.022 252.4 144.819 252.784C144.617 253.168 144.515 253.621 144.515 254.144C144.515 254.677 144.622 255.147 144.835 255.552C145.049 255.947 145.353 256.256 145.747 256.48C146.142 256.693 146.595 256.8 147.107 256.8C147.534 256.8 147.923 256.725 148.275 256.576C148.638 256.427 148.947 256.203 149.203 255.904L150.131 256.848C149.769 257.275 149.321 257.6 148.787 257.824C148.265 258.048 147.705 258.16 147.107 258.16ZM157.541 258V253.568C157.541 252.992 157.36 252.517 156.997 252.144C156.635 251.771 156.165 251.584 155.589 251.584C155.205 251.584 154.864 251.669 154.565 251.84C154.267 252.011 154.032 252.245 153.861 252.544C153.691 252.843 153.605 253.184 153.605 253.568L153.013 253.232C153.013 252.656 153.141 252.144 153.397 251.696C153.653 251.248 154.011 250.896 154.469 250.64C154.928 250.373 155.445 250.24 156.021 250.24C156.597 250.24 157.104 250.384 157.541 250.672C157.989 250.96 158.341 251.339 158.597 251.808C158.853 252.267 158.981 252.757 158.981 253.28V258H157.541ZM152.165 258V250.4H153.605V258H152.165ZM162.005 258V247.216H163.445V258H162.005ZM160.133 251.712V250.4H165.317V251.712H160.133ZM171.32 253.68V252.368H174.344C174.76 252.368 175.128 252.283 175.448 252.112C175.779 251.941 176.035 251.701 176.216 251.392C176.408 251.083 176.504 250.715 176.504 250.288C176.504 249.861 176.408 249.493 176.216 249.184C176.035 248.875 175.779 248.635 175.448 248.464C175.128 248.293 174.76 248.208 174.344 248.208H171.32V246.896H174.44C175.123 246.896 175.731 247.035 176.264 247.312C176.808 247.589 177.235 247.984 177.544 248.496C177.864 248.997 178.024 249.595 178.024 250.288C178.024 250.971 177.864 251.568 177.544 252.08C177.235 252.581 176.808 252.976 176.264 253.264C175.731 253.541 175.123 253.68 174.44 253.68H171.32ZM170.312 258V246.896H171.816V258H170.312ZM179.759 258V250.4H181.199V258H179.759ZM181.199 253.664L180.655 253.424C180.655 252.453 180.879 251.68 181.327 251.104C181.775 250.528 182.42 250.24 183.263 250.24C183.647 250.24 183.994 250.309 184.303 250.448C184.612 250.576 184.9 250.795 185.167 251.104L184.223 252.08C184.063 251.909 183.887 251.787 183.695 251.712C183.503 251.637 183.279 251.6 183.023 251.6C182.49 251.6 182.052 251.771 181.711 252.112C181.37 252.453 181.199 252.971 181.199 253.664ZM189.163 258.16C188.47 258.16 187.84 257.989 187.275 257.648C186.71 257.296 186.262 256.821 185.931 256.224C185.611 255.627 185.451 254.955 185.451 254.208C185.451 253.461 185.611 252.789 185.931 252.192C186.262 251.595 186.704 251.12 187.259 250.768C187.824 250.416 188.459 250.24 189.163 250.24C189.739 250.24 190.251 250.363 190.699 250.608C191.158 250.843 191.526 251.173 191.803 251.6C192.08 252.016 192.235 252.501 192.267 253.056V255.344C192.235 255.888 192.08 256.373 191.803 256.8C191.536 257.227 191.174 257.563 190.715 257.808C190.267 258.043 189.75 258.16 189.163 258.16ZM189.403 256.8C190.118 256.8 190.694 256.56 191.131 256.08C191.568 255.589 191.787 254.965 191.787 254.208C191.787 253.685 191.686 253.232 191.483 252.848C191.291 252.453 191.014 252.149 190.651 251.936C190.288 251.712 189.867 251.6 189.387 251.6C188.907 251.6 188.48 251.712 188.107 251.936C187.744 252.16 187.456 252.469 187.243 252.864C187.04 253.248 186.939 253.691 186.939 254.192C186.939 254.704 187.04 255.157 187.243 255.552C187.456 255.936 187.75 256.24 188.123 256.464C188.496 256.688 188.923 256.8 189.403 256.8ZM191.691 258V255.952L191.963 254.096L191.691 252.256V250.4H193.147V258H191.691ZM198.764 258.16C198.006 258.16 197.324 257.989 196.716 257.648C196.108 257.296 195.628 256.821 195.276 256.224C194.924 255.627 194.748 254.949 194.748 254.192C194.748 253.445 194.918 252.773 195.26 252.176C195.612 251.579 196.081 251.109 196.668 250.768C197.265 250.416 197.932 250.24 198.668 250.24C199.372 250.24 199.99 250.4 200.524 250.72C201.068 251.04 201.489 251.483 201.788 252.048C202.097 252.613 202.252 253.253 202.252 253.968C202.252 254.075 202.246 254.192 202.236 254.32C202.225 254.437 202.204 254.576 202.172 254.736H195.756V253.536H201.404L200.876 254C200.876 253.488 200.785 253.056 200.604 252.704C200.422 252.341 200.166 252.064 199.836 251.872C199.505 251.669 199.105 251.568 198.636 251.568C198.145 251.568 197.713 251.675 197.34 251.888C196.966 252.101 196.678 252.4 196.476 252.784C196.273 253.168 196.172 253.621 196.172 254.144C196.172 254.677 196.278 255.147 196.492 255.552C196.705 255.947 197.009 256.256 197.404 256.48C197.798 256.693 198.252 256.8 198.764 256.8C199.19 256.8 199.58 256.725 199.932 256.576C200.294 256.427 200.604 256.203 200.86 255.904L201.788 256.848C201.425 257.275 200.977 257.6 200.444 257.824C199.921 258.048 199.361 258.16 198.764 258.16ZM206.238 258.16C205.811 258.16 205.406 258.107 205.022 258C204.648 257.883 204.302 257.723 203.982 257.52C203.662 257.307 203.384 257.056 203.15 256.768L204.078 255.84C204.355 256.181 204.675 256.437 205.038 256.608C205.4 256.768 205.806 256.848 206.254 256.848C206.702 256.848 207.048 256.773 207.294 256.624C207.539 256.464 207.662 256.245 207.662 255.968C207.662 255.691 207.56 255.477 207.358 255.328C207.166 255.168 206.915 255.04 206.606 254.944C206.296 254.837 205.966 254.736 205.614 254.64C205.272 254.533 204.947 254.4 204.638 254.24C204.328 254.08 204.072 253.861 203.87 253.584C203.678 253.307 203.582 252.939 203.582 252.48C203.582 252.021 203.694 251.627 203.918 251.296C204.142 250.955 204.451 250.693 204.846 250.512C205.251 250.331 205.736 250.24 206.302 250.24C206.899 250.24 207.427 250.347 207.886 250.56C208.355 250.763 208.739 251.072 209.038 251.488L208.11 252.416C207.896 252.139 207.63 251.925 207.31 251.776C207 251.627 206.648 251.552 206.254 251.552C205.838 251.552 205.518 251.627 205.294 251.776C205.08 251.915 204.974 252.112 204.974 252.368C204.974 252.624 205.07 252.821 205.262 252.96C205.454 253.099 205.704 253.216 206.014 253.312C206.334 253.408 206.664 253.509 207.006 253.616C207.347 253.712 207.672 253.845 207.982 254.016C208.291 254.187 208.542 254.416 208.734 254.704C208.936 254.992 209.038 255.371 209.038 255.84C209.038 256.555 208.782 257.12 208.27 257.536C207.768 257.952 207.091 258.16 206.238 258.16ZM214.17 258.16C213.412 258.16 212.73 257.989 212.122 257.648C211.514 257.296 211.034 256.821 210.682 256.224C210.33 255.627 210.154 254.949 210.154 254.192C210.154 253.445 210.324 252.773 210.666 252.176C211.018 251.579 211.487 251.109 212.074 250.768C212.671 250.416 213.338 250.24 214.074 250.24C214.778 250.24 215.396 250.4 215.93 250.72C216.474 251.04 216.895 251.483 217.194 252.048C217.503 252.613 217.658 253.253 217.658 253.968C217.658 254.075 217.652 254.192 217.642 254.32C217.631 254.437 217.61 254.576 217.578 254.736H211.162V253.536H216.81L216.282 254C216.282 253.488 216.191 253.056 216.01 252.704C215.828 252.341 215.572 252.064 215.242 251.872C214.911 251.669 214.511 251.568 214.042 251.568C213.551 251.568 213.119 251.675 212.746 251.888C212.372 252.101 212.084 252.4 211.882 252.784C211.679 253.168 211.578 253.621 211.578 254.144C211.578 254.677 211.684 255.147 211.898 255.552C212.111 255.947 212.415 256.256 212.81 256.48C213.204 256.693 213.658 256.8 214.17 256.8C214.596 256.8 214.986 256.725 215.338 256.576C215.7 256.427 216.01 256.203 216.266 255.904L217.194 256.848C216.831 257.275 216.383 257.6 215.85 257.824C215.327 258.048 214.767 258.16 214.17 258.16ZM224.604 258V253.568C224.604 252.992 224.423 252.517 224.06 252.144C223.697 251.771 223.228 251.584 222.652 251.584C222.268 251.584 221.927 251.669 221.628 251.84C221.329 252.011 221.095 252.245 220.924 252.544C220.753 252.843 220.668 253.184 220.668 253.568L220.076 253.232C220.076 252.656 220.204 252.144 220.46 251.696C220.716 251.248 221.073 250.896 221.532 250.64C221.991 250.373 222.508 250.24 223.084 250.24C223.66 250.24 224.167 250.384 224.604 250.672C225.052 250.96 225.404 251.339 225.66 251.808C225.916 252.267 226.044 252.757 226.044 253.28V258H224.604ZM219.228 258V250.4H220.668V258H219.228ZM229.068 258V247.216H230.508V258H229.068ZM227.196 251.712V250.4H232.38V251.712H227.196ZM240.335 258.16C239.631 258.16 239.001 257.989 238.447 257.648C237.892 257.296 237.449 256.821 237.118 256.224C236.799 255.627 236.639 254.955 236.639 254.208C236.639 253.461 236.799 252.789 237.118 252.192C237.449 251.595 237.892 251.12 238.447 250.768C239.001 250.416 239.631 250.24 240.335 250.24C240.9 250.24 241.412 250.363 241.871 250.608C242.329 250.843 242.697 251.173 242.975 251.6C243.263 252.016 243.423 252.501 243.455 253.056V255.344C243.423 255.888 243.268 256.373 242.991 256.8C242.713 257.227 242.345 257.563 241.887 257.808C241.428 258.043 240.911 258.16 240.335 258.16ZM240.575 256.8C241.055 256.8 241.471 256.688 241.823 256.464C242.185 256.24 242.468 255.936 242.671 255.552C242.873 255.157 242.975 254.709 242.975 254.208C242.975 253.685 242.868 253.232 242.655 252.848C242.452 252.464 242.169 252.16 241.807 251.936C241.455 251.712 241.039 251.6 240.559 251.6C240.079 251.6 239.657 251.712 239.295 251.936C238.932 252.16 238.644 252.469 238.431 252.864C238.228 253.248 238.127 253.691 238.127 254.192C238.127 254.704 238.228 255.157 238.431 255.552C238.644 255.936 238.932 256.24 239.295 256.464C239.668 256.688 240.095 256.8 240.575 256.8ZM244.335 258H242.879V255.952L243.151 254.096L242.879 252.256V246.576H244.335V258ZM246.447 258V250.4H247.887V258H246.447ZM247.167 248.88C246.9 248.88 246.682 248.795 246.511 248.624C246.34 248.443 246.255 248.219 246.255 247.952C246.255 247.696 246.34 247.483 246.511 247.312C246.682 247.131 246.9 247.04 247.167 247.04C247.434 247.04 247.652 247.131 247.823 247.312C247.994 247.483 248.079 247.696 248.079 247.952C248.079 248.219 247.994 248.443 247.823 248.624C247.652 248.795 247.434 248.88 247.167 248.88ZM253.241 258.16C252.548 258.16 251.918 257.989 251.353 257.648C250.788 257.296 250.34 256.821 250.009 256.224C249.689 255.627 249.529 254.955 249.529 254.208C249.529 253.461 249.689 252.789 250.009 252.192C250.34 251.595 250.782 251.12 251.337 250.768C251.902 250.416 252.537 250.24 253.241 250.24C253.817 250.24 254.329 250.363 254.777 250.608C255.236 250.843 255.604 251.173 255.881 251.6C256.158 252.016 256.313 252.501 256.345 253.056V255.344C256.313 255.888 256.158 256.373 255.881 256.8C255.614 257.227 255.252 257.563 254.793 257.808C254.345 258.043 253.828 258.16 253.241 258.16ZM253.481 256.8C254.196 256.8 254.772 256.56 255.209 256.08C255.646 255.589 255.865 254.965 255.865 254.208C255.865 253.685 255.764 253.232 255.561 252.848C255.369 252.453 255.092 252.149 254.729 251.936C254.366 251.712 253.945 251.6 253.465 251.6C252.985 251.6 252.558 251.712 252.185 251.936C251.822 252.16 251.534 252.469 251.321 252.864C251.118 253.248 251.017 253.691 251.017 254.192C251.017 254.704 251.118 255.157 251.321 255.552C251.534 255.936 251.828 256.24 252.201 256.464C252.574 256.688 253.001 256.8 253.481 256.8ZM255.769 258V255.952L256.041 254.096L255.769 252.256V250.4H257.225V258H255.769ZM259.322 258V250.4H260.762V258H259.322ZM264.458 258V253.408C264.458 252.843 264.282 252.4 263.93 252.08C263.588 251.749 263.156 251.584 262.634 251.584C262.282 251.584 261.967 251.659 261.69 251.808C261.412 251.957 261.188 252.165 261.018 252.432C260.847 252.699 260.762 253.019 260.762 253.392L260.17 253.104C260.17 252.528 260.292 252.027 260.538 251.6C260.794 251.173 261.14 250.843 261.578 250.608C262.015 250.363 262.506 250.24 263.05 250.24C263.583 250.24 264.063 250.357 264.49 250.592C264.927 250.827 265.268 251.157 265.514 251.584C265.77 252.011 265.898 252.517 265.898 253.104V258H264.458ZM269.594 258V253.408C269.594 252.843 269.418 252.4 269.066 252.08C268.724 251.749 268.298 251.584 267.786 251.584C267.434 251.584 267.114 251.659 266.826 251.808C266.548 251.957 266.324 252.165 266.154 252.432C265.983 252.699 265.898 253.019 265.898 253.392L265.082 253.104C265.114 252.517 265.268 252.016 265.546 251.6C265.834 251.173 266.202 250.843 266.65 250.608C267.098 250.363 267.588 250.24 268.122 250.24C268.676 250.24 269.172 250.357 269.61 250.592C270.047 250.827 270.394 251.157 270.65 251.584C270.916 252.011 271.05 252.523 271.05 253.12V258H269.594ZM280.337 258.16C279.761 258.16 279.239 258.043 278.769 257.808C278.311 257.563 277.943 257.227 277.665 256.8C277.388 256.373 277.233 255.888 277.201 255.344V253.056C277.233 252.501 277.388 252.016 277.665 251.6C277.953 251.173 278.327 250.843 278.785 250.608C279.255 250.363 279.772 250.24 280.337 250.24C281.031 250.24 281.655 250.416 282.209 250.768C282.775 251.12 283.217 251.595 283.537 252.192C283.857 252.789 284.017 253.461 284.017 254.208C284.017 254.955 283.857 255.627 283.537 256.224C283.217 256.821 282.775 257.296 282.209 257.648C281.655 257.989 281.031 258.16 280.337 258.16ZM280.097 256.8C280.577 256.8 280.999 256.688 281.361 256.464C281.724 256.24 282.012 255.936 282.225 255.552C282.439 255.157 282.545 254.704 282.545 254.192C282.545 253.691 282.439 253.243 282.225 252.848C282.012 252.453 281.724 252.149 281.361 251.936C280.999 251.712 280.583 251.6 280.113 251.6C279.633 251.6 279.212 251.712 278.849 251.936C278.487 252.149 278.204 252.453 278.001 252.848C277.799 253.243 277.697 253.696 277.697 254.208C277.697 254.709 277.793 255.157 277.985 255.552C278.188 255.936 278.471 256.24 278.833 256.464C279.207 256.688 279.628 256.8 280.097 256.8ZM276.337 261.184V250.4H277.777V252.4L277.505 254.24L277.777 256.096V261.184H276.337ZM285.65 258V246.576H287.09V258H285.65ZM292.429 258.16C291.735 258.16 291.106 257.989 290.541 257.648C289.975 257.296 289.527 256.821 289.197 256.224C288.877 255.627 288.717 254.955 288.717 254.208C288.717 253.461 288.877 252.789 289.197 252.192C289.527 251.595 289.97 251.12 290.525 250.768C291.09 250.416 291.725 250.24 292.429 250.24C293.005 250.24 293.517 250.363 293.965 250.608C294.423 250.843 294.791 251.173 295.069 251.6C295.346 252.016 295.501 252.501 295.533 253.056V255.344C295.501 255.888 295.346 256.373 295.069 256.8C294.802 257.227 294.439 257.563 293.981 257.808C293.533 258.043 293.015 258.16 292.429 258.16ZM292.669 256.8C293.383 256.8 293.959 256.56 294.397 256.08C294.834 255.589 295.053 254.965 295.053 254.208C295.053 253.685 294.951 253.232 294.749 252.848C294.557 252.453 294.279 252.149 293.917 251.936C293.554 251.712 293.133 251.6 292.653 251.6C292.173 251.6 291.746 251.712 291.373 251.936C291.01 252.16 290.722 252.469 290.509 252.864C290.306 253.248 290.205 253.691 290.205 254.192C290.205 254.704 290.306 255.157 290.509 255.552C290.722 255.936 291.015 256.24 291.389 256.464C291.762 256.688 292.189 256.8 292.669 256.8ZM294.957 258V255.952L295.229 254.096L294.957 252.256V250.4H296.413V258H294.957ZM301.981 258.16C301.234 258.16 300.557 257.984 299.949 257.632C299.352 257.28 298.877 256.805 298.525 256.208C298.184 255.6 298.013 254.928 298.013 254.192C298.013 253.445 298.184 252.773 298.525 252.176C298.877 251.579 299.352 251.109 299.949 250.768C300.557 250.416 301.234 250.24 301.981 250.24C302.568 250.24 303.112 250.352 303.613 250.576C304.114 250.789 304.546 251.104 304.909 251.52L303.949 252.48C303.714 252.203 303.426 251.995 303.085 251.856C302.754 251.707 302.386 251.632 301.981 251.632C301.501 251.632 301.074 251.744 300.701 251.968C300.328 252.181 300.034 252.48 299.821 252.864C299.608 253.248 299.501 253.691 299.501 254.192C299.501 254.693 299.608 255.136 299.821 255.52C300.034 255.904 300.328 256.208 300.701 256.432C301.074 256.656 301.501 256.768 301.981 256.768C302.386 256.768 302.754 256.699 303.085 256.56C303.426 256.411 303.72 256.197 303.965 255.92L304.909 256.88C304.557 257.285 304.125 257.6 303.613 257.824C303.112 258.048 302.568 258.16 301.981 258.16ZM309.717 258.16C308.959 258.16 308.277 257.989 307.669 257.648C307.061 257.296 306.581 256.821 306.229 256.224C305.877 255.627 305.701 254.949 305.701 254.192C305.701 253.445 305.871 252.773 306.213 252.176C306.565 251.579 307.034 251.109 307.621 250.768C308.218 250.416 308.885 250.24 309.621 250.24C310.325 250.24 310.943 250.4 311.477 250.72C312.021 251.04 312.442 251.483 312.741 252.048C313.05 252.613 313.205 253.253 313.205 253.968C313.205 254.075 313.199 254.192 313.189 254.32C313.178 254.437 313.157 254.576 313.125 254.736H306.709V253.536H312.357L311.829 254C311.829 253.488 311.738 253.056 311.557 252.704C311.375 252.341 311.119 252.064 310.789 251.872C310.458 251.669 310.058 251.568 309.589 251.568C309.098 251.568 308.666 251.675 308.293 251.888C307.919 252.101 307.631 252.4 307.429 252.784C307.226 253.168 307.125 253.621 307.125 254.144C307.125 254.677 307.231 255.147 307.445 255.552C307.658 255.947 307.962 256.256 308.357 256.48C308.751 256.693 309.205 256.8 309.717 256.8C310.143 256.8 310.533 256.725 310.885 256.576C311.247 256.427 311.557 256.203 311.813 255.904L312.741 256.848C312.378 257.275 311.93 257.6 311.397 257.824C310.874 258.048 310.314 258.16 309.717 258.16ZM314.775 258V250.4H316.215V258H314.775ZM316.215 253.664L315.671 253.424C315.671 252.453 315.895 251.68 316.343 251.104C316.791 250.528 317.436 250.24 318.279 250.24C318.663 250.24 319.009 250.309 319.319 250.448C319.628 250.576 319.916 250.795 320.183 251.104L319.239 252.08C319.079 251.909 318.903 251.787 318.711 251.712C318.519 251.637 318.295 251.6 318.039 251.6C317.505 251.6 317.068 251.771 316.727 252.112C316.385 252.453 316.215 252.971 316.215 253.664ZM324.179 258.16C323.485 258.16 322.856 257.989 322.291 257.648C321.725 257.296 321.277 256.821 320.947 256.224C320.627 255.627 320.467 254.955 320.467 254.208C320.467 253.461 320.627 252.789 320.947 252.192C321.277 251.595 321.72 251.12 322.275 250.768C322.84 250.416 323.475 250.24 324.179 250.24C324.755 250.24 325.267 250.363 325.715 250.608C326.173 250.843 326.541 251.173 326.819 251.6C327.096 252.016 327.251 252.501 327.283 253.056V255.344C327.251 255.888 327.096 256.373 326.819 256.8C326.552 257.227 326.189 257.563 325.731 257.808C325.283 258.043 324.765 258.16 324.179 258.16ZM324.419 256.8C325.133 256.8 325.709 256.56 326.147 256.08C326.584 255.589 326.803 254.965 326.803 254.208C326.803 253.685 326.701 253.232 326.499 252.848C326.307 252.453 326.029 252.149 325.667 251.936C325.304 251.712 324.883 251.6 324.403 251.6C323.923 251.6 323.496 251.712 323.123 251.936C322.76 252.16 322.472 252.469 322.259 252.864C322.056 253.248 321.955 253.691 321.955 254.192C321.955 254.704 322.056 255.157 322.259 255.552C322.472 255.936 322.765 256.24 323.139 256.464C323.512 256.688 323.939 256.8 324.419 256.8ZM326.707 258V255.952L326.979 254.096L326.707 252.256V250.4H328.163V258H326.707ZM331.396 258V247.216H332.836V258H331.396ZM329.524 251.712V250.4H334.708V251.712H329.524ZM164.029 282.16C163.272 282.16 162.589 281.989 161.981 281.648C161.373 281.296 160.893 280.821 160.541 280.224C160.189 279.627 160.013 278.949 160.013 278.192C160.013 277.445 160.184 276.773 160.525 276.176C160.877 275.579 161.346 275.109 161.933 274.768C162.53 274.416 163.197 274.24 163.933 274.24C164.637 274.24 165.256 274.4 165.789 274.72C166.333 275.04 166.754 275.483 167.053 276.048C167.362 276.613 167.517 277.253 167.517 277.968C167.517 278.075 167.512 278.192 167.501 278.32C167.49 278.437 167.469 278.576 167.437 278.736H161.021V277.536H166.669L166.141 278C166.141 277.488 166.05 277.056 165.869 276.704C165.688 276.341 165.432 276.064 165.101 275.872C164.77 275.669 164.37 275.568 163.901 275.568C163.41 275.568 162.978 275.675 162.605 275.888C162.232 276.101 161.944 276.4 161.741 276.784C161.538 277.168 161.437 277.621 161.437 278.144C161.437 278.677 161.544 279.147 161.757 279.552C161.97 279.947 162.274 280.256 162.669 280.48C163.064 280.693 163.517 280.8 164.029 280.8C164.456 280.8 164.845 280.725 165.197 280.576C165.56 280.427 165.869 280.203 166.125 279.904L167.053 280.848C166.69 281.275 166.242 281.6 165.709 281.824C165.186 282.048 164.626 282.16 164.029 282.16ZM169.087 282V270.576H170.527V282H169.087ZM176.154 282.16C175.397 282.16 174.714 281.989 174.106 281.648C173.498 281.296 173.018 280.821 172.666 280.224C172.314 279.627 172.138 278.949 172.138 278.192C172.138 277.445 172.309 276.773 172.65 276.176C173.002 275.579 173.471 275.109 174.058 274.768C174.655 274.416 175.322 274.24 176.058 274.24C176.762 274.24 177.381 274.4 177.914 274.72C178.458 275.04 178.879 275.483 179.178 276.048C179.487 276.613 179.642 277.253 179.642 277.968C179.642 278.075 179.637 278.192 179.626 278.32C179.615 278.437 179.594 278.576 179.562 278.736H173.146V277.536H178.794L178.266 278C178.266 277.488 178.175 277.056 177.994 276.704C177.813 276.341 177.557 276.064 177.226 275.872C176.895 275.669 176.495 275.568 176.026 275.568C175.535 275.568 175.103 275.675 174.73 275.888C174.357 276.101 174.069 276.4 173.866 276.784C173.663 277.168 173.562 277.621 173.562 278.144C173.562 278.677 173.669 279.147 173.882 279.552C174.095 279.947 174.399 280.256 174.794 280.48C175.189 280.693 175.642 280.8 176.154 280.8C176.581 280.8 176.97 280.725 177.322 280.576C177.685 280.427 177.994 280.203 178.25 279.904L179.178 280.848C178.815 281.275 178.367 281.6 177.834 281.824C177.311 282.048 176.751 282.16 176.154 282.16ZM181.212 282V274.4H182.652V282H181.212ZM186.348 282V277.408C186.348 276.843 186.172 276.4 185.82 276.08C185.479 275.749 185.047 275.584 184.524 275.584C184.172 275.584 183.858 275.659 183.58 275.808C183.303 275.957 183.079 276.165 182.908 276.432C182.738 276.699 182.652 277.019 182.652 277.392L182.06 277.104C182.06 276.528 182.183 276.027 182.428 275.6C182.684 275.173 183.031 274.843 183.468 274.608C183.906 274.363 184.396 274.24 184.94 274.24C185.474 274.24 185.954 274.357 186.38 274.592C186.818 274.827 187.159 275.157 187.404 275.584C187.66 276.011 187.788 276.517 187.788 277.104V282H186.348ZM191.484 282V277.408C191.484 276.843 191.308 276.4 190.956 276.08C190.615 275.749 190.188 275.584 189.676 275.584C189.324 275.584 189.004 275.659 188.716 275.808C188.439 275.957 188.215 276.165 188.044 276.432C187.874 276.699 187.788 277.019 187.788 277.392L186.972 277.104C187.004 276.517 187.159 276.016 187.436 275.6C187.724 275.173 188.092 274.843 188.54 274.608C188.988 274.363 189.479 274.24 190.012 274.24C190.567 274.24 191.063 274.357 191.5 274.592C191.938 274.827 192.284 275.157 192.54 275.584C192.807 276.011 192.94 276.523 192.94 277.12V282H191.484ZM198.42 282.16C197.662 282.16 196.98 281.989 196.372 281.648C195.764 281.296 195.284 280.821 194.932 280.224C194.58 279.627 194.404 278.949 194.404 278.192C194.404 277.445 194.574 276.773 194.916 276.176C195.268 275.579 195.737 275.109 196.324 274.768C196.921 274.416 197.588 274.24 198.324 274.24C199.028 274.24 199.646 274.4 200.18 274.72C200.724 275.04 201.145 275.483 201.444 276.048C201.753 276.613 201.908 277.253 201.908 277.968C201.908 278.075 201.902 278.192 201.892 278.32C201.881 278.437 201.86 278.576 201.828 278.736H195.412V277.536H201.06L200.532 278C200.532 277.488 200.441 277.056 200.26 276.704C200.078 276.341 199.822 276.064 199.492 275.872C199.161 275.669 198.761 275.568 198.292 275.568C197.801 275.568 197.369 275.675 196.996 275.888C196.622 276.101 196.334 276.4 196.132 276.784C195.929 277.168 195.828 277.621 195.828 278.144C195.828 278.677 195.934 279.147 196.148 279.552C196.361 279.947 196.665 280.256 197.06 280.48C197.454 280.693 197.908 280.8 198.42 280.8C198.846 280.8 199.236 280.725 199.588 280.576C199.95 280.427 200.26 280.203 200.516 279.904L201.444 280.848C201.081 281.275 200.633 281.6 200.1 281.824C199.577 282.048 199.017 282.16 198.42 282.16ZM208.854 282V277.568C208.854 276.992 208.673 276.517 208.31 276.144C207.947 275.771 207.478 275.584 206.902 275.584C206.518 275.584 206.177 275.669 205.878 275.84C205.579 276.011 205.345 276.245 205.174 276.544C205.003 276.843 204.918 277.184 204.918 277.568L204.326 277.232C204.326 276.656 204.454 276.144 204.71 275.696C204.966 275.248 205.323 274.896 205.782 274.64C206.241 274.373 206.758 274.24 207.334 274.24C207.91 274.24 208.417 274.384 208.854 274.672C209.302 274.96 209.654 275.339 209.91 275.808C210.166 276.267 210.294 276.757 210.294 277.28V282H208.854ZM203.478 282V274.4H204.918V282H203.478ZM213.318 282V271.216H214.758V282H213.318ZM211.446 275.712V274.4H216.63V275.712H211.446ZM221.112 282.16C220.483 282.16 219.918 282.021 219.416 281.744C218.926 281.456 218.542 281.061 218.264 280.56C217.987 280.059 217.848 279.477 217.848 278.816V274.4H219.288V278.752C219.288 279.168 219.358 279.531 219.496 279.84C219.646 280.139 219.859 280.368 220.136 280.528C220.414 280.688 220.739 280.768 221.112 280.768C221.678 280.768 222.12 280.592 222.44 280.24C222.76 279.877 222.92 279.381 222.92 278.752V274.4H224.36V278.816C224.36 279.477 224.222 280.059 223.944 280.56C223.667 281.061 223.283 281.456 222.792 281.744C222.312 282.021 221.752 282.16 221.112 282.16ZM226.29 282V274.4H227.73V282H226.29ZM231.426 282V277.408C231.426 276.843 231.25 276.4 230.898 276.08C230.557 275.749 230.125 275.584 229.602 275.584C229.25 275.584 228.936 275.659 228.658 275.808C228.381 275.957 228.157 276.165 227.986 276.432C227.816 276.699 227.73 277.019 227.73 277.392L227.138 277.104C227.138 276.528 227.261 276.027 227.506 275.6C227.762 275.173 228.109 274.843 228.546 274.608C228.984 274.363 229.474 274.24 230.018 274.24C230.552 274.24 231.032 274.357 231.458 274.592C231.896 274.827 232.237 275.157 232.482 275.584C232.738 276.011 232.866 276.517 232.866 277.104V282H231.426ZM236.562 282V277.408C236.562 276.843 236.386 276.4 236.034 276.08C235.693 275.749 235.266 275.584 234.754 275.584C234.402 275.584 234.082 275.659 233.794 275.808C233.517 275.957 233.293 276.165 233.122 276.432C232.952 276.699 232.866 277.019 232.866 277.392L232.05 277.104C232.082 276.517 232.237 276.016 232.514 275.6C232.802 275.173 233.17 274.843 233.618 274.608C234.066 274.363 234.557 274.24 235.09 274.24C235.645 274.24 236.141 274.357 236.578 274.592C237.016 274.827 237.362 275.157 237.618 275.584C237.885 276.011 238.018 276.523 238.018 277.12V282H236.562ZM245.914 282L242.426 274.4H244.026L246.826 280.816H245.898L248.714 274.4H250.25L246.762 282H245.914ZM251.494 282V274.4H252.934V282H251.494ZM252.214 272.88C251.947 272.88 251.729 272.795 251.558 272.624C251.387 272.443 251.302 272.219 251.302 271.952C251.302 271.696 251.387 271.483 251.558 271.312C251.729 271.131 251.947 271.04 252.214 271.04C252.481 271.04 252.699 271.131 252.87 271.312C253.041 271.483 253.126 271.696 253.126 271.952C253.126 272.219 253.041 272.443 252.87 272.624C252.699 272.795 252.481 272.88 252.214 272.88ZM256.224 282V271.216H257.664V282H256.224ZM254.352 275.712V274.4H259.536V275.712H254.352ZM263.944 282.16C263.251 282.16 262.622 281.989 262.056 281.648C261.491 281.296 261.043 280.821 260.712 280.224C260.392 279.627 260.232 278.955 260.232 278.208C260.232 277.461 260.392 276.789 260.712 276.192C261.043 275.595 261.486 275.12 262.04 274.768C262.606 274.416 263.24 274.24 263.944 274.24C264.52 274.24 265.032 274.363 265.48 274.608C265.939 274.843 266.307 275.173 266.584 275.6C266.862 276.016 267.016 276.501 267.048 277.056V279.344C267.016 279.888 266.862 280.373 266.584 280.8C266.318 281.227 265.955 281.563 265.496 281.808C265.048 282.043 264.531 282.16 263.944 282.16ZM264.184 280.8C264.899 280.8 265.475 280.56 265.912 280.08C266.35 279.589 266.568 278.965 266.568 278.208C266.568 277.685 266.467 277.232 266.264 276.848C266.072 276.453 265.795 276.149 265.432 275.936C265.07 275.712 264.648 275.6 264.168 275.6C263.688 275.6 263.262 275.712 262.888 275.936C262.526 276.16 262.238 276.469 262.024 276.864C261.822 277.248 261.72 277.691 261.72 278.192C261.72 278.704 261.822 279.157 262.024 279.552C262.238 279.936 262.531 280.24 262.904 280.464C263.278 280.688 263.704 280.8 264.184 280.8ZM266.472 282V279.952L266.744 278.096L266.472 276.256V274.4H267.928V282H266.472ZM273.545 282.16C272.787 282.16 272.105 281.989 271.497 281.648C270.889 281.296 270.409 280.821 270.057 280.224C269.705 279.627 269.529 278.949 269.529 278.192C269.529 277.445 269.699 276.773 270.041 276.176C270.393 275.579 270.862 275.109 271.449 274.768C272.046 274.416 272.713 274.24 273.449 274.24C274.153 274.24 274.771 274.4 275.305 274.72C275.849 275.04 276.27 275.483 276.569 276.048C276.878 276.613 277.033 277.253 277.033 277.968C277.033 278.075 277.027 278.192 277.017 278.32C277.006 278.437 276.985 278.576 276.953 278.736H270.537V277.536H276.185L275.657 278C275.657 277.488 275.566 277.056 275.385 276.704C275.203 276.341 274.947 276.064 274.617 275.872C274.286 275.669 273.886 275.568 273.417 275.568C272.926 275.568 272.494 275.675 272.121 275.888C271.747 276.101 271.459 276.4 271.257 276.784C271.054 277.168 270.953 277.621 270.953 278.144C270.953 278.677 271.059 279.147 271.273 279.552C271.486 279.947 271.79 280.256 272.185 280.48C272.579 280.693 273.033 280.8 273.545 280.8C273.971 280.8 274.361 280.725 274.713 280.576C275.075 280.427 275.385 280.203 275.641 279.904L276.569 280.848C276.206 281.275 275.758 281.6 275.225 281.824C274.702 282.048 274.142 282.16 273.545 282.16Z" fill="white"/>
<path d="M113.321 183V179.584H117.969C118.827 179.584 119.499 179.332 119.985 178.828C120.47 178.324 120.713 177.708 120.713 176.98C120.713 176.476 120.601 176.028 120.377 175.636C120.153 175.244 119.835 174.936 119.425 174.712C119.033 174.488 118.547 174.376 117.969 174.376H113.321V171.044H117.605C118.333 171.044 118.921 170.867 119.369 170.512C119.817 170.139 120.041 169.579 120.041 168.832C120.041 168.104 119.817 167.563 119.369 167.208C118.921 166.835 118.333 166.648 117.605 166.648H113.321V163.232H118.445C119.714 163.232 120.787 163.465 121.665 163.932C122.561 164.399 123.242 165.024 123.709 165.808C124.175 166.592 124.409 167.46 124.409 168.412C124.409 169.625 124.017 170.652 123.233 171.492C122.449 172.332 121.291 172.911 119.761 173.228L119.873 171.744C121.534 172.061 122.813 172.705 123.709 173.676C124.623 174.647 125.081 175.841 125.081 177.26C125.081 178.343 124.81 179.323 124.269 180.2C123.746 181.059 122.981 181.74 121.973 182.244C120.983 182.748 119.789 183 118.389 183H113.321ZM109.961 183V163.232H114.301V183H109.961ZM133.19 183.28C131.939 183.28 130.819 182.972 129.83 182.356C128.859 181.74 128.085 180.9 127.506 179.836C126.946 178.772 126.666 177.559 126.666 176.196C126.666 174.833 126.946 173.62 127.506 172.556C128.085 171.492 128.859 170.652 129.83 170.036C130.819 169.42 131.939 169.112 133.19 169.112C134.105 169.112 134.926 169.289 135.654 169.644C136.401 169.999 137.007 170.493 137.474 171.128C137.941 171.744 138.202 172.453 138.258 173.256V179.136C138.202 179.939 137.941 180.657 137.474 181.292C137.026 181.908 136.429 182.393 135.682 182.748C134.935 183.103 134.105 183.28 133.19 183.28ZM134.058 179.416C134.973 179.416 135.71 179.117 136.27 178.52C136.83 177.904 137.11 177.129 137.11 176.196C137.11 175.561 136.979 175.001 136.718 174.516C136.475 174.031 136.121 173.657 135.654 173.396C135.206 173.116 134.683 172.976 134.086 172.976C133.489 172.976 132.957 173.116 132.49 173.396C132.042 173.657 131.678 174.031 131.398 174.516C131.137 175.001 131.006 175.561 131.006 176.196C131.006 176.812 131.137 177.363 131.398 177.848C131.659 178.333 132.023 178.716 132.49 178.996C132.957 179.276 133.479 179.416 134.058 179.416ZM136.942 183V179.332L137.586 176.028L136.942 172.724V169.392H141.142V183H136.942ZM153.146 183V175.244C153.146 174.535 152.922 173.965 152.474 173.536C152.045 173.088 151.494 172.864 150.822 172.864C150.356 172.864 149.945 172.967 149.59 173.172C149.236 173.359 148.956 173.639 148.75 174.012C148.545 174.367 148.442 174.777 148.442 175.244L146.79 174.432C146.79 173.368 147.024 172.435 147.49 171.632C147.957 170.829 148.601 170.213 149.422 169.784C150.262 169.336 151.205 169.112 152.25 169.112C153.258 169.112 154.145 169.355 154.91 169.84C155.694 170.307 156.31 170.932 156.758 171.716C157.206 172.5 157.43 173.359 157.43 174.292V183H153.146ZM144.158 183V169.392H148.442V183H144.158ZM168.89 183L164.13 175.944L168.862 169.392H173.65L167.938 176.756L168.078 174.992L173.93 183H168.89ZM160.182 183V162.672H164.466V183H160.182ZM181.191 183V163.232H185.587V183H181.191ZM197.99 183V175.244C197.99 174.535 197.766 173.965 197.318 173.536C196.889 173.088 196.338 172.864 195.666 172.864C195.2 172.864 194.789 172.967 194.434 173.172C194.08 173.359 193.8 173.639 193.594 174.012C193.389 174.367 193.286 174.777 193.286 175.244L191.634 174.432C191.634 173.368 191.868 172.435 192.334 171.632C192.801 170.829 193.445 170.213 194.266 169.784C195.106 169.336 196.049 169.112 197.094 169.112C198.102 169.112 198.989 169.355 199.754 169.84C200.538 170.307 201.154 170.932 201.602 171.716C202.05 172.5 202.274 173.359 202.274 174.292V183H197.99ZM189.002 183V169.392H193.286V183H189.002ZM209.982 183.336C209.179 183.336 208.386 183.233 207.602 183.028C206.836 182.823 206.118 182.533 205.446 182.16C204.792 181.768 204.232 181.32 203.766 180.816L206.202 178.352C206.65 178.837 207.182 179.22 207.798 179.5C208.414 179.761 209.086 179.892 209.814 179.892C210.318 179.892 210.7 179.817 210.962 179.668C211.242 179.519 211.382 179.313 211.382 179.052C211.382 178.716 211.214 178.464 210.878 178.296C210.56 178.109 210.15 177.951 209.646 177.82C209.142 177.671 208.61 177.512 208.05 177.344C207.49 177.176 206.958 176.943 206.454 176.644C205.95 176.345 205.539 175.935 205.222 175.412C204.904 174.871 204.746 174.189 204.746 173.368C204.746 172.491 204.97 171.735 205.418 171.1C205.866 170.447 206.5 169.933 207.322 169.56C208.143 169.187 209.104 169 210.206 169C211.363 169 212.427 169.205 213.398 169.616C214.387 170.008 215.19 170.596 215.806 171.38L213.37 173.844C212.94 173.34 212.455 172.985 211.914 172.78C211.391 172.575 210.878 172.472 210.374 172.472C209.888 172.472 209.524 172.547 209.282 172.696C209.039 172.827 208.918 173.023 208.918 173.284C208.918 173.564 209.076 173.788 209.394 173.956C209.711 174.124 210.122 174.273 210.626 174.404C211.13 174.535 211.662 174.693 212.222 174.88C212.782 175.067 213.314 175.319 213.818 175.636C214.322 175.953 214.732 176.383 215.05 176.924C215.367 177.447 215.526 178.137 215.526 178.996C215.526 180.321 215.022 181.376 214.014 182.16C213.024 182.944 211.68 183.336 209.982 183.336ZM219.782 183V163.764H224.066V183H219.782ZM216.702 173.032V169.392H227.146V173.032H216.702ZM229.033 183V169.392H233.317V183H229.033ZM233.317 175.524L231.525 174.124C231.88 172.537 232.477 171.305 233.317 170.428C234.157 169.551 235.324 169.112 236.817 169.112C237.471 169.112 238.04 169.215 238.525 169.42C239.029 169.607 239.468 169.905 239.841 170.316L237.293 173.536C237.107 173.331 236.873 173.172 236.593 173.06C236.313 172.948 235.996 172.892 235.641 172.892C234.932 172.892 234.363 173.116 233.933 173.564C233.523 173.993 233.317 174.647 233.317 175.524ZM247.031 183.308C245.78 183.308 244.669 183.056 243.699 182.552C242.747 182.029 242 181.32 241.459 180.424C240.917 179.509 240.647 178.464 240.647 177.288V169.392H244.931V177.232C244.931 177.699 245.005 178.1 245.155 178.436C245.323 178.772 245.565 179.033 245.883 179.22C246.2 179.407 246.583 179.5 247.031 179.5C247.665 179.5 248.169 179.304 248.543 178.912C248.916 178.501 249.103 177.941 249.103 177.232V169.392H253.387V177.26C253.387 178.455 253.116 179.509 252.575 180.424C252.033 181.32 251.287 182.029 250.335 182.552C249.383 183.056 248.281 183.308 247.031 183.308ZM256.076 183V169.392H260.36V183H256.076ZM264.784 183V175.048C264.784 174.357 264.57 173.825 264.14 173.452C263.73 173.06 263.216 172.864 262.6 172.864C262.171 172.864 261.788 172.957 261.452 173.144C261.116 173.312 260.846 173.555 260.64 173.872C260.454 174.189 260.36 174.581 260.36 175.048L258.708 174.32C258.708 173.237 258.942 172.313 259.408 171.548C259.875 170.764 260.51 170.167 261.312 169.756C262.115 169.327 263.02 169.112 264.028 169.112C264.98 169.112 265.83 169.327 266.576 169.756C267.342 170.185 267.948 170.783 268.396 171.548C268.844 172.313 269.068 173.228 269.068 174.292V183H264.784ZM273.492 183V175.048C273.492 174.357 273.278 173.825 272.848 173.452C272.438 173.06 271.924 172.864 271.308 172.864C270.879 172.864 270.496 172.957 270.16 173.144C269.824 173.312 269.554 173.555 269.348 173.872C269.162 174.189 269.068 174.581 269.068 175.048L266.604 174.712C266.642 173.555 266.912 172.565 267.416 171.744C267.939 170.904 268.62 170.26 269.46 169.812C270.319 169.345 271.28 169.112 272.344 169.112C273.39 169.112 274.314 169.336 275.116 169.784C275.938 170.213 276.582 170.839 277.048 171.66C277.534 172.463 277.776 173.433 277.776 174.572V183H273.492ZM287.242 183.308C285.767 183.308 284.451 183.009 283.294 182.412C282.155 181.796 281.259 180.947 280.606 179.864C279.952 178.781 279.626 177.559 279.626 176.196C279.626 174.833 279.943 173.62 280.578 172.556C281.231 171.473 282.108 170.624 283.21 170.008C284.311 169.392 285.552 169.084 286.934 169.084C288.278 169.084 289.463 169.373 290.49 169.952C291.516 170.531 292.319 171.333 292.898 172.36C293.495 173.387 293.794 174.563 293.794 175.888C293.794 176.131 293.775 176.392 293.738 176.672C293.719 176.933 293.672 177.241 293.598 177.596L281.866 177.624V174.684L291.778 174.656L289.93 175.888C289.911 175.104 289.79 174.46 289.566 173.956C289.342 173.433 289.006 173.041 288.558 172.78C288.128 172.5 287.596 172.36 286.962 172.36C286.29 172.36 285.702 172.519 285.198 172.836C284.712 173.135 284.33 173.564 284.05 174.124C283.788 174.684 283.658 175.365 283.658 176.168C283.658 176.971 283.798 177.661 284.078 178.24C284.376 178.8 284.787 179.239 285.31 179.556C285.851 179.855 286.486 180.004 287.214 180.004C287.886 180.004 288.492 179.892 289.034 179.668C289.575 179.425 290.051 179.071 290.462 178.604L292.814 180.956C292.142 181.74 291.33 182.328 290.378 182.72C289.426 183.112 288.38 183.308 287.242 183.308ZM304.85 183V175.244C304.85 174.535 304.626 173.965 304.178 173.536C303.748 173.088 303.198 172.864 302.526 172.864C302.059 172.864 301.648 172.967 301.294 173.172C300.939 173.359 300.659 173.639 300.454 174.012C300.248 174.367 300.146 174.777 300.146 175.244L298.494 174.432C298.494 173.368 298.727 172.435 299.194 171.632C299.66 170.829 300.304 170.213 301.126 169.784C301.966 169.336 302.908 169.112 303.954 169.112C304.962 169.112 305.848 169.355 306.614 169.84C307.398 170.307 308.014 170.932 308.462 171.716C308.91 172.5 309.134 173.359 309.134 174.292V183H304.85ZM295.862 183V169.392H300.146V183H295.862ZM313.653 183V163.764H317.937V183H313.653ZM310.573 173.032V169.392H321.017V173.032H310.573ZM327.587 183.336C326.784 183.336 325.991 183.233 325.207 183.028C324.442 182.823 323.723 182.533 323.051 182.16C322.398 181.768 321.838 181.32 321.371 180.816L323.807 178.352C324.255 178.837 324.787 179.22 325.403 179.5C326.019 179.761 326.691 179.892 327.419 179.892C327.923 179.892 328.306 179.817 328.567 179.668C328.847 179.519 328.987 179.313 328.987 179.052C328.987 178.716 328.819 178.464 328.483 178.296C328.166 178.109 327.755 177.951 327.251 177.82C326.747 177.671 326.215 177.512 325.655 177.344C325.095 177.176 324.563 176.943 324.059 176.644C323.555 176.345 323.144 175.935 322.827 175.412C322.51 174.871 322.351 174.189 322.351 173.368C322.351 172.491 322.575 171.735 323.023 171.1C323.471 170.447 324.106 169.933 324.927 169.56C325.748 169.187 326.71 169 327.811 169C328.968 169 330.032 169.205 331.003 169.616C331.992 170.008 332.795 170.596 333.411 171.38L330.975 173.844C330.546 173.34 330.06 172.985 329.519 172.78C328.996 172.575 328.483 172.472 327.979 172.472C327.494 172.472 327.13 172.547 326.887 172.696C326.644 172.827 326.523 173.023 326.523 173.284C326.523 173.564 326.682 173.788 326.999 173.956C327.316 174.124 327.727 174.273 328.231 174.404C328.735 174.535 329.267 174.693 329.827 174.88C330.387 175.067 330.919 175.319 331.423 175.636C331.927 175.953 332.338 176.383 332.655 176.924C332.972 177.447 333.131 178.137 333.131 178.996C333.131 180.321 332.627 181.376 331.619 182.16C330.63 182.944 329.286 183.336 327.587 183.336ZM129.571 204.032C128.963 203.509 128.446 202.88 128.019 202.144C127.593 201.408 127.267 200.603 127.043 199.728C126.819 198.853 126.707 197.936 126.707 196.976C126.707 196.016 126.819 195.099 127.043 194.224C127.267 193.349 127.593 192.544 128.019 191.808C128.446 191.072 128.963 190.443 129.571 189.92L130.915 191.216C130.233 191.877 129.71 192.693 129.347 193.664C128.985 194.635 128.803 195.739 128.803 196.976C128.803 198.203 128.985 199.307 129.347 200.288C129.71 201.259 130.233 202.08 130.915 202.752L129.571 204.032ZM134.156 202V200.048H136.812C137.303 200.048 137.687 199.904 137.964 199.616C138.242 199.328 138.38 198.976 138.38 198.56C138.38 198.272 138.316 198.016 138.188 197.792C138.06 197.568 137.879 197.392 137.644 197.264C137.42 197.136 137.143 197.072 136.812 197.072H134.156V195.168H136.604C137.02 195.168 137.356 195.067 137.612 194.864C137.868 194.651 137.996 194.331 137.996 193.904C137.996 193.488 137.868 193.179 137.612 192.976C137.356 192.763 137.02 192.656 136.604 192.656H134.156V190.704H137.084C137.81 190.704 138.423 190.837 138.924 191.104C139.436 191.371 139.826 191.728 140.092 192.176C140.359 192.624 140.492 193.12 140.492 193.664C140.492 194.357 140.268 194.944 139.82 195.424C139.372 195.904 138.711 196.235 137.836 196.416L137.9 195.568C138.85 195.749 139.58 196.117 140.092 196.672C140.615 197.227 140.876 197.909 140.876 198.72C140.876 199.339 140.722 199.899 140.412 200.4C140.114 200.891 139.676 201.28 139.1 201.568C138.535 201.856 137.852 202 137.052 202H134.156ZM132.236 202V190.704H134.716V202H132.236ZM147.814 202.176C146.993 202.176 146.22 202.027 145.494 201.728C144.78 201.429 144.156 201.019 143.622 200.496C143.089 199.963 142.668 199.344 142.358 198.64C142.06 197.925 141.91 197.157 141.91 196.336C141.91 195.515 142.065 194.752 142.374 194.048C142.684 193.344 143.11 192.731 143.654 192.208C144.209 191.675 144.854 191.264 145.59 190.976C146.326 190.677 147.116 190.528 147.958 190.528C148.929 190.528 149.809 190.704 150.598 191.056C151.398 191.408 152.06 191.893 152.582 192.512L150.87 194.224C150.508 193.755 150.081 193.403 149.59 193.168C149.1 192.933 148.545 192.816 147.926 192.816C147.265 192.816 146.673 192.965 146.15 193.264C145.628 193.552 145.217 193.963 144.918 194.496C144.63 195.019 144.486 195.632 144.486 196.336C144.486 197.04 144.63 197.659 144.918 198.192C145.206 198.725 145.601 199.141 146.102 199.44C146.604 199.739 147.18 199.888 147.83 199.888C148.492 199.888 149.052 199.765 149.51 199.52C149.98 199.264 150.337 198.901 150.582 198.432C150.838 197.952 150.966 197.371 150.966 196.688L152.63 197.808L147.59 197.728V195.6H153.526V195.968C153.526 197.323 153.281 198.464 152.79 199.392C152.31 200.309 151.638 201.003 150.774 201.472C149.921 201.941 148.934 202.176 147.814 202.176ZM157.056 202.88L160.976 189.92H163.104L159.184 202.88H157.056ZM170.675 202.176C169.747 202.176 168.947 202.027 168.275 201.728C167.614 201.419 167.006 200.955 166.451 200.336L168.083 198.72C168.446 199.136 168.846 199.461 169.283 199.696C169.731 199.92 170.249 200.032 170.835 200.032C171.369 200.032 171.779 199.936 172.067 199.744C172.366 199.552 172.515 199.285 172.515 198.944C172.515 198.635 172.419 198.384 172.227 198.192C172.035 198 171.779 197.835 171.459 197.696C171.15 197.557 170.803 197.424 170.419 197.296C170.046 197.168 169.673 197.024 169.299 196.864C168.926 196.693 168.579 196.485 168.259 196.24C167.95 195.984 167.699 195.669 167.507 195.296C167.315 194.912 167.219 194.432 167.219 193.856C167.219 193.163 167.385 192.565 167.715 192.064C168.057 191.563 168.526 191.184 169.123 190.928C169.721 190.661 170.409 190.528 171.187 190.528C171.977 190.528 172.697 190.667 173.347 190.944C174.009 191.221 174.553 191.6 174.979 192.08L173.347 193.696C173.006 193.344 172.659 193.083 172.307 192.912C171.966 192.741 171.577 192.656 171.139 192.656C170.702 192.656 170.355 192.741 170.099 192.912C169.843 193.072 169.715 193.307 169.715 193.616C169.715 193.904 169.811 194.139 170.003 194.32C170.195 194.491 170.446 194.64 170.755 194.768C171.075 194.896 171.422 195.024 171.795 195.152C172.179 195.28 172.558 195.429 172.931 195.6C173.305 195.771 173.646 195.989 173.955 196.256C174.275 196.512 174.531 196.843 174.723 197.248C174.915 197.643 175.011 198.133 175.011 198.72C175.011 199.797 174.627 200.645 173.859 201.264C173.091 201.872 172.03 202.176 170.675 202.176ZM178.531 202V200.048H181.187C181.678 200.048 182.062 199.904 182.339 199.616C182.617 199.328 182.755 198.976 182.755 198.56C182.755 198.272 182.691 198.016 182.563 197.792C182.435 197.568 182.254 197.392 182.019 197.264C181.795 197.136 181.518 197.072 181.187 197.072H178.531V195.168H180.979C181.395 195.168 181.731 195.067 181.987 194.864C182.243 194.651 182.371 194.331 182.371 193.904C182.371 193.488 182.243 193.179 181.987 192.976C181.731 192.763 181.395 192.656 180.979 192.656H178.531V190.704H181.459C182.185 190.704 182.798 190.837 183.299 191.104C183.811 191.371 184.201 191.728 184.467 192.176C184.734 192.624 184.867 193.12 184.867 193.664C184.867 194.357 184.643 194.944 184.195 195.424C183.747 195.904 183.086 196.235 182.211 196.416L182.275 195.568C183.225 195.749 183.955 196.117 184.467 196.672C184.99 197.227 185.251 197.909 185.251 198.72C185.251 199.339 185.097 199.899 184.787 200.4C184.489 200.891 184.051 201.28 183.475 201.568C182.91 201.856 182.227 202 181.427 202H178.531ZM176.611 202V190.704H179.091V202H176.611ZM186.861 202V190.704H189.373V202H186.861ZM188.797 202V199.792H194.381V202H188.797ZM200.565 202.176C199.723 202.176 198.939 202.032 198.213 201.744C197.499 201.445 196.869 201.029 196.325 200.496C195.792 199.963 195.376 199.344 195.077 198.64C194.779 197.925 194.629 197.157 194.629 196.336C194.629 195.515 194.779 194.752 195.077 194.048C195.376 193.333 195.792 192.715 196.325 192.192C196.859 191.669 197.483 191.264 198.197 190.976C198.923 190.677 199.707 190.528 200.549 190.528C201.445 190.528 202.24 190.672 202.933 190.96C203.637 191.248 204.251 191.643 204.773 192.144L203.093 193.84C202.795 193.52 202.432 193.269 202.005 193.088C201.589 192.907 201.104 192.816 200.549 192.816C200.059 192.816 199.605 192.901 199.189 193.072C198.784 193.232 198.432 193.467 198.133 193.776C197.845 194.085 197.616 194.459 197.445 194.896C197.285 195.333 197.205 195.813 197.205 196.336C197.205 196.869 197.285 197.355 197.445 197.792C197.616 198.229 197.845 198.603 198.133 198.912C198.432 199.221 198.784 199.461 199.189 199.632C199.605 199.803 200.059 199.888 200.549 199.888C201.125 199.888 201.627 199.797 202.053 199.616C202.48 199.435 202.848 199.184 203.157 198.864L204.853 200.56C204.309 201.061 203.685 201.456 202.981 201.744C202.288 202.032 201.483 202.176 200.565 202.176ZM208.243 202.88L212.163 189.92H214.291L210.371 202.88H208.243ZM218.471 202V190.704H220.263L224.711 197.632H223.799L228.231 190.704H230.039V202H227.527V194.944L227.975 195.056L225.079 199.568H223.415L220.535 195.056L220.967 194.944V202H218.471ZM234.973 202V190.864H237.485V202H234.973ZM231.437 192.896V190.704H241.021V192.896H231.437ZM242.424 202V190.704H244.184L244.936 192.96V202H242.424ZM250.216 202L243.56 193.472L244.184 190.704L250.84 199.232L250.216 202ZM250.216 202L249.544 199.744V190.704H252.056V202H250.216ZM256.243 202.88L260.163 189.92H262.291L258.371 202.88H256.243ZM268.391 202V200.048H271.047C271.537 200.048 271.921 199.904 272.199 199.616C272.476 199.328 272.615 198.976 272.615 198.56C272.615 198.272 272.551 198.016 272.423 197.792C272.295 197.568 272.113 197.392 271.879 197.264C271.655 197.136 271.377 197.072 271.047 197.072H268.391V195.168H270.839C271.255 195.168 271.591 195.067 271.847 194.864C272.103 194.651 272.231 194.331 272.231 193.904C272.231 193.488 272.103 193.179 271.847 192.976C271.591 192.763 271.255 192.656 270.839 192.656H268.391V190.704H271.319C272.044 190.704 272.657 190.837 273.159 191.104C273.671 191.371 274.06 191.728 274.327 192.176C274.593 192.624 274.727 193.12 274.727 193.664C274.727 194.357 274.503 194.944 274.055 195.424C273.607 195.904 272.945 196.235 272.071 196.416L272.135 195.568C273.084 195.749 273.815 196.117 274.327 196.672C274.849 197.227 275.111 197.909 275.111 198.72C275.111 199.339 274.956 199.899 274.647 200.4C274.348 200.891 273.911 201.28 273.335 201.568C272.769 201.856 272.087 202 271.287 202H268.391ZM266.471 202V190.704H268.951V202H266.471ZM280.241 202.176C279.441 202.176 278.715 202 278.065 201.648C277.425 201.285 276.918 200.795 276.545 200.176C276.171 199.557 275.985 198.864 275.985 198.096C275.985 197.328 276.171 196.64 276.545 196.032C276.918 195.424 277.425 194.944 278.065 194.592C278.705 194.229 279.43 194.048 280.241 194.048C281.051 194.048 281.777 194.224 282.417 194.576C283.057 194.928 283.563 195.413 283.937 196.032C284.31 196.64 284.497 197.328 284.497 198.096C284.497 198.864 284.31 199.557 283.937 200.176C283.563 200.795 283.057 201.285 282.417 201.648C281.777 202 281.051 202.176 280.241 202.176ZM280.241 199.952C280.593 199.952 280.902 199.877 281.169 199.728C281.435 199.568 281.638 199.349 281.777 199.072C281.926 198.784 282.001 198.459 282.001 198.096C282.001 197.733 281.926 197.419 281.777 197.152C281.627 196.875 281.419 196.661 281.153 196.512C280.897 196.352 280.593 196.272 280.241 196.272C279.899 196.272 279.595 196.352 279.329 196.512C279.062 196.661 278.854 196.875 278.705 197.152C278.555 197.429 278.481 197.749 278.481 198.112C278.481 198.464 278.555 198.784 278.705 199.072C278.854 199.349 279.062 199.568 279.329 199.728C279.595 199.877 279.899 199.952 280.241 199.952ZM290.852 202V197.568C290.852 197.163 290.724 196.837 290.468 196.592C290.222 196.336 289.908 196.208 289.524 196.208C289.257 196.208 289.022 196.267 288.82 196.384C288.617 196.491 288.457 196.651 288.34 196.864C288.222 197.067 288.164 197.301 288.164 197.568L287.22 197.104C287.22 196.496 287.353 195.963 287.62 195.504C287.886 195.045 288.254 194.693 288.724 194.448C289.204 194.192 289.742 194.064 290.34 194.064C290.916 194.064 291.422 194.203 291.86 194.48C292.308 194.747 292.66 195.104 292.916 195.552C293.172 196 293.3 196.491 293.3 197.024V202H290.852ZM285.716 202V194.224H288.164V202H285.716ZM298.184 202.16C297.448 202.16 296.792 201.984 296.216 201.632C295.65 201.28 295.202 200.8 294.872 200.192C294.552 199.584 294.392 198.891 294.392 198.112C294.392 197.333 294.552 196.64 294.872 196.032C295.202 195.424 295.65 194.944 296.216 194.592C296.792 194.24 297.448 194.064 298.184 194.064C298.717 194.064 299.197 194.165 299.624 194.368C300.061 194.571 300.418 194.853 300.696 195.216C300.984 195.568 301.144 195.973 301.176 196.432V199.712C301.144 200.171 300.989 200.587 300.712 200.96C300.434 201.323 300.077 201.616 299.64 201.84C299.202 202.053 298.717 202.16 298.184 202.16ZM298.616 199.952C298.968 199.952 299.272 199.877 299.528 199.728C299.784 199.568 299.986 199.349 300.136 199.072C300.285 198.795 300.36 198.475 300.36 198.112C300.36 197.749 300.285 197.435 300.136 197.168C299.997 196.891 299.794 196.672 299.528 196.512C299.272 196.352 298.973 196.272 298.632 196.272C298.29 196.272 297.986 196.352 297.72 196.512C297.464 196.672 297.256 196.891 297.096 197.168C296.946 197.445 296.872 197.76 296.872 198.112C296.872 198.464 296.946 198.779 297.096 199.056C297.245 199.333 297.453 199.552 297.72 199.712C297.986 199.872 298.285 199.952 298.616 199.952ZM302.664 202H300.264V199.904L300.632 198.016L300.216 196.128V190.384H302.664V202ZM307.219 202.192C306.761 202.192 306.307 202.133 305.859 202.016C305.422 201.899 305.011 201.733 304.627 201.52C304.254 201.296 303.934 201.04 303.667 200.752L305.059 199.344C305.315 199.621 305.619 199.84 305.971 200C306.323 200.149 306.707 200.224 307.123 200.224C307.411 200.224 307.63 200.181 307.779 200.096C307.939 200.011 308.019 199.893 308.019 199.744C308.019 199.552 307.923 199.408 307.731 199.312C307.55 199.205 307.315 199.115 307.027 199.04C306.739 198.955 306.435 198.864 306.115 198.768C305.795 198.672 305.491 198.539 305.203 198.368C304.915 198.197 304.681 197.963 304.499 197.664C304.318 197.355 304.227 196.965 304.227 196.496C304.227 195.995 304.355 195.563 304.611 195.2C304.867 194.827 305.23 194.533 305.699 194.32C306.169 194.107 306.718 194 307.347 194C308.009 194 308.617 194.117 309.171 194.352C309.737 194.576 310.195 194.912 310.547 195.36L309.155 196.768C308.91 196.48 308.633 196.277 308.323 196.16C308.025 196.043 307.731 195.984 307.443 195.984C307.166 195.984 306.958 196.027 306.819 196.112C306.681 196.187 306.611 196.299 306.611 196.448C306.611 196.608 306.702 196.736 306.883 196.832C307.065 196.928 307.299 197.013 307.587 197.088C307.875 197.163 308.179 197.253 308.499 197.36C308.819 197.467 309.123 197.611 309.411 197.792C309.699 197.973 309.934 198.219 310.115 198.528C310.297 198.827 310.387 199.221 310.387 199.712C310.387 200.469 310.099 201.072 309.523 201.52C308.958 201.968 308.19 202.192 307.219 202.192ZM312.436 204.032L311.092 202.752C311.774 202.08 312.297 201.259 312.66 200.288C313.022 199.307 313.204 198.203 313.204 196.976C313.204 195.739 313.022 194.635 312.66 193.664C312.297 192.693 311.774 191.877 311.092 191.216L312.436 189.92C313.044 190.443 313.561 191.072 313.988 191.808C314.414 192.544 314.74 193.349 314.964 194.224C315.188 195.099 315.3 196.016 315.3 196.976C315.3 197.936 315.188 198.853 314.964 199.728C314.74 200.603 314.414 201.408 313.988 202.144C313.561 202.88 313.044 203.509 312.436 204.032Z" fill="white"/>
<g clip-path="url(#clip0_6_12048)">
<path d="M215.667 119.667V98.3333C215.667 95.4 218.04 93 221 93H245V90.3333C245 87.4 242.6 85 239.667 85H202.333C199.373 85 197 87.4 197 90.3333V127.667C197 130.6 199.373 133 202.333 133H239.667C242.6 133 245 130.6 245 127.667V125H221C218.04 125 215.667 122.6 215.667 119.667ZM223.667 98.3333C222.2 98.3333 221 99.5333 221 101V117C221 118.467 222.2 119.667 223.667 119.667H247.667V98.3333H223.667ZM231.667 113C229.453 113 227.667 111.213 227.667 109C227.667 106.787 229.453 105 231.667 105C233.88 105 235.667 106.787 235.667 109C235.667 111.213 233.88 113 231.667 113Z" fill="white"/>
</g>
<defs>
<filter id="filter0_d_6_12048" x="0" y="0" width="490" height="438" filterUnits="userSpaceOnUse" color-interpolation-filters="sRGB">
<feFlood flood-opacity="0" result="BackgroundImageFix"/>
<feColorMatrix in="SourceAlpha" type="matrix" values="0 0 0 0 0 0 0 0 0 0 0 0 0 0 0 0 0 0 127 0" result="hardAlpha"/>
<feOffset dx="24" dy="30"/>
<feGaussianBlur stdDeviation="25.5"/>
<feComposite in2="hardAlpha" operator="out"/>
<feColorMatrix type="matrix" values="0 0 0 0 0 0 0 0 0 0 0 0 0 0 0 0 0 0 0.1 0"/>
<feBlend mode="normal" in2="BackgroundImageFix" result="effect1_dropShadow_6_12048"/>
<feBlend mode="normal" in="SourceGraphic" in2="effect1_dropShadow_6_12048" result="shape"/>
</filter>
<linearGradient id="paint0_linear_6_12048" x1="-3.78588" y1="-6.5063" x2="394.405" y2="457.656" gradientUnits="userSpaceOnUse">
<stop stop-color="#ED1F24"/>
<stop offset="1"/>
</linearGradient>
<clipPath id="clip0_6_12048">
<rect width="64" height="64" fill="white" transform="translate(189 77)"/>
</clipPath>
</defs>
</svg>
