<svg width="490" height="521" viewBox="0 0 490 521" fill="none" xmlns="http://www.w3.org/2000/svg">
<g filter="url(#filter0_d_6_12062)">
<path d="M27 37.5595C27 27.7843 35.6885 20.294 45.357 21.734L401.357 74.7559C409.197 75.9235 415 82.655 415 90.5813V405.423C415 413.255 409.331 419.935 401.604 421.21L45.604 479.931C35.8595 481.539 27 474.021 27 464.145V37.5595Z" fill="white"/>
</g>
<path d="M59.288 330.16C58.5947 330.16 57.9653 329.989 57.4 329.648C56.8347 329.296 56.3867 328.821 56.056 328.224C55.736 327.627 55.576 326.955 55.576 326.208C55.576 325.461 55.736 324.789 56.056 324.192C56.3867 323.595 56.8293 323.12 57.384 322.768C57.9493 322.416 58.584 322.24 59.288 322.24C59.864 322.24 60.376 322.363 60.824 322.608C61.2827 322.843 61.6507 323.173 61.928 323.6C62.2053 324.016 62.36 324.501 62.392 325.056V327.344C62.36 327.888 62.2053 328.373 61.928 328.8C61.6613 329.227 61.2987 329.563 60.84 329.808C60.392 330.043 59.8747 330.16 59.288 330.16ZM59.528 328.8C60.2427 328.8 60.8187 328.56 61.256 328.08C61.6933 327.589 61.912 326.965 61.912 326.208C61.912 325.685 61.8107 325.232 61.608 324.848C61.416 324.453 61.1387 324.149 60.776 323.936C60.4133 323.712 59.992 323.6 59.512 323.6C59.032 323.6 58.6053 323.712 58.232 323.936C57.8693 324.16 57.5813 324.469 57.368 324.864C57.1653 325.248 57.064 325.691 57.064 326.192C57.064 326.704 57.1653 327.157 57.368 327.552C57.5813 327.936 57.8747 328.24 58.248 328.464C58.6213 328.688 59.048 328.8 59.528 328.8ZM61.816 330V327.952L62.088 326.096L61.816 324.256V322.4H63.272V330H61.816ZM65.3685 330V322.4H66.8085V330H65.3685ZM70.5045 330V325.408C70.5045 324.843 70.3285 324.4 69.9765 324.08C69.6352 323.749 69.2032 323.584 68.6805 323.584C68.3285 323.584 68.0138 323.659 67.7365 323.808C67.4592 323.957 67.2352 324.165 67.0645 324.432C66.8938 324.699 66.8085 325.019 66.8085 325.392L66.2165 325.104C66.2165 324.528 66.3392 324.027 66.5845 323.6C66.8405 323.173 67.1872 322.843 67.6245 322.608C68.0618 322.363 68.5525 322.24 69.0965 322.24C69.6298 322.24 70.1098 322.357 70.5365 322.592C70.9738 322.827 71.3152 323.157 71.5605 323.584C71.8165 324.011 71.9445 324.517 71.9445 325.104V330H70.5045ZM75.6405 330V325.408C75.6405 324.843 75.4645 324.4 75.1125 324.08C74.7712 323.749 74.3445 323.584 73.8325 323.584C73.4805 323.584 73.1605 323.659 72.8725 323.808C72.5952 323.957 72.3712 324.165 72.2005 324.432C72.0298 324.699 71.9445 325.019 71.9445 325.392L71.1285 325.104C71.1605 324.517 71.3152 324.016 71.5925 323.6C71.8805 323.173 72.2485 322.843 72.6965 322.608C73.1445 322.363 73.6352 322.24 74.1685 322.24C74.7232 322.24 75.2192 322.357 75.6565 322.592C76.0938 322.827 76.4405 323.157 76.6965 323.584C76.9632 324.011 77.0965 324.523 77.0965 325.12V330H75.6405ZM82.576 330.16C81.8187 330.16 81.136 329.989 80.528 329.648C79.92 329.296 79.44 328.821 79.088 328.224C78.736 327.627 78.56 326.949 78.56 326.192C78.56 325.445 78.7307 324.773 79.072 324.176C79.424 323.579 79.8933 323.109 80.48 322.768C81.0773 322.416 81.744 322.24 82.48 322.24C83.184 322.24 83.8027 322.4 84.336 322.72C84.88 323.04 85.3013 323.483 85.6 324.048C85.9093 324.613 86.064 325.253 86.064 325.968C86.064 326.075 86.0587 326.192 86.048 326.32C86.0373 326.437 86.016 326.576 85.984 326.736H79.568V325.536H85.216L84.688 326C84.688 325.488 84.5973 325.056 84.416 324.704C84.2347 324.341 83.9787 324.064 83.648 323.872C83.3173 323.669 82.9173 323.568 82.448 323.568C81.9573 323.568 81.5253 323.675 81.152 323.888C80.7787 324.101 80.4907 324.4 80.288 324.784C80.0853 325.168 79.984 325.621 79.984 326.144C79.984 326.677 80.0907 327.147 80.304 327.552C80.5173 327.947 80.8213 328.256 81.216 328.48C81.6107 328.693 82.064 328.8 82.576 328.8C83.0027 328.8 83.392 328.725 83.744 328.576C84.1067 328.427 84.416 328.203 84.672 327.904L85.6 328.848C85.2373 329.275 84.7893 329.6 84.256 329.824C83.7333 330.048 83.1733 330.16 82.576 330.16ZM88.5834 330V319.216H90.0234V330H88.5834ZM86.7114 323.712V322.4H91.8954V323.712H86.7114ZM92.8391 331.76L93.8311 329.856L94.3431 329.728C94.2898 329.845 94.2205 329.941 94.1351 330.016C94.0605 330.091 93.9645 330.128 93.8471 330.128C93.6231 330.128 93.4151 330.037 93.2231 329.856C93.0418 329.664 92.9511 329.429 92.9511 329.152C92.9511 328.843 93.0525 328.587 93.2551 328.384C93.4578 328.171 93.7138 328.064 94.0231 328.064C94.3005 328.064 94.5458 328.171 94.7591 328.384C94.9725 328.587 95.0791 328.843 95.0791 329.152C95.0791 329.269 95.0525 329.413 94.9991 329.584C94.9565 329.744 94.8658 329.952 94.7271 330.208L93.6711 332.208L92.8391 331.76ZM102.91 330.16C102.483 330.16 102.078 330.107 101.694 330C101.32 329.883 100.974 329.723 100.654 329.52C100.334 329.307 100.056 329.056 99.8215 328.768L100.75 327.84C101.027 328.181 101.347 328.437 101.71 328.608C102.072 328.768 102.478 328.848 102.926 328.848C103.374 328.848 103.72 328.773 103.966 328.624C104.211 328.464 104.334 328.245 104.334 327.968C104.334 327.691 104.232 327.477 104.03 327.328C103.838 327.168 103.587 327.04 103.278 326.944C102.968 326.837 102.638 326.736 102.286 326.64C101.944 326.533 101.619 326.4 101.31 326.24C101 326.08 100.744 325.861 100.542 325.584C100.35 325.307 100.254 324.939 100.254 324.48C100.254 324.021 100.366 323.627 100.59 323.296C100.814 322.955 101.123 322.693 101.518 322.512C101.923 322.331 102.408 322.24 102.974 322.24C103.571 322.24 104.099 322.347 104.558 322.56C105.027 322.763 105.411 323.072 105.71 323.488L104.782 324.416C104.568 324.139 104.302 323.925 103.982 323.776C103.672 323.627 103.32 323.552 102.926 323.552C102.51 323.552 102.19 323.627 101.966 323.776C101.752 323.915 101.646 324.112 101.646 324.368C101.646 324.624 101.742 324.821 101.934 324.96C102.126 325.099 102.376 325.216 102.686 325.312C103.006 325.408 103.336 325.509 103.678 325.616C104.019 325.712 104.344 325.845 104.654 326.016C104.963 326.187 105.214 326.416 105.406 326.704C105.608 326.992 105.71 327.371 105.71 327.84C105.71 328.555 105.454 329.12 104.942 329.536C104.44 329.952 103.763 330.16 102.91 330.16ZM110.842 330.16C110.084 330.16 109.402 329.989 108.794 329.648C108.186 329.296 107.706 328.821 107.354 328.224C107.002 327.627 106.826 326.949 106.826 326.192C106.826 325.445 106.996 324.773 107.338 324.176C107.69 323.579 108.159 323.109 108.746 322.768C109.343 322.416 110.01 322.24 110.746 322.24C111.45 322.24 112.068 322.4 112.602 322.72C113.146 323.04 113.567 323.483 113.866 324.048C114.175 324.613 114.33 325.253 114.33 325.968C114.33 326.075 114.324 326.192 114.314 326.32C114.303 326.437 114.282 326.576 114.25 326.736H107.834V325.536H113.482L112.954 326C112.954 325.488 112.863 325.056 112.682 324.704C112.5 324.341 112.244 324.064 111.914 323.872C111.583 323.669 111.183 323.568 110.714 323.568C110.223 323.568 109.791 323.675 109.418 323.888C109.044 324.101 108.756 324.4 108.554 324.784C108.351 325.168 108.25 325.621 108.25 326.144C108.25 326.677 108.356 327.147 108.57 327.552C108.783 327.947 109.087 328.256 109.482 328.48C109.876 328.693 110.33 328.8 110.842 328.8C111.268 328.8 111.658 328.725 112.01 328.576C112.372 328.427 112.682 328.203 112.938 327.904L113.866 328.848C113.503 329.275 113.055 329.6 112.522 329.824C111.999 330.048 111.439 330.16 110.842 330.16ZM119.116 330.16C118.412 330.16 117.782 329.989 117.228 329.648C116.673 329.296 116.23 328.821 115.9 328.224C115.58 327.627 115.42 326.955 115.42 326.208C115.42 325.461 115.58 324.789 115.9 324.192C116.23 323.595 116.673 323.12 117.228 322.768C117.782 322.416 118.412 322.24 119.116 322.24C119.681 322.24 120.193 322.363 120.652 322.608C121.11 322.843 121.478 323.173 121.756 323.6C122.044 324.016 122.204 324.501 122.236 325.056V327.344C122.204 327.888 122.049 328.373 121.772 328.8C121.494 329.227 121.126 329.563 120.668 329.808C120.209 330.043 119.692 330.16 119.116 330.16ZM119.356 328.8C119.836 328.8 120.252 328.688 120.604 328.464C120.966 328.24 121.249 327.936 121.452 327.552C121.654 327.157 121.756 326.709 121.756 326.208C121.756 325.685 121.649 325.232 121.436 324.848C121.233 324.464 120.95 324.16 120.588 323.936C120.236 323.712 119.82 323.6 119.34 323.6C118.86 323.6 118.438 323.712 118.076 323.936C117.713 324.16 117.425 324.469 117.212 324.864C117.009 325.248 116.908 325.691 116.908 326.192C116.908 326.704 117.009 327.157 117.212 327.552C117.425 327.936 117.713 328.24 118.076 328.464C118.449 328.688 118.876 328.8 119.356 328.8ZM123.116 330H121.66V327.952L121.932 326.096L121.66 324.256V318.576H123.116V330ZM131.788 330.16C131.084 330.16 130.45 329.989 129.884 329.648C129.319 329.296 128.871 328.821 128.54 328.224C128.22 327.627 128.06 326.955 128.06 326.208C128.06 325.461 128.22 324.789 128.54 324.192C128.871 323.595 129.319 323.12 129.884 322.768C130.45 322.416 131.079 322.24 131.772 322.24C132.359 322.24 132.876 322.363 133.324 322.608C133.783 322.843 134.146 323.173 134.412 323.6C134.69 324.016 134.844 324.501 134.876 325.056V327.344C134.844 327.888 134.69 328.373 134.412 328.8C134.146 329.227 133.783 329.563 133.324 329.808C132.876 330.043 132.364 330.16 131.788 330.16ZM132.012 328.8C132.727 328.8 133.303 328.56 133.74 328.08C134.178 327.589 134.396 326.965 134.396 326.208C134.396 325.685 134.295 325.232 134.092 324.848C133.9 324.453 133.623 324.149 133.26 323.936C132.908 323.712 132.492 323.6 132.012 323.6C131.532 323.6 131.106 323.712 130.732 323.936C130.37 324.16 130.082 324.469 129.868 324.864C129.655 325.248 129.548 325.691 129.548 326.192C129.548 326.704 129.655 327.157 129.868 327.552C130.082 327.936 130.37 328.24 130.732 328.464C131.106 328.688 131.532 328.8 132.012 328.8ZM134.316 333.184V328.096L134.572 326.24L134.316 324.4V322.4H135.756V333.184H134.316ZM140.941 330.16C140.311 330.16 139.746 330.021 139.245 329.744C138.754 329.456 138.37 329.061 138.093 328.56C137.815 328.059 137.677 327.477 137.677 326.816V322.4H139.117V326.752C139.117 327.168 139.186 327.531 139.325 327.84C139.474 328.139 139.687 328.368 139.965 328.528C140.242 328.688 140.567 328.768 140.941 328.768C141.506 328.768 141.949 328.592 142.269 328.24C142.589 327.877 142.749 327.381 142.749 326.752V322.4H144.189V326.816C144.189 327.477 144.05 328.059 143.773 328.56C143.495 329.061 143.111 329.456 142.621 329.744C142.141 330.021 141.581 330.16 140.941 330.16ZM146.135 330V322.4H147.575V330H146.135ZM146.855 320.88C146.588 320.88 146.369 320.795 146.199 320.624C146.028 320.443 145.943 320.219 145.943 319.952C145.943 319.696 146.028 319.483 146.199 319.312C146.369 319.131 146.588 319.04 146.855 319.04C147.121 319.04 147.34 319.131 147.511 319.312C147.681 319.483 147.767 319.696 147.767 319.952C147.767 320.219 147.681 320.443 147.511 320.624C147.34 320.795 147.121 320.88 146.855 320.88ZM152.113 330.16C151.686 330.16 151.281 330.107 150.897 330C150.523 329.883 150.177 329.723 149.857 329.52C149.537 329.307 149.259 329.056 149.025 328.768L149.953 327.84C150.23 328.181 150.55 328.437 150.913 328.608C151.275 328.768 151.681 328.848 152.129 328.848C152.577 328.848 152.923 328.773 153.169 328.624C153.414 328.464 153.537 328.245 153.537 327.968C153.537 327.691 153.435 327.477 153.233 327.328C153.041 327.168 152.79 327.04 152.481 326.944C152.171 326.837 151.841 326.736 151.489 326.64C151.147 326.533 150.822 326.4 150.513 326.24C150.203 326.08 149.947 325.861 149.745 325.584C149.553 325.307 149.457 324.939 149.457 324.48C149.457 324.021 149.569 323.627 149.793 323.296C150.017 322.955 150.326 322.693 150.721 322.512C151.126 322.331 151.611 322.24 152.177 322.24C152.774 322.24 153.302 322.347 153.761 322.56C154.23 322.763 154.614 323.072 154.913 323.488L153.985 324.416C153.771 324.139 153.505 323.925 153.185 323.776C152.875 323.627 152.523 323.552 152.129 323.552C151.713 323.552 151.393 323.627 151.169 323.776C150.955 323.915 150.849 324.112 150.849 324.368C150.849 324.624 150.945 324.821 151.137 324.96C151.329 325.099 151.579 325.216 151.889 325.312C152.209 325.408 152.539 325.509 152.881 325.616C153.222 325.712 153.547 325.845 153.857 326.016C154.166 326.187 154.417 326.416 154.609 326.704C154.811 326.992 154.913 327.371 154.913 327.84C154.913 328.555 154.657 329.12 154.145 329.536C153.643 329.952 152.966 330.16 152.113 330.16ZM159.853 330V318.576H161.293V330H159.853ZM166.632 330.16C165.938 330.16 165.309 329.989 164.744 329.648C164.178 329.296 163.73 328.821 163.4 328.224C163.08 327.627 162.92 326.955 162.92 326.208C162.92 325.461 163.08 324.789 163.4 324.192C163.73 323.595 164.173 323.12 164.728 322.768C165.293 322.416 165.928 322.24 166.632 322.24C167.208 322.24 167.72 322.363 168.168 322.608C168.626 322.843 168.994 323.173 169.272 323.6C169.549 324.016 169.704 324.501 169.736 325.056V327.344C169.704 327.888 169.549 328.373 169.272 328.8C169.005 329.227 168.642 329.563 168.184 329.808C167.736 330.043 167.218 330.16 166.632 330.16ZM166.872 328.8C167.586 328.8 168.162 328.56 168.6 328.08C169.037 327.589 169.256 326.965 169.256 326.208C169.256 325.685 169.154 325.232 168.952 324.848C168.76 324.453 168.482 324.149 168.12 323.936C167.757 323.712 167.336 323.6 166.856 323.6C166.376 323.6 165.949 323.712 165.576 323.936C165.213 324.16 164.925 324.469 164.712 324.864C164.509 325.248 164.408 325.691 164.408 326.192C164.408 326.704 164.509 327.157 164.712 327.552C164.925 327.936 165.218 328.24 165.592 328.464C165.965 328.688 166.392 328.8 166.872 328.8ZM169.16 330V327.952L169.432 326.096L169.16 324.256V322.4H170.616V330H169.16ZM176.184 330.16C175.438 330.16 174.76 329.984 174.152 329.632C173.555 329.28 173.08 328.805 172.728 328.208C172.387 327.6 172.216 326.928 172.216 326.192C172.216 325.445 172.387 324.773 172.728 324.176C173.08 323.579 173.555 323.109 174.152 322.768C174.76 322.416 175.438 322.24 176.184 322.24C176.771 322.24 177.315 322.352 177.816 322.576C178.318 322.789 178.75 323.104 179.112 323.52L178.152 324.48C177.918 324.203 177.63 323.995 177.288 323.856C176.958 323.707 176.59 323.632 176.184 323.632C175.704 323.632 175.278 323.744 174.904 323.968C174.531 324.181 174.238 324.48 174.024 324.864C173.811 325.248 173.704 325.691 173.704 326.192C173.704 326.693 173.811 327.136 174.024 327.52C174.238 327.904 174.531 328.208 174.904 328.432C175.278 328.656 175.704 328.768 176.184 328.768C176.59 328.768 176.958 328.699 177.288 328.56C177.63 328.411 177.923 328.197 178.168 327.92L179.112 328.88C178.76 329.285 178.328 329.6 177.816 329.824C177.315 330.048 176.771 330.16 176.184 330.16ZM183.612 330.16C182.983 330.16 182.418 330.021 181.916 329.744C181.426 329.456 181.042 329.061 180.764 328.56C180.487 328.059 180.348 327.477 180.348 326.816V322.4H181.788V326.752C181.788 327.168 181.858 327.531 181.996 327.84C182.146 328.139 182.359 328.368 182.636 328.528C182.914 328.688 183.239 328.768 183.612 328.768C184.178 328.768 184.62 328.592 184.94 328.24C185.26 327.877 185.42 327.381 185.42 326.752V322.4H186.86V326.816C186.86 327.477 186.722 328.059 186.444 328.56C186.167 329.061 185.783 329.456 185.292 329.744C184.812 330.021 184.252 330.16 183.612 330.16ZM191.206 330.16C190.78 330.16 190.374 330.107 189.99 330C189.617 329.883 189.27 329.723 188.95 329.52C188.63 329.307 188.353 329.056 188.118 328.768L189.046 327.84C189.324 328.181 189.644 328.437 190.006 328.608C190.369 328.768 190.774 328.848 191.222 328.848C191.67 328.848 192.017 328.773 192.262 328.624C192.508 328.464 192.63 328.245 192.63 327.968C192.63 327.691 192.529 327.477 192.326 327.328C192.134 327.168 191.884 327.04 191.574 326.944C191.265 326.837 190.934 326.736 190.582 326.64C190.241 326.533 189.916 326.4 189.606 326.24C189.297 326.08 189.041 325.861 188.838 325.584C188.646 325.307 188.55 324.939 188.55 324.48C188.55 324.021 188.662 323.627 188.886 323.296C189.11 322.955 189.42 322.693 189.814 322.512C190.22 322.331 190.705 322.24 191.27 322.24C191.868 322.24 192.396 322.347 192.854 322.56C193.324 322.763 193.708 323.072 194.006 323.488L193.078 324.416C192.865 324.139 192.598 323.925 192.278 323.776C191.969 323.627 191.617 323.552 191.222 323.552C190.806 323.552 190.486 323.627 190.262 323.776C190.049 323.915 189.942 324.112 189.942 324.368C189.942 324.624 190.038 324.821 190.23 324.96C190.422 325.099 190.673 325.216 190.982 325.312C191.302 325.408 191.633 325.509 191.974 325.616C192.316 325.712 192.641 325.845 192.95 326.016C193.26 326.187 193.51 326.416 193.702 326.704C193.905 326.992 194.006 327.371 194.006 327.84C194.006 328.555 193.75 329.12 193.238 329.536C192.737 329.952 192.06 330.16 191.206 330.16ZM201.555 330L198.067 322.4H199.667L202.467 328.816H201.539L204.355 322.4H205.891L202.403 330H201.555ZM210.357 330.16C209.6 330.16 208.917 329.989 208.309 329.648C207.701 329.296 207.221 328.821 206.869 328.224C206.517 327.627 206.341 326.949 206.341 326.192C206.341 325.445 206.512 324.773 206.853 324.176C207.205 323.579 207.675 323.109 208.261 322.768C208.859 322.416 209.525 322.24 210.261 322.24C210.965 322.24 211.584 322.4 212.117 322.72C212.661 323.04 213.083 323.483 213.381 324.048C213.691 324.613 213.845 325.253 213.845 325.968C213.845 326.075 213.84 326.192 213.829 326.32C213.819 326.437 213.797 326.576 213.765 326.736H207.349V325.536H212.997L212.469 326C212.469 325.488 212.379 325.056 212.197 324.704C212.016 324.341 211.76 324.064 211.429 323.872C211.099 323.669 210.699 323.568 210.229 323.568C209.739 323.568 209.307 323.675 208.933 323.888C208.56 324.101 208.272 324.4 208.069 324.784C207.867 325.168 207.765 325.621 207.765 326.144C207.765 326.677 207.872 327.147 208.085 327.552C208.299 327.947 208.603 328.256 208.997 328.48C209.392 328.693 209.845 328.8 210.357 328.8C210.784 328.8 211.173 328.725 211.525 328.576C211.888 328.427 212.197 328.203 212.453 327.904L213.381 328.848C213.019 329.275 212.571 329.6 212.037 329.824C211.515 330.048 210.955 330.16 210.357 330.16ZM215.415 330V318.576H216.855V330H215.415ZM225.634 330.16C224.76 330.16 224.013 330 223.394 329.68C222.776 329.36 222.226 328.896 221.746 328.288L222.77 327.264C223.122 327.755 223.528 328.128 223.986 328.384C224.445 328.629 225.01 328.752 225.682 328.752C226.344 328.752 226.872 328.608 227.266 328.32C227.672 328.032 227.874 327.637 227.874 327.136C227.874 326.72 227.778 326.384 227.586 326.128C227.394 325.872 227.133 325.664 226.802 325.504C226.482 325.333 226.13 325.184 225.746 325.056C225.362 324.917 224.978 324.773 224.594 324.624C224.21 324.464 223.858 324.272 223.538 324.048C223.218 323.813 222.957 323.509 222.754 323.136C222.562 322.763 222.466 322.293 222.466 321.728C222.466 321.099 222.616 320.565 222.914 320.128C223.224 319.68 223.64 319.339 224.162 319.104C224.696 318.859 225.293 318.736 225.954 318.736C226.68 318.736 227.33 318.88 227.906 319.168C228.482 319.445 228.952 319.813 229.314 320.272L228.29 321.296C227.96 320.912 227.602 320.624 227.218 320.432C226.845 320.24 226.413 320.144 225.922 320.144C225.325 320.144 224.85 320.277 224.498 320.544C224.146 320.8 223.97 321.163 223.97 321.632C223.97 322.005 224.066 322.309 224.258 322.544C224.461 322.768 224.722 322.96 225.042 323.12C225.362 323.28 225.714 323.429 226.098 323.568C226.493 323.696 226.882 323.84 227.266 324C227.65 324.16 228.002 324.363 228.322 324.608C228.642 324.853 228.898 325.173 229.09 325.568C229.293 325.952 229.394 326.437 229.394 327.024C229.394 328.005 229.053 328.773 228.37 329.328C227.698 329.883 226.786 330.16 225.634 330.16ZM234.576 330.16C233.819 330.16 233.136 329.989 232.528 329.648C231.92 329.296 231.44 328.821 231.088 328.224C230.736 327.627 230.56 326.949 230.56 326.192C230.56 325.445 230.731 324.773 231.072 324.176C231.424 323.579 231.893 323.109 232.48 322.768C233.077 322.416 233.744 322.24 234.48 322.24C235.184 322.24 235.803 322.4 236.336 322.72C236.88 323.04 237.301 323.483 237.6 324.048C237.909 324.613 238.064 325.253 238.064 325.968C238.064 326.075 238.059 326.192 238.048 326.32C238.037 326.437 238.016 326.576 237.984 326.736H231.568V325.536H237.216L236.688 326C236.688 325.488 236.597 325.056 236.416 324.704C236.235 324.341 235.979 324.064 235.648 323.872C235.317 323.669 234.917 323.568 234.448 323.568C233.957 323.568 233.525 323.675 233.152 323.888C232.779 324.101 232.491 324.4 232.288 324.784C232.085 325.168 231.984 325.621 231.984 326.144C231.984 326.677 232.091 327.147 232.304 327.552C232.517 327.947 232.821 328.256 233.216 328.48C233.611 328.693 234.064 328.8 234.576 328.8C235.003 328.8 235.392 328.725 235.744 328.576C236.107 328.427 236.416 328.203 236.672 327.904L237.6 328.848C237.237 329.275 236.789 329.6 236.256 329.824C235.733 330.048 235.173 330.16 234.576 330.16ZM242.85 330.16C242.146 330.16 241.517 329.989 240.962 329.648C240.407 329.296 239.965 328.821 239.634 328.224C239.314 327.627 239.154 326.955 239.154 326.208C239.154 325.461 239.314 324.789 239.634 324.192C239.965 323.595 240.407 323.12 240.962 322.768C241.517 322.416 242.146 322.24 242.85 322.24C243.415 322.24 243.927 322.363 244.386 322.608C244.845 322.843 245.213 323.173 245.49 323.6C245.778 324.016 245.938 324.501 245.97 325.056V327.344C245.938 327.888 245.783 328.373 245.506 328.8C245.229 329.227 244.861 329.563 244.402 329.808C243.943 330.043 243.426 330.16 242.85 330.16ZM243.09 328.8C243.57 328.8 243.986 328.688 244.338 328.464C244.701 328.24 244.983 327.936 245.186 327.552C245.389 327.157 245.49 326.709 245.49 326.208C245.49 325.685 245.383 325.232 245.17 324.848C244.967 324.464 244.685 324.16 244.322 323.936C243.97 323.712 243.554 323.6 243.074 323.6C242.594 323.6 242.173 323.712 241.81 323.936C241.447 324.16 241.159 324.469 240.946 324.864C240.743 325.248 240.642 325.691 240.642 326.192C240.642 326.704 240.743 327.157 240.946 327.552C241.159 327.936 241.447 328.24 241.81 328.464C242.183 328.688 242.61 328.8 243.09 328.8ZM246.85 330H245.394V327.952L245.666 326.096L245.394 324.256V318.576H246.85V330ZM256.691 330.16C255.869 330.16 255.133 329.979 254.483 329.616C253.843 329.243 253.336 328.736 252.963 328.096C252.589 327.445 252.403 326.709 252.403 325.888V318.896H253.907V325.856C253.907 326.443 254.029 326.949 254.275 327.376C254.52 327.803 254.851 328.133 255.267 328.368C255.693 328.603 256.168 328.72 256.691 328.72C257.235 328.72 257.709 328.603 258.115 328.368C258.531 328.133 258.856 327.803 259.091 327.376C259.336 326.949 259.459 326.448 259.459 325.872V318.896H260.979V325.904C260.979 326.725 260.792 327.456 260.419 328.096C260.045 328.736 259.539 329.243 258.899 329.616C258.259 329.979 257.523 330.16 256.691 330.16ZM264.365 330V319.216H265.805V330H264.365ZM262.493 323.712V322.4H267.677V323.712H262.493ZM275.935 330.16C275.178 330.16 274.495 329.989 273.887 329.648C273.279 329.296 272.799 328.821 272.447 328.224C272.095 327.627 271.919 326.949 271.919 326.192C271.919 325.445 272.09 324.773 272.431 324.176C272.783 323.579 273.253 323.109 273.839 322.768C274.437 322.416 275.103 322.24 275.839 322.24C276.543 322.24 277.162 322.4 277.695 322.72C278.239 323.04 278.661 323.483 278.959 324.048C279.269 324.613 279.423 325.253 279.423 325.968C279.423 326.075 279.418 326.192 279.407 326.32C279.397 326.437 279.375 326.576 279.343 326.736H272.927V325.536H278.575L278.047 326C278.047 325.488 277.957 325.056 277.775 324.704C277.594 324.341 277.338 324.064 277.007 323.872C276.677 323.669 276.277 323.568 275.807 323.568C275.317 323.568 274.885 323.675 274.511 323.888C274.138 324.101 273.85 324.4 273.647 324.784C273.445 325.168 273.343 325.621 273.343 326.144C273.343 326.677 273.45 327.147 273.663 327.552C273.877 327.947 274.181 328.256 274.575 328.48C274.97 328.693 275.423 328.8 275.935 328.8C276.362 328.8 276.751 328.725 277.103 328.576C277.466 328.427 277.775 328.203 278.031 327.904L278.959 328.848C278.597 329.275 278.149 329.6 277.615 329.824C277.093 330.048 276.533 330.16 275.935 330.16ZM285.751 330L283.383 326.672L283.111 326.416L280.119 322.4H281.863L284.023 325.36L284.295 325.584L287.495 330H285.751ZM279.975 330L283.111 325.776L283.927 326.832L281.671 330H279.975ZM284.407 326.4L283.575 325.376L285.671 322.4H287.351L284.407 326.4ZM297.446 330.16C296.646 330.16 295.904 330.016 295.222 329.728C294.539 329.429 293.942 329.019 293.43 328.496C292.928 327.973 292.539 327.365 292.262 326.672C291.984 325.979 291.846 325.237 291.846 324.448C291.846 323.648 291.984 322.901 292.262 322.208C292.539 321.515 292.928 320.912 293.43 320.4C293.942 319.877 294.534 319.472 295.206 319.184C295.888 318.885 296.63 318.736 297.43 318.736C298.304 318.736 299.072 318.885 299.734 319.184C300.395 319.483 300.982 319.888 301.494 320.4L300.454 321.44C300.102 321.045 299.67 320.736 299.158 320.512C298.656 320.288 298.08 320.176 297.43 320.176C296.843 320.176 296.304 320.283 295.814 320.496C295.323 320.699 294.896 320.992 294.534 321.376C294.171 321.76 293.888 322.213 293.686 322.736C293.494 323.259 293.398 323.829 293.398 324.448C293.398 325.067 293.494 325.637 293.686 326.16C293.888 326.683 294.171 327.136 294.534 327.52C294.896 327.904 295.323 328.203 295.814 328.416C296.304 328.619 296.843 328.72 297.43 328.72C298.123 328.72 298.726 328.608 299.238 328.384C299.75 328.149 300.182 327.835 300.534 327.44L301.574 328.464C301.062 328.997 300.459 329.413 299.766 329.712C299.083 330.011 298.31 330.16 297.446 330.16ZM303.165 330V322.4H304.605V330H303.165ZM304.605 325.664L304.061 325.424C304.061 324.453 304.285 323.68 304.733 323.104C305.181 322.528 305.827 322.24 306.669 322.24C307.053 322.24 307.4 322.309 307.709 322.448C308.019 322.576 308.307 322.795 308.573 323.104L307.629 324.08C307.469 323.909 307.293 323.787 307.101 323.712C306.909 323.637 306.685 323.6 306.429 323.6C305.896 323.6 305.459 323.771 305.117 324.112C304.776 324.453 304.605 324.971 304.605 325.664ZM312.569 330.16C311.876 330.16 311.247 329.989 310.681 329.648C310.116 329.296 309.668 328.821 309.337 328.224C309.017 327.627 308.857 326.955 308.857 326.208C308.857 325.461 309.017 324.789 309.337 324.192C309.668 323.595 310.111 323.12 310.665 322.768C311.231 322.416 311.865 322.24 312.569 322.24C313.145 322.24 313.657 322.363 314.105 322.608C314.564 322.843 314.932 323.173 315.209 323.6C315.487 324.016 315.641 324.501 315.673 325.056V327.344C315.641 327.888 315.487 328.373 315.209 328.8C314.943 329.227 314.58 329.563 314.121 329.808C313.673 330.043 313.156 330.16 312.569 330.16ZM312.809 328.8C313.524 328.8 314.1 328.56 314.537 328.08C314.975 327.589 315.193 326.965 315.193 326.208C315.193 325.685 315.092 325.232 314.889 324.848C314.697 324.453 314.42 324.149 314.057 323.936C313.695 323.712 313.273 323.6 312.793 323.6C312.313 323.6 311.887 323.712 311.513 323.936C311.151 324.16 310.863 324.469 310.649 324.864C310.447 325.248 310.345 325.691 310.345 326.192C310.345 326.704 310.447 327.157 310.649 327.552C310.863 327.936 311.156 328.24 311.529 328.464C311.903 328.688 312.329 328.8 312.809 328.8ZM315.097 330V327.952L315.369 326.096L315.097 324.256V322.4H316.553V330H315.097ZM321.066 330.16C320.639 330.16 320.234 330.107 319.85 330C319.476 329.883 319.13 329.723 318.81 329.52C318.49 329.307 318.212 329.056 317.978 328.768L318.906 327.84C319.183 328.181 319.503 328.437 319.866 328.608C320.228 328.768 320.634 328.848 321.082 328.848C321.53 328.848 321.876 328.773 322.122 328.624C322.367 328.464 322.49 328.245 322.49 327.968C322.49 327.691 322.388 327.477 322.186 327.328C321.994 327.168 321.743 327.04 321.434 326.944C321.124 326.837 320.794 326.736 320.442 326.64C320.1 326.533 319.775 326.4 319.466 326.24C319.156 326.08 318.9 325.861 318.698 325.584C318.506 325.307 318.41 324.939 318.41 324.48C318.41 324.021 318.522 323.627 318.746 323.296C318.97 322.955 319.279 322.693 319.674 322.512C320.079 322.331 320.564 322.24 321.13 322.24C321.727 322.24 322.255 322.347 322.714 322.56C323.183 322.763 323.567 323.072 323.866 323.488L322.938 324.416C322.724 324.139 322.458 323.925 322.138 323.776C321.828 323.627 321.476 323.552 321.082 323.552C320.666 323.552 320.346 323.627 320.122 323.776C319.908 323.915 319.802 324.112 319.802 324.368C319.802 324.624 319.898 324.821 320.09 324.96C320.282 325.099 320.532 325.216 320.842 325.312C321.162 325.408 321.492 325.509 321.834 325.616C322.175 325.712 322.5 325.845 322.81 326.016C323.119 326.187 323.37 326.416 323.562 326.704C323.764 326.992 323.866 327.371 323.866 327.84C323.866 328.555 323.61 329.12 323.098 329.536C322.596 329.952 321.919 330.16 321.066 330.16ZM57.32 349.68V348.368H60.344C60.76 348.368 61.128 348.283 61.448 348.112C61.7787 347.941 62.0347 347.701 62.216 347.392C62.408 347.083 62.504 346.715 62.504 346.288C62.504 345.861 62.408 345.493 62.216 345.184C62.0347 344.875 61.7787 344.635 61.448 344.464C61.128 344.293 60.76 344.208 60.344 344.208H57.32V342.896H60.44C61.1227 342.896 61.7307 343.035 62.264 343.312C62.808 343.589 63.2347 343.984 63.544 344.496C63.864 344.997 64.024 345.595 64.024 346.288C64.024 346.971 63.864 347.568 63.544 348.08C63.2347 348.581 62.808 348.976 62.264 349.264C61.7307 349.541 61.1227 349.68 60.44 349.68H57.32ZM56.312 354V342.896H57.816V354H56.312ZM65.7591 354V346.4H67.1991V354H65.7591ZM67.1991 349.664L66.6551 349.424C66.6551 348.453 66.8791 347.68 67.3271 347.104C67.7751 346.528 68.4205 346.24 69.2631 346.24C69.6471 346.24 69.9938 346.309 70.3031 346.448C70.6125 346.576 70.9005 346.795 71.1671 347.104L70.2231 348.08C70.0631 347.909 69.8871 347.787 69.6951 347.712C69.5031 347.637 69.2791 347.6 69.0231 347.6C68.4898 347.6 68.0525 347.771 67.7111 348.112C67.3698 348.453 67.1991 348.971 67.1991 349.664ZM75.163 354.16C74.4697 354.16 73.8403 353.989 73.275 353.648C72.7097 353.296 72.2617 352.821 71.931 352.224C71.611 351.627 71.451 350.955 71.451 350.208C71.451 349.461 71.611 348.789 71.931 348.192C72.2617 347.595 72.7043 347.12 73.259 346.768C73.8243 346.416 74.459 346.24 75.163 346.24C75.739 346.24 76.251 346.363 76.699 346.608C77.1577 346.843 77.5257 347.173 77.803 347.6C78.0803 348.016 78.235 348.501 78.267 349.056V351.344C78.235 351.888 78.0803 352.373 77.803 352.8C77.5363 353.227 77.1737 353.563 76.715 353.808C76.267 354.043 75.7497 354.16 75.163 354.16ZM75.403 352.8C76.1177 352.8 76.6937 352.56 77.131 352.08C77.5683 351.589 77.787 350.965 77.787 350.208C77.787 349.685 77.6857 349.232 77.483 348.848C77.291 348.453 77.0137 348.149 76.651 347.936C76.2883 347.712 75.867 347.6 75.387 347.6C74.907 347.6 74.4803 347.712 74.107 347.936C73.7443 348.16 73.4563 348.469 73.243 348.864C73.0403 349.248 72.939 349.691 72.939 350.192C72.939 350.704 73.0403 351.157 73.243 351.552C73.4563 351.936 73.7497 352.24 74.123 352.464C74.4963 352.688 74.923 352.8 75.403 352.8ZM77.691 354V351.952L77.963 350.096L77.691 348.256V346.4H79.147V354H77.691ZM84.7635 354.16C84.0062 354.16 83.3235 353.989 82.7155 353.648C82.1075 353.296 81.6275 352.821 81.2755 352.224C80.9235 351.627 80.7475 350.949 80.7475 350.192C80.7475 349.445 80.9182 348.773 81.2595 348.176C81.6115 347.579 82.0808 347.109 82.6675 346.768C83.2648 346.416 83.9315 346.24 84.6675 346.24C85.3715 346.24 85.9902 346.4 86.5235 346.72C87.0675 347.04 87.4888 347.483 87.7875 348.048C88.0968 348.613 88.2515 349.253 88.2515 349.968C88.2515 350.075 88.2462 350.192 88.2355 350.32C88.2248 350.437 88.2035 350.576 88.1715 350.736H81.7555V349.536H87.4035L86.8755 350C86.8755 349.488 86.7848 349.056 86.6035 348.704C86.4222 348.341 86.1662 348.064 85.8355 347.872C85.5048 347.669 85.1048 347.568 84.6355 347.568C84.1448 347.568 83.7128 347.675 83.3395 347.888C82.9662 348.101 82.6782 348.4 82.4755 348.784C82.2728 349.168 82.1715 349.621 82.1715 350.144C82.1715 350.677 82.2782 351.147 82.4915 351.552C82.7048 351.947 83.0088 352.256 83.4035 352.48C83.7982 352.693 84.2515 352.8 84.7635 352.8C85.1902 352.8 85.5795 352.725 85.9315 352.576C86.2942 352.427 86.6035 352.203 86.8595 351.904L87.7875 352.848C87.4248 353.275 86.9768 353.6 86.4435 353.824C85.9208 354.048 85.3608 354.16 84.7635 354.16ZM92.2376 354.16C91.811 354.16 91.4056 354.107 91.0216 354C90.6483 353.883 90.3016 353.723 89.9816 353.52C89.6616 353.307 89.3843 353.056 89.1496 352.768L90.0776 351.84C90.355 352.181 90.675 352.437 91.0376 352.608C91.4003 352.768 91.8056 352.848 92.2536 352.848C92.7016 352.848 93.0483 352.773 93.2936 352.624C93.539 352.464 93.6616 352.245 93.6616 351.968C93.6616 351.691 93.5603 351.477 93.3576 351.328C93.1656 351.168 92.915 351.04 92.6056 350.944C92.2963 350.837 91.9656 350.736 91.6136 350.64C91.2723 350.533 90.947 350.4 90.6376 350.24C90.3283 350.08 90.0723 349.861 89.8696 349.584C89.6776 349.307 89.5816 348.939 89.5816 348.48C89.5816 348.021 89.6936 347.627 89.9176 347.296C90.1416 346.955 90.451 346.693 90.8456 346.512C91.251 346.331 91.7363 346.24 92.3016 346.24C92.899 346.24 93.427 346.347 93.8856 346.56C94.355 346.763 94.739 347.072 95.0376 347.488L94.1096 348.416C93.8963 348.139 93.6296 347.925 93.3096 347.776C93.0003 347.627 92.6483 347.552 92.2536 347.552C91.8376 347.552 91.5176 347.627 91.2936 347.776C91.0803 347.915 90.9736 348.112 90.9736 348.368C90.9736 348.624 91.0696 348.821 91.2616 348.96C91.4536 349.099 91.7043 349.216 92.0136 349.312C92.3336 349.408 92.6643 349.509 93.0056 349.616C93.347 349.712 93.6723 349.845 93.9816 350.016C94.291 350.187 94.5416 350.416 94.7336 350.704C94.9363 350.992 95.0376 351.371 95.0376 351.84C95.0376 352.555 94.7816 353.12 94.2696 353.536C93.7683 353.952 93.091 354.16 92.2376 354.16ZM100.17 354.16C99.4124 354.16 98.7298 353.989 98.1218 353.648C97.5138 353.296 97.0338 352.821 96.6818 352.224C96.3298 351.627 96.1538 350.949 96.1538 350.192C96.1538 349.445 96.3244 348.773 96.6658 348.176C97.0178 347.579 97.4871 347.109 98.0738 346.768C98.6711 346.416 99.3378 346.24 100.074 346.24C100.778 346.24 101.396 346.4 101.93 346.72C102.474 347.04 102.895 347.483 103.194 348.048C103.503 348.613 103.658 349.253 103.658 349.968C103.658 350.075 103.652 350.192 103.642 350.32C103.631 350.437 103.61 350.576 103.578 350.736H97.1618V349.536H102.81L102.282 350C102.282 349.488 102.191 349.056 102.01 348.704C101.828 348.341 101.572 348.064 101.242 347.872C100.911 347.669 100.511 347.568 100.042 347.568C99.5511 347.568 99.1191 347.675 98.7458 347.888C98.3724 348.101 98.0844 348.4 97.8818 348.784C97.6791 349.168 97.5778 349.621 97.5778 350.144C97.5778 350.677 97.6844 351.147 97.8978 351.552C98.1111 351.947 98.4151 352.256 98.8098 352.48C99.2044 352.693 99.6578 352.8 100.17 352.8C100.596 352.8 100.986 352.725 101.338 352.576C101.7 352.427 102.01 352.203 102.266 351.904L103.194 352.848C102.831 353.275 102.383 353.6 101.85 353.824C101.327 354.048 100.767 354.16 100.17 354.16ZM110.604 354V349.568C110.604 348.992 110.423 348.517 110.06 348.144C109.697 347.771 109.228 347.584 108.652 347.584C108.268 347.584 107.927 347.669 107.628 347.84C107.329 348.011 107.095 348.245 106.924 348.544C106.753 348.843 106.668 349.184 106.668 349.568L106.076 349.232C106.076 348.656 106.204 348.144 106.46 347.696C106.716 347.248 107.073 346.896 107.532 346.64C107.991 346.373 108.508 346.24 109.084 346.24C109.66 346.24 110.167 346.384 110.604 346.672C111.052 346.96 111.404 347.339 111.66 347.808C111.916 348.267 112.044 348.757 112.044 349.28V354H110.604ZM105.228 354V346.4H106.668V354H105.228ZM115.068 354V343.216H116.508V354H115.068ZM113.196 347.712V346.4H118.38V347.712H113.196ZM124.383 349.68V348.368H127.407C127.823 348.368 128.191 348.283 128.511 348.112C128.841 347.941 129.097 347.701 129.279 347.392C129.471 347.083 129.567 346.715 129.567 346.288C129.567 345.861 129.471 345.493 129.279 345.184C129.097 344.875 128.841 344.635 128.511 344.464C128.191 344.293 127.823 344.208 127.407 344.208H124.383V342.896H127.503C128.185 342.896 128.793 343.035 129.327 343.312C129.871 343.589 130.297 343.984 130.607 344.496C130.927 344.997 131.087 345.595 131.087 346.288C131.087 346.971 130.927 347.568 130.607 348.08C130.297 348.581 129.871 348.976 129.327 349.264C128.793 349.541 128.185 349.68 127.503 349.68H124.383ZM123.375 354V342.896H124.879V354H123.375ZM132.822 354V346.4H134.262V354H132.822ZM134.262 349.664L133.718 349.424C133.718 348.453 133.942 347.68 134.39 347.104C134.838 346.528 135.483 346.24 136.326 346.24C136.71 346.24 137.056 346.309 137.366 346.448C137.675 346.576 137.963 346.795 138.23 347.104L137.286 348.08C137.126 347.909 136.95 347.787 136.758 347.712C136.566 347.637 136.342 347.6 136.086 347.6C135.552 347.6 135.115 347.771 134.774 348.112C134.432 348.453 134.262 348.971 134.262 349.664ZM142.226 354.16C141.532 354.16 140.903 353.989 140.338 353.648C139.772 353.296 139.324 352.821 138.993 352.224C138.674 351.627 138.514 350.955 138.514 350.208C138.514 349.461 138.674 348.789 138.993 348.192C139.324 347.595 139.767 347.12 140.322 346.768C140.887 346.416 141.522 346.24 142.226 346.24C142.802 346.24 143.314 346.363 143.762 346.608C144.22 346.843 144.588 347.173 144.866 347.6C145.143 348.016 145.298 348.501 145.33 349.056V351.344C145.298 351.888 145.143 352.373 144.866 352.8C144.599 353.227 144.236 353.563 143.778 353.808C143.33 354.043 142.812 354.16 142.226 354.16ZM142.466 352.8C143.18 352.8 143.756 352.56 144.194 352.08C144.631 351.589 144.85 350.965 144.85 350.208C144.85 349.685 144.748 349.232 144.546 348.848C144.354 348.453 144.076 348.149 143.714 347.936C143.351 347.712 142.93 347.6 142.45 347.6C141.97 347.6 141.543 347.712 141.17 347.936C140.807 348.16 140.519 348.469 140.306 348.864C140.103 349.248 140.002 349.691 140.002 350.192C140.002 350.704 140.103 351.157 140.306 351.552C140.519 351.936 140.812 352.24 141.186 352.464C141.559 352.688 141.986 352.8 142.466 352.8ZM144.754 354V351.952L145.026 350.096L144.754 348.256V346.4H146.21V354H144.754ZM151.826 354.16C151.069 354.16 150.386 353.989 149.778 353.648C149.17 353.296 148.69 352.821 148.338 352.224C147.986 351.627 147.81 350.949 147.81 350.192C147.81 349.445 147.981 348.773 148.322 348.176C148.674 347.579 149.143 347.109 149.73 346.768C150.327 346.416 150.994 346.24 151.73 346.24C152.434 346.24 153.053 346.4 153.586 346.72C154.13 347.04 154.551 347.483 154.85 348.048C155.159 348.613 155.314 349.253 155.314 349.968C155.314 350.075 155.309 350.192 155.298 350.32C155.287 350.437 155.266 350.576 155.234 350.736H148.818V349.536H154.466L153.938 350C153.938 349.488 153.847 349.056 153.666 348.704C153.485 348.341 153.229 348.064 152.898 347.872C152.567 347.669 152.167 347.568 151.698 347.568C151.207 347.568 150.775 347.675 150.402 347.888C150.029 348.101 149.741 348.4 149.538 348.784C149.335 349.168 149.234 349.621 149.234 350.144C149.234 350.677 149.341 351.147 149.554 351.552C149.767 351.947 150.071 352.256 150.466 352.48C150.861 352.693 151.314 352.8 151.826 352.8C152.253 352.8 152.642 352.725 152.994 352.576C153.357 352.427 153.666 352.203 153.922 351.904L154.85 352.848C154.487 353.275 154.039 353.6 153.506 353.824C152.983 354.048 152.423 354.16 151.826 354.16ZM159.3 354.16C158.873 354.16 158.468 354.107 158.084 354C157.711 353.883 157.364 353.723 157.044 353.52C156.724 353.307 156.447 353.056 156.212 352.768L157.14 351.84C157.417 352.181 157.737 352.437 158.1 352.608C158.463 352.768 158.868 352.848 159.316 352.848C159.764 352.848 160.111 352.773 160.356 352.624C160.601 352.464 160.724 352.245 160.724 351.968C160.724 351.691 160.623 351.477 160.42 351.328C160.228 351.168 159.977 351.04 159.668 350.944C159.359 350.837 159.028 350.736 158.676 350.64C158.335 350.533 158.009 350.4 157.7 350.24C157.391 350.08 157.135 349.861 156.932 349.584C156.74 349.307 156.644 348.939 156.644 348.48C156.644 348.021 156.756 347.627 156.98 347.296C157.204 346.955 157.513 346.693 157.908 346.512C158.313 346.331 158.799 346.24 159.364 346.24C159.961 346.24 160.489 346.347 160.948 346.56C161.417 346.763 161.801 347.072 162.1 347.488L161.172 348.416C160.959 348.139 160.692 347.925 160.372 347.776C160.063 347.627 159.711 347.552 159.316 347.552C158.9 347.552 158.58 347.627 158.356 347.776C158.143 347.915 158.036 348.112 158.036 348.368C158.036 348.624 158.132 348.821 158.324 348.96C158.516 349.099 158.767 349.216 159.076 349.312C159.396 349.408 159.727 349.509 160.068 349.616C160.409 349.712 160.735 349.845 161.044 350.016C161.353 350.187 161.604 350.416 161.796 350.704C161.999 350.992 162.1 351.371 162.1 351.84C162.1 352.555 161.844 353.12 161.332 353.536C160.831 353.952 160.153 354.16 159.3 354.16ZM167.232 354.16C166.475 354.16 165.792 353.989 165.184 353.648C164.576 353.296 164.096 352.821 163.744 352.224C163.392 351.627 163.216 350.949 163.216 350.192C163.216 349.445 163.387 348.773 163.728 348.176C164.08 347.579 164.55 347.109 165.136 346.768C165.734 346.416 166.4 346.24 167.136 346.24C167.84 346.24 168.459 346.4 168.992 346.72C169.536 347.04 169.958 347.483 170.256 348.048C170.566 348.613 170.72 349.253 170.72 349.968C170.72 350.075 170.715 350.192 170.704 350.32C170.694 350.437 170.672 350.576 170.64 350.736H164.224V349.536H169.872L169.344 350C169.344 349.488 169.254 349.056 169.072 348.704C168.891 348.341 168.635 348.064 168.304 347.872C167.974 347.669 167.574 347.568 167.104 347.568C166.614 347.568 166.182 347.675 165.808 347.888C165.435 348.101 165.147 348.4 164.944 348.784C164.742 349.168 164.64 349.621 164.64 350.144C164.64 350.677 164.747 351.147 164.96 351.552C165.174 351.947 165.478 352.256 165.872 352.48C166.267 352.693 166.72 352.8 167.232 352.8C167.659 352.8 168.048 352.725 168.4 352.576C168.763 352.427 169.072 352.203 169.328 351.904L170.256 352.848C169.894 353.275 169.446 353.6 168.912 353.824C168.39 354.048 167.83 354.16 167.232 354.16ZM177.666 354V349.568C177.666 348.992 177.485 348.517 177.122 348.144C176.76 347.771 176.29 347.584 175.714 347.584C175.33 347.584 174.989 347.669 174.69 347.84C174.392 348.011 174.157 348.245 173.986 348.544C173.816 348.843 173.73 349.184 173.73 349.568L173.138 349.232C173.138 348.656 173.266 348.144 173.522 347.696C173.778 347.248 174.136 346.896 174.594 346.64C175.053 346.373 175.57 346.24 176.146 346.24C176.722 346.24 177.229 346.384 177.666 346.672C178.114 346.96 178.466 347.339 178.722 347.808C178.978 348.267 179.106 348.757 179.106 349.28V354H177.666ZM172.29 354V346.4H173.73V354H172.29ZM182.13 354V343.216H183.57V354H182.13ZM180.258 347.712V346.4H185.442V347.712H180.258ZM193.397 354.16C192.693 354.16 192.064 353.989 191.509 353.648C190.954 353.296 190.512 352.821 190.181 352.224C189.861 351.627 189.701 350.955 189.701 350.208C189.701 349.461 189.861 348.789 190.181 348.192C190.512 347.595 190.954 347.12 191.509 346.768C192.064 346.416 192.693 346.24 193.397 346.24C193.962 346.24 194.474 346.363 194.933 346.608C195.392 346.843 195.76 347.173 196.037 347.6C196.325 348.016 196.485 348.501 196.517 349.056V351.344C196.485 351.888 196.33 352.373 196.053 352.8C195.776 353.227 195.408 353.563 194.949 353.808C194.49 354.043 193.973 354.16 193.397 354.16ZM193.637 352.8C194.117 352.8 194.533 352.688 194.885 352.464C195.248 352.24 195.53 351.936 195.733 351.552C195.936 351.157 196.037 350.709 196.037 350.208C196.037 349.685 195.93 349.232 195.717 348.848C195.514 348.464 195.232 348.16 194.869 347.936C194.517 347.712 194.101 347.6 193.621 347.6C193.141 347.6 192.72 347.712 192.357 347.936C191.994 348.16 191.706 348.469 191.493 348.864C191.29 349.248 191.189 349.691 191.189 350.192C191.189 350.704 191.29 351.157 191.493 351.552C191.706 351.936 191.994 352.24 192.357 352.464C192.73 352.688 193.157 352.8 193.637 352.8ZM197.397 354H195.941V351.952L196.213 350.096L195.941 348.256V342.576H197.397V354ZM199.51 354V346.4H200.95V354H199.51ZM200.23 344.88C199.963 344.88 199.744 344.795 199.574 344.624C199.403 344.443 199.318 344.219 199.318 343.952C199.318 343.696 199.403 343.483 199.574 343.312C199.744 343.131 199.963 343.04 200.23 343.04C200.496 343.04 200.715 343.131 200.886 343.312C201.056 343.483 201.142 343.696 201.142 343.952C201.142 344.219 201.056 344.443 200.886 344.624C200.715 344.795 200.496 344.88 200.23 344.88ZM206.304 354.16C205.61 354.16 204.981 353.989 204.416 353.648C203.85 353.296 203.402 352.821 203.072 352.224C202.752 351.627 202.592 350.955 202.592 350.208C202.592 349.461 202.752 348.789 203.072 348.192C203.402 347.595 203.845 347.12 204.4 346.768C204.965 346.416 205.6 346.24 206.304 346.24C206.88 346.24 207.392 346.363 207.84 346.608C208.298 346.843 208.666 347.173 208.944 347.6C209.221 348.016 209.376 348.501 209.408 349.056V351.344C209.376 351.888 209.221 352.373 208.944 352.8C208.677 353.227 208.314 353.563 207.856 353.808C207.408 354.043 206.89 354.16 206.304 354.16ZM206.544 352.8C207.258 352.8 207.834 352.56 208.272 352.08C208.709 351.589 208.928 350.965 208.928 350.208C208.928 349.685 208.826 349.232 208.624 348.848C208.432 348.453 208.154 348.149 207.792 347.936C207.429 347.712 207.008 347.6 206.528 347.6C206.048 347.6 205.621 347.712 205.248 347.936C204.885 348.16 204.597 348.469 204.384 348.864C204.181 349.248 204.08 349.691 204.08 350.192C204.08 350.704 204.181 351.157 204.384 351.552C204.597 351.936 204.89 352.24 205.264 352.464C205.637 352.688 206.064 352.8 206.544 352.8ZM208.832 354V351.952L209.104 350.096L208.832 348.256V346.4H210.288V354H208.832ZM212.384 354V346.4H213.824V354H212.384ZM217.52 354V349.408C217.52 348.843 217.344 348.4 216.992 348.08C216.651 347.749 216.219 347.584 215.696 347.584C215.344 347.584 215.029 347.659 214.752 347.808C214.475 347.957 214.251 348.165 214.08 348.432C213.909 348.699 213.824 349.019 213.824 349.392L213.232 349.104C213.232 348.528 213.355 348.027 213.6 347.6C213.856 347.173 214.203 346.843 214.64 346.608C215.077 346.363 215.568 346.24 216.112 346.24C216.645 346.24 217.125 346.357 217.552 346.592C217.989 346.827 218.331 347.157 218.576 347.584C218.832 348.011 218.96 348.517 218.96 349.104V354H217.52ZM222.656 354V349.408C222.656 348.843 222.48 348.4 222.128 348.08C221.787 347.749 221.36 347.584 220.848 347.584C220.496 347.584 220.176 347.659 219.888 347.808C219.611 347.957 219.387 348.165 219.216 348.432C219.045 348.699 218.96 349.019 218.96 349.392L218.144 349.104C218.176 348.517 218.331 348.016 218.608 347.6C218.896 347.173 219.264 346.843 219.712 346.608C220.16 346.363 220.651 346.24 221.184 346.24C221.739 346.24 222.235 346.357 222.672 346.592C223.109 346.827 223.456 347.157 223.712 347.584C223.979 348.011 224.112 348.523 224.112 349.12V354H222.656ZM233.4 354.16C232.824 354.16 232.301 354.043 231.832 353.808C231.373 353.563 231.005 353.227 230.728 352.8C230.45 352.373 230.296 351.888 230.264 351.344V349.056C230.296 348.501 230.45 348.016 230.728 347.6C231.016 347.173 231.389 346.843 231.848 346.608C232.317 346.363 232.834 346.24 233.4 346.24C234.093 346.24 234.717 346.416 235.272 346.768C235.837 347.12 236.28 347.595 236.6 348.192C236.92 348.789 237.08 349.461 237.08 350.208C237.08 350.955 236.92 351.627 236.6 352.224C236.28 352.821 235.837 353.296 235.272 353.648C234.717 353.989 234.093 354.16 233.4 354.16ZM233.16 352.8C233.64 352.8 234.061 352.688 234.424 352.464C234.786 352.24 235.074 351.936 235.288 351.552C235.501 351.157 235.608 350.704 235.608 350.192C235.608 349.691 235.501 349.243 235.288 348.848C235.074 348.453 234.786 348.149 234.424 347.936C234.061 347.712 233.645 347.6 233.176 347.6C232.696 347.6 232.274 347.712 231.912 347.936C231.549 348.149 231.266 348.453 231.064 348.848C230.861 349.243 230.76 349.696 230.76 350.208C230.76 350.709 230.856 351.157 231.048 351.552C231.25 351.936 231.533 352.24 231.896 352.464C232.269 352.688 232.69 352.8 233.16 352.8ZM229.4 357.184V346.4H230.84V348.4L230.568 350.24L230.84 352.096V357.184H229.4ZM238.712 354V342.576H240.152V354H238.712ZM245.491 354.16C244.798 354.16 244.168 353.989 243.603 353.648C243.038 353.296 242.59 352.821 242.259 352.224C241.939 351.627 241.779 350.955 241.779 350.208C241.779 349.461 241.939 348.789 242.259 348.192C242.59 347.595 243.032 347.12 243.587 346.768C244.152 346.416 244.787 346.24 245.491 346.24C246.067 346.24 246.579 346.363 247.027 346.608C247.486 346.843 247.854 347.173 248.131 347.6C248.408 348.016 248.563 348.501 248.595 349.056V351.344C248.563 351.888 248.408 352.373 248.131 352.8C247.864 353.227 247.502 353.563 247.043 353.808C246.595 354.043 246.078 354.16 245.491 354.16ZM245.731 352.8C246.446 352.8 247.022 352.56 247.459 352.08C247.896 351.589 248.115 350.965 248.115 350.208C248.115 349.685 248.014 349.232 247.811 348.848C247.619 348.453 247.342 348.149 246.979 347.936C246.616 347.712 246.195 347.6 245.715 347.6C245.235 347.6 244.808 347.712 244.435 347.936C244.072 348.16 243.784 348.469 243.571 348.864C243.368 349.248 243.267 349.691 243.267 350.192C243.267 350.704 243.368 351.157 243.571 351.552C243.784 351.936 244.078 352.24 244.451 352.464C244.824 352.688 245.251 352.8 245.731 352.8ZM248.019 354V351.952L248.291 350.096L248.019 348.256V346.4H249.475V354H248.019ZM255.044 354.16C254.297 354.16 253.62 353.984 253.012 353.632C252.414 353.28 251.94 352.805 251.588 352.208C251.246 351.6 251.076 350.928 251.076 350.192C251.076 349.445 251.246 348.773 251.588 348.176C251.94 347.579 252.414 347.109 253.012 346.768C253.62 346.416 254.297 346.24 255.044 346.24C255.63 346.24 256.174 346.352 256.676 346.576C257.177 346.789 257.609 347.104 257.972 347.52L257.012 348.48C256.777 348.203 256.489 347.995 256.148 347.856C255.817 347.707 255.449 347.632 255.044 347.632C254.564 347.632 254.137 347.744 253.764 347.968C253.39 348.181 253.097 348.48 252.884 348.864C252.67 349.248 252.564 349.691 252.564 350.192C252.564 350.693 252.67 351.136 252.884 351.52C253.097 351.904 253.39 352.208 253.764 352.432C254.137 352.656 254.564 352.768 255.044 352.768C255.449 352.768 255.817 352.699 256.148 352.56C256.489 352.411 256.782 352.197 257.028 351.92L257.972 352.88C257.62 353.285 257.188 353.6 256.676 353.824C256.174 354.048 255.63 354.16 255.044 354.16ZM262.779 354.16C262.022 354.16 261.339 353.989 260.731 353.648C260.123 353.296 259.643 352.821 259.291 352.224C258.939 351.627 258.763 350.949 258.763 350.192C258.763 349.445 258.934 348.773 259.275 348.176C259.627 347.579 260.096 347.109 260.683 346.768C261.28 346.416 261.947 346.24 262.683 346.24C263.387 346.24 264.006 346.4 264.539 346.72C265.083 347.04 265.504 347.483 265.803 348.048C266.112 348.613 266.267 349.253 266.267 349.968C266.267 350.075 266.262 350.192 266.251 350.32C266.24 350.437 266.219 350.576 266.187 350.736H259.771V349.536H265.419L264.891 350C264.891 349.488 264.8 349.056 264.619 348.704C264.438 348.341 264.182 348.064 263.851 347.872C263.52 347.669 263.12 347.568 262.651 347.568C262.16 347.568 261.728 347.675 261.355 347.888C260.982 348.101 260.694 348.4 260.491 348.784C260.288 349.168 260.187 349.621 260.187 350.144C260.187 350.677 260.294 351.147 260.507 351.552C260.72 351.947 261.024 352.256 261.419 352.48C261.814 352.693 262.267 352.8 262.779 352.8C263.206 352.8 263.595 352.725 263.947 352.576C264.31 352.427 264.619 352.203 264.875 351.904L265.803 352.848C265.44 353.275 264.992 353.6 264.459 353.824C263.936 354.048 263.376 354.16 262.779 354.16ZM267.837 354V346.4H269.277V354H267.837ZM269.277 349.664L268.733 349.424C268.733 348.453 268.957 347.68 269.405 347.104C269.853 346.528 270.499 346.24 271.341 346.24C271.725 346.24 272.072 346.309 272.381 346.448C272.691 346.576 272.979 346.795 273.245 347.104L272.301 348.08C272.141 347.909 271.965 347.787 271.773 347.712C271.581 347.637 271.357 347.6 271.101 347.6C270.568 347.6 270.131 347.771 269.789 348.112C269.448 348.453 269.277 348.971 269.277 349.664ZM277.241 354.16C276.548 354.16 275.918 353.989 275.353 353.648C274.788 353.296 274.34 352.821 274.009 352.224C273.689 351.627 273.529 350.955 273.529 350.208C273.529 349.461 273.689 348.789 274.009 348.192C274.34 347.595 274.782 347.12 275.337 346.768C275.902 346.416 276.537 346.24 277.241 346.24C277.817 346.24 278.329 346.363 278.777 346.608C279.236 346.843 279.604 347.173 279.881 347.6C280.158 348.016 280.313 348.501 280.345 349.056V351.344C280.313 351.888 280.158 352.373 279.881 352.8C279.614 353.227 279.252 353.563 278.793 353.808C278.345 354.043 277.828 354.16 277.241 354.16ZM277.481 352.8C278.196 352.8 278.772 352.56 279.209 352.08C279.646 351.589 279.865 350.965 279.865 350.208C279.865 349.685 279.764 349.232 279.561 348.848C279.369 348.453 279.092 348.149 278.729 347.936C278.366 347.712 277.945 347.6 277.465 347.6C276.985 347.6 276.558 347.712 276.185 347.936C275.822 348.16 275.534 348.469 275.321 348.864C275.118 349.248 275.017 349.691 275.017 350.192C275.017 350.704 275.118 351.157 275.321 351.552C275.534 351.936 275.828 352.24 276.201 352.464C276.574 352.688 277.001 352.8 277.481 352.8ZM279.769 354V351.952L280.041 350.096L279.769 348.256V346.4H281.225V354H279.769ZM284.458 354V343.216H285.898V354H284.458ZM282.586 347.712V346.4H287.77V347.712H282.586ZM59.576 378.16C58.8187 378.16 58.136 377.989 57.528 377.648C56.92 377.296 56.44 376.821 56.088 376.224C55.736 375.627 55.56 374.949 55.56 374.192C55.56 373.445 55.7307 372.773 56.072 372.176C56.424 371.579 56.8933 371.109 57.48 370.768C58.0773 370.416 58.744 370.24 59.48 370.24C60.184 370.24 60.8027 370.4 61.336 370.72C61.88 371.04 62.3013 371.483 62.6 372.048C62.9093 372.613 63.064 373.253 63.064 373.968C63.064 374.075 63.0587 374.192 63.048 374.32C63.0373 374.437 63.016 374.576 62.984 374.736H56.568V373.536H62.216L61.688 374C61.688 373.488 61.5973 373.056 61.416 372.704C61.2347 372.341 60.9787 372.064 60.648 371.872C60.3173 371.669 59.9173 371.568 59.448 371.568C58.9573 371.568 58.5253 371.675 58.152 371.888C57.7787 372.101 57.4907 372.4 57.288 372.784C57.0853 373.168 56.984 373.621 56.984 374.144C56.984 374.677 57.0907 375.147 57.304 375.552C57.5173 375.947 57.8213 376.256 58.216 376.48C58.6107 376.693 59.064 376.8 59.576 376.8C60.0027 376.8 60.392 376.725 60.744 376.576C61.1067 376.427 61.416 376.203 61.672 375.904L62.6 376.848C62.2373 377.275 61.7893 377.6 61.256 377.824C60.7333 378.048 60.1733 378.16 59.576 378.16ZM64.6341 378V366.576H66.0741V378H64.6341ZM71.701 378.16C70.9437 378.16 70.261 377.989 69.653 377.648C69.045 377.296 68.565 376.821 68.213 376.224C67.861 375.627 67.685 374.949 67.685 374.192C67.685 373.445 67.8557 372.773 68.197 372.176C68.549 371.579 69.0183 371.109 69.605 370.768C70.2023 370.416 70.869 370.24 71.605 370.24C72.309 370.24 72.9277 370.4 73.461 370.72C74.005 371.04 74.4263 371.483 74.725 372.048C75.0343 372.613 75.189 373.253 75.189 373.968C75.189 374.075 75.1837 374.192 75.173 374.32C75.1623 374.437 75.141 374.576 75.109 374.736H68.693V373.536H74.341L73.813 374C73.813 373.488 73.7223 373.056 73.541 372.704C73.3597 372.341 73.1037 372.064 72.773 371.872C72.4423 371.669 72.0423 371.568 71.573 371.568C71.0823 371.568 70.6503 371.675 70.277 371.888C69.9037 372.101 69.6157 372.4 69.413 372.784C69.2103 373.168 69.109 373.621 69.109 374.144C69.109 374.677 69.2157 375.147 69.429 375.552C69.6423 375.947 69.9463 376.256 70.341 376.48C70.7357 376.693 71.189 376.8 71.701 376.8C72.1277 376.8 72.517 376.725 72.869 376.576C73.2317 376.427 73.541 376.203 73.797 375.904L74.725 376.848C74.3623 377.275 73.9143 377.6 73.381 377.824C72.8583 378.048 72.2983 378.16 71.701 378.16ZM76.7591 378V370.4H78.1991V378H76.7591ZM81.8951 378V373.408C81.8951 372.843 81.7191 372.4 81.3671 372.08C81.0258 371.749 80.5938 371.584 80.0711 371.584C79.7191 371.584 79.4045 371.659 79.1271 371.808C78.8498 371.957 78.6258 372.165 78.4551 372.432C78.2845 372.699 78.1991 373.019 78.1991 373.392L77.6071 373.104C77.6071 372.528 77.7298 372.027 77.9751 371.6C78.2311 371.173 78.5778 370.843 79.0151 370.608C79.4525 370.363 79.9431 370.24 80.4871 370.24C81.0205 370.24 81.5005 370.357 81.9271 370.592C82.3645 370.827 82.7058 371.157 82.9511 371.584C83.2071 372.011 83.3351 372.517 83.3351 373.104V378H81.8951ZM87.0311 378V373.408C87.0311 372.843 86.8551 372.4 86.5031 372.08C86.1618 371.749 85.7351 371.584 85.2231 371.584C84.8711 371.584 84.5511 371.659 84.2631 371.808C83.9858 371.957 83.7618 372.165 83.5911 372.432C83.4205 372.699 83.3351 373.019 83.3351 373.392L82.5191 373.104C82.5511 372.517 82.7058 372.016 82.9831 371.6C83.2711 371.173 83.6391 370.843 84.0871 370.608C84.5351 370.363 85.0258 370.24 85.5591 370.24C86.1138 370.24 86.6098 370.357 87.0471 370.592C87.4845 370.827 87.8311 371.157 88.0871 371.584C88.3538 372.011 88.4871 372.523 88.4871 373.12V378H87.0311ZM93.9666 378.16C93.2093 378.16 92.5266 377.989 91.9186 377.648C91.3106 377.296 90.8306 376.821 90.4786 376.224C90.1266 375.627 89.9506 374.949 89.9506 374.192C89.9506 373.445 90.1213 372.773 90.4626 372.176C90.8146 371.579 91.284 371.109 91.8706 370.768C92.468 370.416 93.1346 370.24 93.8706 370.24C94.5746 370.24 95.1933 370.4 95.7266 370.72C96.2706 371.04 96.692 371.483 96.9906 372.048C97.3 372.613 97.4546 373.253 97.4546 373.968C97.4546 374.075 97.4493 374.192 97.4386 374.32C97.428 374.437 97.4066 374.576 97.3746 374.736H90.9586V373.536H96.6066L96.0786 374C96.0786 373.488 95.988 373.056 95.8066 372.704C95.6253 372.341 95.3693 372.064 95.0386 371.872C94.708 371.669 94.308 371.568 93.8386 371.568C93.348 371.568 92.916 371.675 92.5426 371.888C92.1693 372.101 91.8813 372.4 91.6786 372.784C91.476 373.168 91.3746 373.621 91.3746 374.144C91.3746 374.677 91.4813 375.147 91.6946 375.552C91.908 375.947 92.212 376.256 92.6066 376.48C93.0013 376.693 93.4546 376.8 93.9666 376.8C94.3933 376.8 94.7826 376.725 95.1346 376.576C95.4973 376.427 95.8066 376.203 96.0626 375.904L96.9906 376.848C96.628 377.275 96.18 377.6 95.6466 377.824C95.124 378.048 94.564 378.16 93.9666 378.16ZM104.401 378V373.568C104.401 372.992 104.219 372.517 103.857 372.144C103.494 371.771 103.025 371.584 102.449 371.584C102.065 371.584 101.723 371.669 101.425 371.84C101.126 372.011 100.891 372.245 100.721 372.544C100.55 372.843 100.465 373.184 100.465 373.568L99.8728 373.232C99.8728 372.656 100.001 372.144 100.257 371.696C100.513 371.248 100.87 370.896 101.329 370.64C101.787 370.373 102.305 370.24 102.881 370.24C103.457 370.24 103.963 370.384 104.401 370.672C104.849 370.96 105.201 371.339 105.457 371.808C105.713 372.267 105.841 372.757 105.841 373.28V378H104.401ZM99.0247 378V370.4H100.465V378H99.0247ZM108.865 378V367.216H110.305V378H108.865ZM106.993 371.712V370.4H112.177V371.712H106.993ZM116.659 378.16C116.03 378.16 115.465 378.021 114.963 377.744C114.473 377.456 114.089 377.061 113.811 376.56C113.534 376.059 113.395 375.477 113.395 374.816V370.4H114.835V374.752C114.835 375.168 114.905 375.531 115.043 375.84C115.193 376.139 115.406 376.368 115.683 376.528C115.961 376.688 116.286 376.768 116.659 376.768C117.225 376.768 117.667 376.592 117.987 376.24C118.307 375.877 118.467 375.381 118.467 374.752V370.4H119.907V374.816C119.907 375.477 119.769 376.059 119.491 376.56C119.214 377.061 118.83 377.456 118.339 377.744C117.859 378.021 117.299 378.16 116.659 378.16ZM121.837 378V370.4H123.277V378H121.837ZM126.973 378V373.408C126.973 372.843 126.797 372.4 126.445 372.08C126.104 371.749 125.672 371.584 125.149 371.584C124.797 371.584 124.483 371.659 124.205 371.808C123.928 371.957 123.704 372.165 123.533 372.432C123.363 372.699 123.277 373.019 123.277 373.392L122.685 373.104C122.685 372.528 122.808 372.027 123.053 371.6C123.309 371.173 123.656 370.843 124.093 370.608C124.531 370.363 125.021 370.24 125.565 370.24C126.099 370.24 126.579 370.357 127.005 370.592C127.443 370.827 127.784 371.157 128.029 371.584C128.285 372.011 128.413 372.517 128.413 373.104V378H126.973ZM132.109 378V373.408C132.109 372.843 131.933 372.4 131.581 372.08C131.24 371.749 130.813 371.584 130.301 371.584C129.949 371.584 129.629 371.659 129.341 371.808C129.064 371.957 128.84 372.165 128.669 372.432C128.499 372.699 128.413 373.019 128.413 373.392L127.597 373.104C127.629 372.517 127.784 372.016 128.061 371.6C128.349 371.173 128.717 370.843 129.165 370.608C129.613 370.363 130.104 370.24 130.637 370.24C131.192 370.24 131.688 370.357 132.125 370.592C132.563 370.827 132.909 371.157 133.165 371.584C133.432 372.011 133.565 372.523 133.565 373.12V378H132.109ZM141.461 378L137.973 370.4H139.573L142.373 376.816H141.445L144.261 370.4H145.797L142.309 378H141.461ZM147.041 378V370.4H148.481V378H147.041ZM147.761 368.88C147.494 368.88 147.275 368.795 147.105 368.624C146.934 368.443 146.849 368.219 146.849 367.952C146.849 367.696 146.934 367.483 147.105 367.312C147.275 367.131 147.494 367.04 147.761 367.04C148.027 367.04 148.246 367.131 148.417 367.312C148.587 367.483 148.673 367.696 148.673 367.952C148.673 368.219 148.587 368.443 148.417 368.624C148.246 368.795 148.027 368.88 147.761 368.88ZM151.771 378V367.216H153.211V378H151.771ZM149.899 371.712V370.4H155.083V371.712H149.899ZM159.491 378.16C158.798 378.16 158.168 377.989 157.603 377.648C157.038 377.296 156.59 376.821 156.259 376.224C155.939 375.627 155.779 374.955 155.779 374.208C155.779 373.461 155.939 372.789 156.259 372.192C156.59 371.595 157.032 371.12 157.587 370.768C158.152 370.416 158.787 370.24 159.491 370.24C160.067 370.24 160.579 370.363 161.027 370.608C161.486 370.843 161.854 371.173 162.131 371.6C162.408 372.016 162.563 372.501 162.595 373.056V375.344C162.563 375.888 162.408 376.373 162.131 376.8C161.864 377.227 161.502 377.563 161.043 377.808C160.595 378.043 160.078 378.16 159.491 378.16ZM159.731 376.8C160.446 376.8 161.022 376.56 161.459 376.08C161.896 375.589 162.115 374.965 162.115 374.208C162.115 373.685 162.014 373.232 161.811 372.848C161.619 372.453 161.342 372.149 160.979 371.936C160.616 371.712 160.195 371.6 159.715 371.6C159.235 371.6 158.808 371.712 158.435 371.936C158.072 372.16 157.784 372.469 157.571 372.864C157.368 373.248 157.267 373.691 157.267 374.192C157.267 374.704 157.368 375.157 157.571 375.552C157.784 375.936 158.078 376.24 158.451 376.464C158.824 376.688 159.251 376.8 159.731 376.8ZM162.019 378V375.952L162.291 374.096L162.019 372.256V370.4H163.475V378H162.019ZM169.092 378.16C168.334 378.16 167.652 377.989 167.044 377.648C166.436 377.296 165.956 376.821 165.604 376.224C165.252 375.627 165.076 374.949 165.076 374.192C165.076 373.445 165.246 372.773 165.588 372.176C165.94 371.579 166.409 371.109 166.996 370.768C167.593 370.416 168.26 370.24 168.996 370.24C169.7 370.24 170.318 370.4 170.852 370.72C171.396 371.04 171.817 371.483 172.116 372.048C172.425 372.613 172.58 373.253 172.58 373.968C172.58 374.075 172.574 374.192 172.564 374.32C172.553 374.437 172.532 374.576 172.5 374.736H166.084V373.536H171.732L171.204 374C171.204 373.488 171.113 373.056 170.932 372.704C170.75 372.341 170.494 372.064 170.164 371.872C169.833 371.669 169.433 371.568 168.964 371.568C168.473 371.568 168.041 371.675 167.668 371.888C167.294 372.101 167.006 372.4 166.804 372.784C166.601 373.168 166.5 373.621 166.5 374.144C166.5 374.677 166.606 375.147 166.82 375.552C167.033 375.947 167.337 376.256 167.732 376.48C168.126 376.693 168.58 376.8 169.092 376.8C169.518 376.8 169.908 376.725 170.26 376.576C170.622 376.427 170.932 376.203 171.188 375.904L172.116 376.848C171.753 377.275 171.305 377.6 170.772 377.824C170.249 378.048 169.689 378.16 169.092 378.16Z" fill="#4A4A4A"/>
<path d="M61.748 261V241.512H66.144V261H61.748ZM55.56 245.068V241.232H72.332V245.068H55.56ZM71.6878 261V247.392H75.9718V261H71.6878ZM75.9718 253.524L74.1798 252.124C74.5344 250.537 75.1318 249.305 75.9718 248.428C76.8118 247.551 77.9784 247.112 79.4718 247.112C80.1251 247.112 80.6944 247.215 81.1798 247.42C81.6838 247.607 82.1224 247.905 82.4958 248.316L79.9478 251.536C79.7611 251.331 79.5278 251.172 79.2478 251.06C78.9678 250.948 78.6504 250.892 78.2958 250.892C77.5864 250.892 77.0171 251.116 76.5878 251.564C76.1771 251.993 75.9718 252.647 75.9718 253.524ZM88.9382 261.28C87.6875 261.28 86.5675 260.972 85.5782 260.356C84.6075 259.74 83.8329 258.9 83.2542 257.836C82.6942 256.772 82.4142 255.559 82.4142 254.196C82.4142 252.833 82.6942 251.62 83.2542 250.556C83.8329 249.492 84.6075 248.652 85.5782 248.036C86.5675 247.42 87.6875 247.112 88.9382 247.112C89.8529 247.112 90.6742 247.289 91.4022 247.644C92.1489 247.999 92.7555 248.493 93.2222 249.128C93.6889 249.744 93.9502 250.453 94.0062 251.256V257.136C93.9502 257.939 93.6889 258.657 93.2222 259.292C92.7742 259.908 92.1769 260.393 91.4302 260.748C90.6835 261.103 89.8529 261.28 88.9382 261.28ZM89.8062 257.416C90.7209 257.416 91.4582 257.117 92.0182 256.52C92.5782 255.904 92.8582 255.129 92.8582 254.196C92.8582 253.561 92.7275 253.001 92.4662 252.516C92.2235 252.031 91.8689 251.657 91.4022 251.396C90.9542 251.116 90.4315 250.976 89.8342 250.976C89.2369 250.976 88.7049 251.116 88.2382 251.396C87.7902 251.657 87.4262 252.031 87.1462 252.516C86.8849 253.001 86.7542 253.561 86.7542 254.196C86.7542 254.812 86.8849 255.363 87.1462 255.848C87.4075 256.333 87.7715 256.716 88.2382 256.996C88.7049 257.276 89.2275 257.416 89.8062 257.416ZM92.6902 261V257.332L93.3342 254.028L92.6902 250.724V247.392H96.8902V261H92.6902ZM105.703 261.28C104.415 261.28 103.267 260.972 102.259 260.356C101.269 259.74 100.485 258.9 99.9065 257.836C99.3465 256.772 99.0665 255.559 99.0665 254.196C99.0665 252.833 99.3465 251.62 99.9065 250.556C100.485 249.492 101.269 248.652 102.259 248.036C103.267 247.42 104.415 247.112 105.703 247.112C106.636 247.112 107.476 247.289 108.223 247.644C108.988 247.999 109.613 248.493 110.099 249.128C110.603 249.744 110.883 250.453 110.939 251.256V256.996C110.883 257.799 110.612 258.527 110.127 259.18C109.641 259.815 109.016 260.328 108.251 260.72C107.485 261.093 106.636 261.28 105.703 261.28ZM106.459 257.416C107.075 257.416 107.607 257.285 108.055 257.024C108.503 256.744 108.857 256.361 109.119 255.876C109.38 255.391 109.511 254.831 109.511 254.196C109.511 253.561 109.38 253.011 109.119 252.544C108.876 252.059 108.521 251.676 108.055 251.396C107.607 251.116 107.084 250.976 106.487 250.976C105.889 250.976 105.357 251.116 104.891 251.396C104.443 251.676 104.079 252.059 103.799 252.544C103.537 253.029 103.407 253.58 103.407 254.196C103.407 254.812 103.537 255.363 103.799 255.848C104.06 256.333 104.424 256.716 104.891 256.996C105.357 257.276 105.88 257.416 106.459 257.416ZM113.543 261H109.343V257.332L109.987 254.028L109.259 250.724V240.672H113.543V261ZM123.279 261.308C121.804 261.308 120.488 261.009 119.331 260.412C118.192 259.796 117.296 258.947 116.643 257.864C115.99 256.781 115.663 255.559 115.663 254.196C115.663 252.833 115.98 251.62 116.615 250.556C117.268 249.473 118.146 248.624 119.247 248.008C120.348 247.392 121.59 247.084 122.971 247.084C124.315 247.084 125.5 247.373 126.527 247.952C127.554 248.531 128.356 249.333 128.935 250.36C129.532 251.387 129.831 252.563 129.831 253.888C129.831 254.131 129.812 254.392 129.775 254.672C129.756 254.933 129.71 255.241 129.635 255.596L117.903 255.624V252.684L127.815 252.656L125.967 253.888C125.948 253.104 125.827 252.46 125.603 251.956C125.379 251.433 125.043 251.041 124.595 250.78C124.166 250.5 123.634 250.36 122.999 250.36C122.327 250.36 121.739 250.519 121.235 250.836C120.75 251.135 120.367 251.564 120.087 252.124C119.826 252.684 119.695 253.365 119.695 254.168C119.695 254.971 119.835 255.661 120.115 256.24C120.414 256.8 120.824 257.239 121.347 257.556C121.888 257.855 122.523 258.004 123.251 258.004C123.923 258.004 124.53 257.892 125.071 257.668C125.612 257.425 126.088 257.071 126.499 256.604L128.851 258.956C128.179 259.74 127.367 260.328 126.415 260.72C125.463 261.112 124.418 261.308 123.279 261.308ZM137.623 261V241.232H142.019V261H137.623ZM140.983 253.244V249.464H150.867V253.244H140.983ZM140.983 245.012V241.232H151.315V245.012H140.983ZM153.746 261V247.392H158.03V261H153.746ZM155.902 245.516C155.23 245.516 154.67 245.292 154.222 244.844C153.793 244.377 153.578 243.817 153.578 243.164C153.578 242.492 153.793 241.932 154.222 241.484C154.67 241.036 155.23 240.812 155.902 240.812C156.574 240.812 157.125 241.036 157.554 241.484C157.984 241.932 158.198 242.492 158.198 243.164C158.198 243.817 157.984 244.377 157.554 244.844C157.125 245.292 156.574 245.516 155.902 245.516ZM170.035 261V253.244C170.035 252.535 169.811 251.965 169.363 251.536C168.934 251.088 168.383 250.864 167.711 250.864C167.244 250.864 166.834 250.967 166.479 251.172C166.124 251.359 165.844 251.639 165.639 252.012C165.434 252.367 165.331 252.777 165.331 253.244L163.679 252.432C163.679 251.368 163.912 250.435 164.379 249.632C164.846 248.829 165.49 248.213 166.311 247.784C167.151 247.336 168.094 247.112 169.139 247.112C170.147 247.112 171.034 247.355 171.799 247.84C172.583 248.307 173.199 248.932 173.647 249.716C174.095 250.5 174.319 251.359 174.319 252.292V261H170.035ZM161.047 261V247.392H165.331V261H161.047ZM182.755 261.28C181.504 261.28 180.384 260.972 179.395 260.356C178.424 259.74 177.649 258.9 177.071 257.836C176.511 256.772 176.231 255.559 176.231 254.196C176.231 252.833 176.511 251.62 177.071 250.556C177.649 249.492 178.424 248.652 179.395 248.036C180.384 247.42 181.504 247.112 182.755 247.112C183.669 247.112 184.491 247.289 185.219 247.644C185.965 247.999 186.572 248.493 187.039 249.128C187.505 249.744 187.767 250.453 187.823 251.256V257.136C187.767 257.939 187.505 258.657 187.039 259.292C186.591 259.908 185.993 260.393 185.247 260.748C184.5 261.103 183.669 261.28 182.755 261.28ZM183.623 257.416C184.537 257.416 185.275 257.117 185.835 256.52C186.395 255.904 186.675 255.129 186.675 254.196C186.675 253.561 186.544 253.001 186.283 252.516C186.04 252.031 185.685 251.657 185.219 251.396C184.771 251.116 184.248 250.976 183.651 250.976C183.053 250.976 182.521 251.116 182.055 251.396C181.607 251.657 181.243 252.031 180.963 252.516C180.701 253.001 180.571 253.561 180.571 254.196C180.571 254.812 180.701 255.363 180.963 255.848C181.224 256.333 181.588 256.716 182.055 256.996C182.521 257.276 183.044 257.416 183.623 257.416ZM186.507 261V257.332L187.151 254.028L186.507 250.724V247.392H190.707V261H186.507ZM202.711 261V253.244C202.711 252.535 202.487 251.965 202.039 251.536C201.61 251.088 201.059 250.864 200.387 250.864C199.92 250.864 199.51 250.967 199.155 251.172C198.8 251.359 198.52 251.639 198.315 252.012C198.11 252.367 198.007 252.777 198.007 253.244L196.355 252.432C196.355 251.368 196.588 250.435 197.055 249.632C197.522 248.829 198.166 248.213 198.987 247.784C199.827 247.336 200.77 247.112 201.815 247.112C202.823 247.112 203.71 247.355 204.475 247.84C205.259 248.307 205.875 248.932 206.323 249.716C206.771 250.5 206.995 251.359 206.995 252.292V261H202.711ZM193.723 261V247.392H198.007V261H193.723ZM216.326 261.308C214.926 261.308 213.657 261 212.518 260.384C211.38 259.768 210.484 258.919 209.83 257.836C209.177 256.753 208.85 255.54 208.85 254.196C208.85 252.833 209.177 251.62 209.83 250.556C210.502 249.473 211.408 248.624 212.546 248.008C213.685 247.392 214.964 247.084 216.382 247.084C217.446 247.084 218.417 247.271 219.294 247.644C220.19 247.999 220.984 248.54 221.674 249.268L218.93 252.012C218.613 251.657 218.24 251.396 217.81 251.228C217.4 251.06 216.924 250.976 216.382 250.976C215.766 250.976 215.216 251.116 214.73 251.396C214.264 251.657 213.89 252.031 213.61 252.516C213.349 252.983 213.218 253.533 213.218 254.168C213.218 254.803 213.349 255.363 213.61 255.848C213.89 256.333 214.273 256.716 214.758 256.996C215.244 257.276 215.785 257.416 216.382 257.416C216.942 257.416 217.437 257.323 217.866 257.136C218.314 256.931 218.697 256.651 219.014 256.296L221.73 259.04C221.021 259.787 220.218 260.356 219.322 260.748C218.426 261.121 217.428 261.308 216.326 261.308ZM230.029 261.308C228.554 261.308 227.238 261.009 226.081 260.412C224.942 259.796 224.046 258.947 223.393 257.864C222.74 256.781 222.413 255.559 222.413 254.196C222.413 252.833 222.73 251.62 223.365 250.556C224.018 249.473 224.896 248.624 225.997 248.008C227.098 247.392 228.34 247.084 229.721 247.084C231.065 247.084 232.25 247.373 233.277 247.952C234.304 248.531 235.106 249.333 235.685 250.36C236.282 251.387 236.581 252.563 236.581 253.888C236.581 254.131 236.562 254.392 236.525 254.672C236.506 254.933 236.46 255.241 236.385 255.596L224.653 255.624V252.684L234.565 252.656L232.717 253.888C232.698 253.104 232.577 252.46 232.353 251.956C232.129 251.433 231.793 251.041 231.345 250.78C230.916 250.5 230.384 250.36 229.749 250.36C229.077 250.36 228.489 250.519 227.985 250.836C227.5 251.135 227.117 251.564 226.837 252.124C226.576 252.684 226.445 253.365 226.445 254.168C226.445 254.971 226.585 255.661 226.865 256.24C227.164 256.8 227.574 257.239 228.097 257.556C228.638 257.855 229.273 258.004 230.001 258.004C230.673 258.004 231.28 257.892 231.821 257.668C232.362 257.425 232.838 257.071 233.249 256.604L235.601 258.956C234.929 259.74 234.117 260.328 233.165 260.72C232.213 261.112 231.168 261.308 230.029 261.308ZM250.309 261.308C248.685 261.308 247.285 261.047 246.109 260.524C244.951 259.983 243.887 259.171 242.917 258.088L245.773 255.26C246.407 255.988 247.107 256.557 247.873 256.968C248.657 257.36 249.562 257.556 250.589 257.556C251.522 257.556 252.241 257.388 252.745 257.052C253.267 256.716 253.529 256.249 253.529 255.652C253.529 255.111 253.361 254.672 253.025 254.336C252.689 254 252.241 253.711 251.681 253.468C251.139 253.225 250.533 252.992 249.861 252.768C249.207 252.544 248.554 252.292 247.901 252.012C247.247 251.713 246.641 251.349 246.081 250.92C245.539 250.472 245.101 249.921 244.765 249.268C244.429 248.596 244.261 247.756 244.261 246.748C244.261 245.535 244.55 244.489 245.129 243.612C245.726 242.735 246.547 242.072 247.593 241.624C248.638 241.157 249.842 240.924 251.205 240.924C252.586 240.924 253.846 241.167 254.985 241.652C256.142 242.137 257.094 242.8 257.841 243.64L254.985 246.468C254.387 245.852 253.781 245.395 253.165 245.096C252.567 244.797 251.886 244.648 251.121 244.648C250.355 244.648 249.749 244.797 249.301 245.096C248.853 245.376 248.629 245.787 248.629 246.328C248.629 246.832 248.797 247.243 249.133 247.56C249.469 247.859 249.907 248.12 250.449 248.344C251.009 248.568 251.615 248.792 252.269 249.016C252.941 249.24 253.603 249.501 254.257 249.8C254.91 250.099 255.507 250.481 256.049 250.948C256.609 251.396 257.057 251.975 257.393 252.684C257.729 253.375 257.897 254.233 257.897 255.26C257.897 257.145 257.225 258.629 255.881 259.712C254.537 260.776 252.679 261.308 250.309 261.308ZM266.943 261.308C265.468 261.308 264.152 261.009 262.995 260.412C261.856 259.796 260.96 258.947 260.307 257.864C259.654 256.781 259.327 255.559 259.327 254.196C259.327 252.833 259.644 251.62 260.279 250.556C260.932 249.473 261.81 248.624 262.911 248.008C264.012 247.392 265.254 247.084 266.635 247.084C267.979 247.084 269.164 247.373 270.191 247.952C271.218 248.531 272.02 249.333 272.599 250.36C273.196 251.387 273.495 252.563 273.495 253.888C273.495 254.131 273.476 254.392 273.439 254.672C273.42 254.933 273.374 255.241 273.299 255.596L261.567 255.624V252.684L271.479 252.656L269.631 253.888C269.612 253.104 269.491 252.46 269.267 251.956C269.043 251.433 268.707 251.041 268.259 250.78C267.83 250.5 267.298 250.36 266.663 250.36C265.991 250.36 265.403 250.519 264.899 250.836C264.414 251.135 264.031 251.564 263.751 252.124C263.49 252.684 263.359 253.365 263.359 254.168C263.359 254.971 263.499 255.661 263.779 256.24C264.078 256.8 264.488 257.239 265.011 257.556C265.552 257.855 266.187 258.004 266.915 258.004C267.587 258.004 268.194 257.892 268.735 257.668C269.276 257.425 269.752 257.071 270.163 256.604L272.515 258.956C271.843 259.74 271.031 260.328 270.079 260.72C269.127 261.112 268.082 261.308 266.943 261.308ZM275.563 261V247.392H279.847V261H275.563ZM279.847 253.524L278.055 252.124C278.409 250.537 279.007 249.305 279.847 248.428C280.687 247.551 281.853 247.112 283.347 247.112C284 247.112 284.569 247.215 285.055 247.42C285.559 247.607 285.997 247.905 286.371 248.316L283.823 251.536C283.636 251.331 283.403 251.172 283.123 251.06C282.843 250.948 282.525 250.892 282.171 250.892C281.461 250.892 280.892 251.116 280.463 251.564C280.052 251.993 279.847 252.647 279.847 253.524ZM291.687 261L285.919 247.392H290.539L294.459 258.732H292.443L296.363 247.392H300.899L295.131 260.972L291.687 261ZM302.442 261V247.392H306.726V261H302.442ZM304.598 245.516C303.926 245.516 303.366 245.292 302.918 244.844C302.488 244.377 302.274 243.817 302.274 243.164C302.274 242.492 302.488 241.932 302.918 241.484C303.366 241.036 303.926 240.812 304.598 240.812C305.27 240.812 305.82 241.036 306.25 241.484C306.679 241.932 306.894 242.492 306.894 243.164C306.894 243.817 306.679 244.377 306.25 244.844C305.82 245.292 305.27 245.516 304.598 245.516ZM316.322 261.308C314.922 261.308 313.653 261 312.514 260.384C311.376 259.768 310.48 258.919 309.826 257.836C309.173 256.753 308.846 255.54 308.846 254.196C308.846 252.833 309.173 251.62 309.826 250.556C310.498 249.473 311.404 248.624 312.542 248.008C313.681 247.392 314.96 247.084 316.378 247.084C317.442 247.084 318.413 247.271 319.29 247.644C320.186 247.999 320.98 248.54 321.67 249.268L318.926 252.012C318.609 251.657 318.236 251.396 317.806 251.228C317.396 251.06 316.92 250.976 316.378 250.976C315.762 250.976 315.212 251.116 314.726 251.396C314.26 251.657 313.886 252.031 313.606 252.516C313.345 252.983 313.214 253.533 313.214 254.168C313.214 254.803 313.345 255.363 313.606 255.848C313.886 256.333 314.269 256.716 314.754 256.996C315.24 257.276 315.781 257.416 316.378 257.416C316.938 257.416 317.433 257.323 317.862 257.136C318.31 256.931 318.693 256.651 319.01 256.296L321.726 259.04C321.017 259.787 320.214 260.356 319.318 260.748C318.422 261.121 317.424 261.308 316.322 261.308ZM330.025 261.308C328.55 261.308 327.234 261.009 326.077 260.412C324.938 259.796 324.042 258.947 323.389 257.864C322.736 256.781 322.409 255.559 322.409 254.196C322.409 252.833 322.726 251.62 323.361 250.556C324.014 249.473 324.892 248.624 325.993 248.008C327.094 247.392 328.336 247.084 329.717 247.084C331.061 247.084 332.246 247.373 333.273 247.952C334.3 248.531 335.102 249.333 335.681 250.36C336.278 251.387 336.577 252.563 336.577 253.888C336.577 254.131 336.558 254.392 336.521 254.672C336.502 254.933 336.456 255.241 336.381 255.596L324.649 255.624V252.684L334.561 252.656L332.713 253.888C332.694 253.104 332.573 252.46 332.349 251.956C332.125 251.433 331.789 251.041 331.341 250.78C330.912 250.5 330.38 250.36 329.745 250.36C329.073 250.36 328.485 250.519 327.981 250.836C327.496 251.135 327.113 251.564 326.833 252.124C326.572 252.684 326.441 253.365 326.441 254.168C326.441 254.971 326.581 255.661 326.861 256.24C327.16 256.8 327.57 257.239 328.093 257.556C328.634 257.855 329.269 258.004 329.997 258.004C330.669 258.004 331.276 257.892 331.817 257.668C332.358 257.425 332.834 257.071 333.245 256.604L335.597 258.956C334.925 259.74 334.113 260.328 333.161 260.72C332.209 261.112 331.164 261.308 330.025 261.308ZM343.601 261.336C342.798 261.336 342.005 261.233 341.221 261.028C340.455 260.823 339.737 260.533 339.065 260.16C338.411 259.768 337.851 259.32 337.385 258.816L339.821 256.352C340.269 256.837 340.801 257.22 341.417 257.5C342.033 257.761 342.705 257.892 343.433 257.892C343.937 257.892 344.319 257.817 344.581 257.668C344.861 257.519 345.001 257.313 345.001 257.052C345.001 256.716 344.833 256.464 344.497 256.296C344.179 256.109 343.769 255.951 343.265 255.82C342.761 255.671 342.229 255.512 341.669 255.344C341.109 255.176 340.577 254.943 340.073 254.644C339.569 254.345 339.158 253.935 338.841 253.412C338.523 252.871 338.365 252.189 338.365 251.368C338.365 250.491 338.589 249.735 339.037 249.1C339.485 248.447 340.119 247.933 340.941 247.56C341.762 247.187 342.723 247 343.825 247C344.982 247 346.046 247.205 347.017 247.616C348.006 248.008 348.809 248.596 349.425 249.38L346.989 251.844C346.559 251.34 346.074 250.985 345.533 250.78C345.01 250.575 344.497 250.472 343.993 250.472C343.507 250.472 343.143 250.547 342.901 250.696C342.658 250.827 342.537 251.023 342.537 251.284C342.537 251.564 342.695 251.788 343.013 251.956C343.33 252.124 343.741 252.273 344.245 252.404C344.749 252.535 345.281 252.693 345.841 252.88C346.401 253.067 346.933 253.319 347.437 253.636C347.941 253.953 348.351 254.383 348.669 254.924C348.986 255.447 349.145 256.137 349.145 256.996C349.145 258.321 348.641 259.376 347.633 260.16C346.643 260.944 345.299 261.336 343.601 261.336ZM55.42 293L63.26 273.232H67.236L74.992 293H70.344L64.408 276.592H66.004L59.984 293H55.42ZM59.872 289.416V285.832H70.652V289.416H59.872ZM85.8984 293V285.244C85.8984 284.535 85.6744 283.965 85.2264 283.536C84.7971 283.088 84.2464 282.864 83.5744 282.864C83.1078 282.864 82.6971 282.967 82.3424 283.172C81.9878 283.359 81.7078 283.639 81.5024 284.012C81.2971 284.367 81.1944 284.777 81.1944 285.244L79.5424 284.432C79.5424 283.368 79.7758 282.435 80.2424 281.632C80.7091 280.829 81.3531 280.213 82.1744 279.784C83.0144 279.336 83.9571 279.112 85.0024 279.112C86.0104 279.112 86.8971 279.355 87.6624 279.84C88.4464 280.307 89.0624 280.932 89.5104 281.716C89.9584 282.5 90.1824 283.359 90.1824 284.292V293H85.8984ZM76.9104 293V279.392H81.1944V293H76.9104ZM98.7299 293.28C97.4419 293.28 96.2939 292.972 95.2859 292.356C94.2965 291.74 93.5125 290.9 92.9339 289.836C92.3739 288.772 92.0939 287.559 92.0939 286.196C92.0939 284.833 92.3739 283.62 92.9339 282.556C93.5125 281.492 94.2965 280.652 95.2859 280.036C96.2939 279.42 97.4419 279.112 98.7299 279.112C99.6632 279.112 100.503 279.289 101.25 279.644C102.015 279.999 102.641 280.493 103.126 281.128C103.63 281.744 103.91 282.453 103.966 283.256V288.996C103.91 289.799 103.639 290.527 103.154 291.18C102.669 291.815 102.043 292.328 101.278 292.72C100.513 293.093 99.6632 293.28 98.7299 293.28ZM99.4859 289.416C100.102 289.416 100.634 289.285 101.082 289.024C101.53 288.744 101.885 288.361 102.146 287.876C102.407 287.391 102.538 286.831 102.538 286.196C102.538 285.561 102.407 285.011 102.146 284.544C101.903 284.059 101.549 283.676 101.082 283.396C100.634 283.116 100.111 282.976 99.5139 282.976C98.9165 282.976 98.3845 283.116 97.9179 283.396C97.4699 283.676 97.1059 284.059 96.8259 284.544C96.5645 285.029 96.4339 285.58 96.4339 286.196C96.4339 286.812 96.5645 287.363 96.8259 287.848C97.0872 288.333 97.4512 288.716 97.9179 288.996C98.3845 289.276 98.9072 289.416 99.4859 289.416ZM106.57 293H102.37V289.332L103.014 286.028L102.286 282.724V272.672H106.57V293ZM121.246 293.308C119.622 293.308 118.222 293.047 117.046 292.524C115.889 291.983 114.825 291.171 113.854 290.088L116.71 287.26C117.345 287.988 118.045 288.557 118.81 288.968C119.594 289.36 120.5 289.556 121.526 289.556C122.46 289.556 123.178 289.388 123.682 289.052C124.205 288.716 124.466 288.249 124.466 287.652C124.466 287.111 124.298 286.672 123.962 286.336C123.626 286 123.178 285.711 122.618 285.468C122.077 285.225 121.47 284.992 120.798 284.768C120.145 284.544 119.492 284.292 118.838 284.012C118.185 283.713 117.578 283.349 117.018 282.92C116.477 282.472 116.038 281.921 115.702 281.268C115.366 280.596 115.198 279.756 115.198 278.748C115.198 277.535 115.488 276.489 116.066 275.612C116.664 274.735 117.485 274.072 118.53 273.624C119.576 273.157 120.78 272.924 122.142 272.924C123.524 272.924 124.784 273.167 125.922 273.652C127.08 274.137 128.032 274.8 128.778 275.64L125.922 278.468C125.325 277.852 124.718 277.395 124.102 277.096C123.505 276.797 122.824 276.648 122.058 276.648C121.293 276.648 120.686 276.797 120.238 277.096C119.79 277.376 119.566 277.787 119.566 278.328C119.566 278.832 119.734 279.243 120.07 279.56C120.406 279.859 120.845 280.12 121.386 280.344C121.946 280.568 122.553 280.792 123.206 281.016C123.878 281.24 124.541 281.501 125.194 281.8C125.848 282.099 126.445 282.481 126.986 282.948C127.546 283.396 127.994 283.975 128.33 284.684C128.666 285.375 128.834 286.233 128.834 287.26C128.834 289.145 128.162 290.629 126.818 291.712C125.474 292.776 123.617 293.308 121.246 293.308ZM137.712 293.308C136.312 293.308 135.043 293 133.904 292.384C132.784 291.749 131.898 290.891 131.244 289.808C130.591 288.725 130.264 287.512 130.264 286.168C130.264 284.824 130.591 283.62 131.244 282.556C131.898 281.492 132.784 280.652 133.904 280.036C135.024 279.401 136.294 279.084 137.712 279.084C139.131 279.084 140.4 279.392 141.52 280.008C142.64 280.624 143.527 281.473 144.18 282.556C144.834 283.62 145.16 284.824 145.16 286.168C145.16 287.512 144.834 288.725 144.18 289.808C143.527 290.891 142.64 291.749 141.52 292.384C140.4 293 139.131 293.308 137.712 293.308ZM137.712 289.416C138.328 289.416 138.87 289.285 139.336 289.024C139.803 288.744 140.158 288.361 140.4 287.876C140.662 287.372 140.792 286.803 140.792 286.168C140.792 285.533 140.662 284.983 140.4 284.516C140.139 284.031 139.775 283.657 139.308 283.396C138.86 283.116 138.328 282.976 137.712 282.976C137.115 282.976 136.583 283.116 136.116 283.396C135.65 283.657 135.286 284.031 135.024 284.516C134.763 285.001 134.632 285.561 134.632 286.196C134.632 286.812 134.763 287.372 135.024 287.876C135.286 288.361 135.65 288.744 136.116 289.024C136.583 289.285 137.115 289.416 137.712 289.416ZM147.293 293V272.672H151.577V293H147.293ZM160.642 293.308C159.391 293.308 158.281 293.056 157.31 292.552C156.358 292.029 155.611 291.32 155.07 290.424C154.529 289.509 154.258 288.464 154.258 287.288V279.392H158.542V287.232C158.542 287.699 158.617 288.1 158.766 288.436C158.934 288.772 159.177 289.033 159.494 289.22C159.811 289.407 160.194 289.5 160.642 289.5C161.277 289.5 161.781 289.304 162.154 288.912C162.527 288.501 162.714 287.941 162.714 287.232V279.392H166.998V287.26C166.998 288.455 166.727 289.509 166.186 290.424C165.645 291.32 164.898 292.029 163.946 292.552C162.994 293.056 161.893 293.308 160.642 293.308ZM171.62 293V273.764H175.904V293H171.62ZM168.54 283.032V279.392H178.984V283.032H168.54ZM180.871 293V279.392H185.155V293H180.871ZM183.027 277.516C182.355 277.516 181.795 277.292 181.347 276.844C180.918 276.377 180.703 275.817 180.703 275.164C180.703 274.492 180.918 273.932 181.347 273.484C181.795 273.036 182.355 272.812 183.027 272.812C183.699 272.812 184.25 273.036 184.679 273.484C185.109 273.932 185.323 274.492 185.323 275.164C185.323 275.817 185.109 276.377 184.679 276.844C184.25 277.292 183.699 277.516 183.027 277.516ZM194.724 293.308C193.324 293.308 192.055 293 190.916 292.384C189.796 291.749 188.909 290.891 188.256 289.808C187.603 288.725 187.276 287.512 187.276 286.168C187.276 284.824 187.603 283.62 188.256 282.556C188.909 281.492 189.796 280.652 190.916 280.036C192.036 279.401 193.305 279.084 194.724 279.084C196.143 279.084 197.412 279.392 198.532 280.008C199.652 280.624 200.539 281.473 201.192 282.556C201.845 283.62 202.172 284.824 202.172 286.168C202.172 287.512 201.845 288.725 201.192 289.808C200.539 290.891 199.652 291.749 198.532 292.384C197.412 293 196.143 293.308 194.724 293.308ZM194.724 289.416C195.34 289.416 195.881 289.285 196.348 289.024C196.815 288.744 197.169 288.361 197.412 287.876C197.673 287.372 197.804 286.803 197.804 286.168C197.804 285.533 197.673 284.983 197.412 284.516C197.151 284.031 196.787 283.657 196.32 283.396C195.872 283.116 195.34 282.976 194.724 282.976C194.127 282.976 193.595 283.116 193.128 283.396C192.661 283.657 192.297 284.031 192.036 284.516C191.775 285.001 191.644 285.561 191.644 286.196C191.644 286.812 191.775 287.372 192.036 287.876C192.297 288.361 192.661 288.744 193.128 289.024C193.595 289.285 194.127 289.416 194.724 289.416ZM213.293 293V285.244C213.293 284.535 213.069 283.965 212.621 283.536C212.192 283.088 211.641 282.864 210.969 282.864C210.502 282.864 210.092 282.967 209.737 283.172C209.382 283.359 209.102 283.639 208.897 284.012C208.692 284.367 208.589 284.777 208.589 285.244L206.937 284.432C206.937 283.368 207.17 282.435 207.637 281.632C208.104 280.829 208.748 280.213 209.569 279.784C210.409 279.336 211.352 279.112 212.397 279.112C213.405 279.112 214.292 279.355 215.057 279.84C215.841 280.307 216.457 280.932 216.905 281.716C217.353 282.5 217.577 283.359 217.577 284.292V293H213.293ZM204.305 293V279.392H208.589V293H204.305ZM225.284 293.336C224.482 293.336 223.688 293.233 222.904 293.028C222.139 292.823 221.42 292.533 220.748 292.16C220.095 291.768 219.535 291.32 219.068 290.816L221.504 288.352C221.952 288.837 222.484 289.22 223.1 289.5C223.716 289.761 224.388 289.892 225.116 289.892C225.62 289.892 226.003 289.817 226.264 289.668C226.544 289.519 226.684 289.313 226.684 289.052C226.684 288.716 226.516 288.464 226.18 288.296C225.863 288.109 225.452 287.951 224.948 287.82C224.444 287.671 223.912 287.512 223.352 287.344C222.792 287.176 222.26 286.943 221.756 286.644C221.252 286.345 220.842 285.935 220.524 285.412C220.207 284.871 220.048 284.189 220.048 283.368C220.048 282.491 220.272 281.735 220.72 281.1C221.168 280.447 221.803 279.933 222.624 279.56C223.446 279.187 224.407 279 225.508 279C226.666 279 227.73 279.205 228.7 279.616C229.69 280.008 230.492 280.596 231.108 281.38L228.672 283.844C228.243 283.34 227.758 282.985 227.216 282.78C226.694 282.575 226.18 282.472 225.676 282.472C225.191 282.472 224.827 282.547 224.584 282.696C224.342 282.827 224.22 283.023 224.22 283.284C224.22 283.564 224.379 283.788 224.696 283.956C225.014 284.124 225.424 284.273 225.928 284.404C226.432 284.535 226.964 284.693 227.524 284.88C228.084 285.067 228.616 285.319 229.12 285.636C229.624 285.953 230.035 286.383 230.352 286.924C230.67 287.447 230.828 288.137 230.828 288.996C230.828 290.321 230.324 291.376 229.316 292.16C228.327 292.944 226.983 293.336 225.284 293.336Z" fill="#3C3C3C"/>
<g clip-path="url(#clip0_6_12062)">
<path d="M138.001 171.587C138.001 156.947 126.641 147 114.001 147C101.494 147 90.0007 156.733 90.0007 171.747C88.4007 172.653 87.334 174.36 87.334 176.333V181.667C87.334 184.6 89.734 187 92.6673 187C94.134 187 95.334 185.8 95.334 184.333V171.507C95.334 161.293 103.201 152.36 113.414 152.067C123.974 151.747 132.667 160.227 132.667 170.733V189.667H114.001C112.534 189.667 111.334 190.867 111.334 192.333C111.334 193.8 112.534 195 114.001 195H132.667C135.601 195 138.001 192.6 138.001 189.667V186.413C139.574 185.587 140.667 183.96 140.667 182.04V175.907C140.667 174.04 139.574 172.413 138.001 171.587Z" fill="url(#paint0_linear_6_12062)"/>
<path d="M106.001 176.333C107.473 176.333 108.667 175.139 108.667 173.667C108.667 172.194 107.473 171 106.001 171C104.528 171 103.334 172.194 103.334 173.667C103.334 175.139 104.528 176.333 106.001 176.333Z" fill="url(#paint1_linear_6_12062)"/>
<path d="M122.001 176.333C123.473 176.333 124.667 175.139 124.667 173.667C124.667 172.194 123.473 171 122.001 171C120.528 171 119.334 172.194 119.334 173.667C119.334 175.139 120.528 176.333 122.001 176.333Z" fill="url(#paint2_linear_6_12062)"/>
<path d="M130.001 168.413C128.721 160.813 122.108 155 114.135 155C106.055 155 97.3612 161.693 98.0546 172.2C104.641 169.507 109.601 163.64 111.015 156.493C114.508 163.507 121.681 168.333 130.001 168.413Z" fill="url(#paint3_linear_6_12062)"/>
</g>
<defs>
<filter id="filter0_d_6_12062" x="0" y="0.556152" width="490" height="560.592" filterUnits="userSpaceOnUse" color-interpolation-filters="sRGB">
<feFlood flood-opacity="0" result="BackgroundImageFix"/>
<feColorMatrix in="SourceAlpha" type="matrix" values="0 0 0 0 0 0 0 0 0 0 0 0 0 0 0 0 0 0 127 0" result="hardAlpha"/>
<feOffset dx="24" dy="30"/>
<feGaussianBlur stdDeviation="25.5"/>
<feComposite in2="hardAlpha" operator="out"/>
<feColorMatrix type="matrix" values="0 0 0 0 0 0 0 0 0 0 0 0 0 0 0 0 0 0 0.1 0"/>
<feBlend mode="normal" in2="BackgroundImageFix" result="effect1_dropShadow_6_12062"/>
<feBlend mode="normal" in="SourceGraphic" in2="effect1_dropShadow_6_12062" result="shape"/>
</filter>
<linearGradient id="paint0_linear_6_12062" x1="83.1022" y1="143.071" x2="140.279" y2="207.201" gradientUnits="userSpaceOnUse">
<stop stop-color="#ED1F24"/>
<stop offset="1"/>
</linearGradient>
<linearGradient id="paint1_linear_6_12062" x1="102.911" y1="170.563" x2="109.305" y2="177.018" gradientUnits="userSpaceOnUse">
<stop stop-color="#ED1F24"/>
<stop offset="1"/>
</linearGradient>
<linearGradient id="paint2_linear_6_12062" x1="118.911" y1="170.563" x2="125.305" y2="177.018" gradientUnits="userSpaceOnUse">
<stop stop-color="#ED1F24"/>
<stop offset="1"/>
</linearGradient>
<linearGradient id="paint3_linear_6_12062" x1="95.4777" y1="153.592" x2="112.593" y2="185.722" gradientUnits="userSpaceOnUse">
<stop stop-color="#ED1F24"/>
<stop offset="1"/>
</linearGradient>
<clipPath id="clip0_6_12062">
<rect width="64" height="64" fill="white" transform="translate(82 139)"/>
</clipPath>
</defs>
</svg>
